<svg width="14" height="31" viewBox="0 0 14 31" fill="none" xmlns="http://www.w3.org/2000/svg">
<path d="M7.7047 20.6819V24.1059C8.12629 24.0367 8.50975 23.8204 8.7871 23.4955C9.0639 23.1699 9.2023 22.7891 9.2023 22.3507C9.2023 21.9587 9.0863 21.6203 8.8543 21.3355C8.6191 21.0539 8.2359 20.8363 7.7047 20.6819ZM13.7255 11.2971H13.7287L8.9487 1.70749L8.9479 1.71629C8.7693 1.3475 8.49024 1.03661 8.1428 0.81937C7.79536 0.602134 7.39366 0.487373 6.9839 0.488287H2.5783C1.3759 0.487487 0.399902 1.45389 0.399902 2.64589V30.2003H13.9727V12.3787C13.9715 12.0043 13.8871 11.6348 13.7255 11.2971Z" fill="#636363"/>
</svg>
