<svg width="25" height="28" viewBox="0 0 25 28" fill="none" xmlns="http://www.w3.org/2000/svg">
<path d="M12.5437 0C9.77618 0 7.12206 1.09938 5.16515 3.05628C3.20825 5.01318 2.10888 7.66731 2.10888 10.4348V16.6713L0.879312 17.9009C0.636165 18.1441 0.470589 18.4539 0.403515 18.7913C0.336441 19.1286 0.370881 19.4782 0.502481 19.7959C0.634081 20.1137 0.856932 20.3852 1.14286 20.5764C1.42879 20.7675 1.76496 20.8695 2.10888 20.8696H22.9784C23.3224 20.8695 23.6585 20.7675 23.9445 20.5764C24.2304 20.3852 24.4532 20.1137 24.5848 19.7959C24.7164 19.4782 24.7509 19.1286 24.6838 18.7913C24.6167 18.4539 24.4512 18.1441 24.208 17.9009L22.9784 16.6713V10.4348C22.9784 7.66731 21.8791 5.01318 19.9222 3.05628C17.9653 1.09938 15.3111 0 12.5437 0ZM12.5437 27.8261C11.1599 27.8261 9.83286 27.2764 8.85441 26.298C7.87596 25.3195 7.32627 23.9924 7.32627 22.6087H17.7611C17.7611 23.9924 17.2114 25.3195 16.2329 26.298C15.2545 27.2764 13.9274 27.8261 12.5437 27.8261Z" fill="#636363"/>
</svg>
