<svg width="393" height="66" viewBox="0 0 393 66" fill="none" xmlns="http://www.w3.org/2000/svg">
<rect x="0.986328" y="0.25" width="391.5" height="65.5" rx="9.75" fill="white"/>
<path d="M61.7363 33C61.7363 45.1503 51.8866 55 39.7363 55C27.5861 55 17.7363 45.1503 17.7363 33C17.7363 20.8497 27.5861 11 39.7363 11C51.8866 11 61.7363 20.8497 61.7363 33Z" fill="#F9FAFB"/>
<path d="M57.6113 33.105C57.6113 43.1042 49.5057 51.21 39.5071 51.21C29.5084 51.21 21.4029 43.1042 21.4029 33.105C21.4029 23.1059 29.5084 15 39.5071 15C49.5057 15 57.6113 23.1059 57.6113 33.105Z" fill="#F2F4F7"/>
<path d="M39.6838 31.9754C39.6635 31.9469 39.6376 31.9239 39.608 31.9081C39.5783 31.8923 39.5458 31.884 39.5129 31.884C39.48 31.884 39.4475 31.8923 39.4179 31.9081C39.3883 31.9239 39.3623 31.9469 39.342 31.9754L36.3041 36.1931C36.279 36.2282 36.2635 36.2704 36.2592 36.3147C36.255 36.359 36.2622 36.4038 36.28 36.4438C36.2978 36.4839 36.3255 36.5176 36.36 36.5412C36.3945 36.5648 36.4343 36.5772 36.4749 36.5771C37.582 36.5771 38.4795 37.4746 38.4795 38.5816V43.7922C38.4795 43.9232 38.5771 44.0303 38.6965 44.0303H40.3239C40.4433 44.0303 40.5409 43.9232 40.5409 43.7922V38.59C40.5409 37.48 41.4408 36.5801 42.5509 36.5801C42.7326 36.5801 42.833 36.3509 42.7218 36.1961L39.6838 31.9754Z" fill="#5C6879"/>
<path d="M51.6646 35.9061C51.6646 31.1851 47.0779 26.6018 42.7618 24.6887C41.7597 24.2445 40.6648 24 39.5181 24C38.3757 24 37.2847 24.2424 36.2857 24.6831C31.961 26.5905 27.3608 31.1795 27.3608 35.9061C27.3608 39.1952 29.7885 41.8592 32.7831 41.8592H33.8708C33.9901 41.8592 34.0878 41.752 34.0878 41.6211V39.8351C34.0878 39.7042 33.9901 39.597 33.8708 39.597H32.7831C31.869 39.597 31.0091 39.1982 30.369 38.4749C29.7315 37.7546 29.3925 36.7842 29.4223 35.7781C29.4467 34.9923 29.6909 34.2542 30.133 33.6321C30.586 32.9981 31.2207 32.5367 31.9259 32.3313C32.5704 32.1466 33.0845 31.6595 33.3037 31.026L33.331 30.9472C33.5643 30.2686 33.8898 29.6346 34.2993 29.0601C34.7037 28.4907 35.1827 27.9902 35.7207 27.5748C36.8355 26.7146 38.1483 26.2592 39.5181 26.2592C40.8879 26.2592 42.2008 26.7146 43.3156 27.5748C43.8554 27.9915 44.3328 28.4916 44.7369 29.0601C45.1465 29.6346 45.472 30.2716 45.7053 30.9472L45.7318 31.0242C45.9499 31.6572 46.462 32.1447 47.1049 32.3313C48.5751 32.7659 49.6031 34.2333 49.6031 35.9061C49.6031 36.8914 49.2532 37.82 48.6185 38.5165C48.3072 38.8601 47.9369 39.1325 47.529 39.318C47.1212 39.5035 46.6838 39.5983 46.2423 39.597H45.1546C45.0353 39.597 44.9376 39.7042 44.9376 39.8351V41.6211C44.9376 41.752 45.0353 41.8592 45.1546 41.8592H46.2423C49.2369 41.8592 51.6646 39.1952 51.6646 35.9061Z" fill="#5C6879"/>
<path d="M97.5303 26.7256H99.4102C99.36 27.391 99.1755 27.9811 98.8564 28.4961C98.5374 29.0065 98.0931 29.4076 97.5234 29.6992C96.9538 29.9909 96.2633 30.1367 95.4521 30.1367C94.8278 30.1367 94.265 30.0273 93.7637 29.8086C93.2669 29.5853 92.8408 29.2686 92.4854 28.8584C92.1344 28.4437 91.8656 27.9469 91.6787 27.3682C91.4919 26.7848 91.3984 26.1309 91.3984 25.4062V24.6475C91.3984 23.9229 91.4941 23.2689 91.6855 22.6855C91.877 22.1022 92.1504 21.6055 92.5059 21.1953C92.8659 20.7806 93.2965 20.4616 93.7979 20.2383C94.3037 20.015 94.8688 19.9033 95.4932 19.9033C96.3044 19.9033 96.9902 20.0537 97.5508 20.3545C98.1113 20.6507 98.5465 21.0586 98.8564 21.5781C99.1663 22.0977 99.3532 22.6947 99.417 23.3691H97.5371C97.5007 22.9499 97.4095 22.5944 97.2637 22.3027C97.1224 22.0111 96.9082 21.79 96.6211 21.6396C96.3385 21.4847 95.9626 21.4072 95.4932 21.4072C95.1286 21.4072 94.8073 21.4756 94.5293 21.6123C94.2559 21.749 94.028 21.9541 93.8457 22.2275C93.6634 22.4964 93.5267 22.8337 93.4355 23.2393C93.3444 23.6403 93.2988 24.1051 93.2988 24.6338V25.4062C93.2988 25.9121 93.3398 26.3656 93.4219 26.7666C93.5039 27.1676 93.6315 27.5072 93.8047 27.7852C93.9779 28.0632 94.2012 28.2751 94.4746 28.4209C94.748 28.5667 95.0739 28.6396 95.4521 28.6396C95.9124 28.6396 96.2861 28.5667 96.5732 28.4209C96.8649 28.2751 97.0859 28.0609 97.2363 27.7783C97.3913 27.4958 97.4893 27.1449 97.5303 26.7256ZM102.644 19.5V30H100.832V19.5H102.644ZM106.28 22.6035V30H104.469V22.6035H106.28ZM104.346 20.6689C104.346 20.4001 104.437 20.1768 104.619 19.999C104.806 19.8213 105.057 19.7324 105.371 19.7324C105.686 19.7324 105.934 19.8213 106.116 19.999C106.303 20.1768 106.396 20.4001 106.396 20.6689C106.396 20.9333 106.303 21.1543 106.116 21.332C105.934 21.5098 105.686 21.5986 105.371 21.5986C105.057 21.5986 104.806 21.5098 104.619 21.332C104.437 21.1543 104.346 20.9333 104.346 20.6689ZM111.038 28.7148C111.293 28.7148 111.521 28.6647 111.722 28.5645C111.922 28.4642 112.082 28.3229 112.2 28.1406C112.323 27.9583 112.389 27.7464 112.398 27.5049H114.101C114.091 28.0062 113.95 28.4551 113.677 28.8516C113.403 29.248 113.039 29.5625 112.583 29.7949C112.132 30.0228 111.626 30.1367 111.065 30.1367C110.496 30.1367 109.999 30.041 109.575 29.8496C109.151 29.6582 108.798 29.3916 108.516 29.0498C108.238 28.708 108.028 28.3115 107.887 27.8604C107.75 27.4092 107.682 26.9261 107.682 26.4111V26.1924C107.682 25.6774 107.75 25.1943 107.887 24.7432C108.028 24.292 108.238 23.8955 108.516 23.5537C108.798 23.2119 109.151 22.9453 109.575 22.7539C109.999 22.5625 110.493 22.4668 111.059 22.4668C111.656 22.4668 112.18 22.583 112.631 22.8154C113.087 23.0479 113.442 23.376 113.697 23.7998C113.957 24.2236 114.091 24.7227 114.101 25.2969H112.398C112.389 25.0326 112.33 24.7956 112.221 24.5859C112.111 24.3763 111.956 24.2077 111.756 24.0801C111.555 23.9525 111.312 23.8887 111.024 23.8887C110.719 23.8887 110.464 23.9525 110.259 24.0801C110.058 24.2077 109.901 24.3831 109.787 24.6064C109.678 24.8252 109.6 25.0713 109.555 25.3447C109.514 25.6136 109.493 25.8962 109.493 26.1924V26.4111C109.493 26.7119 109.514 26.999 109.555 27.2725C109.6 27.5459 109.678 27.792 109.787 28.0107C109.901 28.2249 110.058 28.3958 110.259 28.5234C110.464 28.651 110.724 28.7148 111.038 28.7148ZM117.108 19.4932V30H115.304V19.4932H117.108ZM121.743 22.6035L118.523 26.2197L116.78 27.9902L116.206 26.5889L117.553 24.8936L119.562 22.6035H121.743ZM119.897 30L117.607 26.5547L118.811 25.3857L121.989 30H119.897ZM129.687 22.6035V23.9023H125.448V22.6035H129.687ZM126.583 20.7852H128.395V27.8672C128.395 28.0859 128.424 28.2546 128.483 28.373C128.543 28.4915 128.632 28.5713 128.75 28.6123C128.868 28.6533 129.01 28.6738 129.174 28.6738C129.292 28.6738 129.402 28.667 129.502 28.6533C129.602 28.6396 129.687 28.626 129.755 28.6123L129.762 29.9658C129.611 30.016 129.44 30.057 129.249 30.0889C129.062 30.1208 128.85 30.1367 128.613 30.1367C128.208 30.1367 127.852 30.0684 127.547 29.9316C127.242 29.7904 127.005 29.5648 126.836 29.2549C126.667 28.9404 126.583 28.5257 126.583 28.0107V20.7852ZM130.391 26.377V26.2334C130.391 25.6911 130.468 25.1921 130.623 24.7363C130.778 24.276 131.004 23.8773 131.3 23.54C131.596 23.2028 131.958 22.9408 132.387 22.7539C132.815 22.5625 133.303 22.4668 133.85 22.4668C134.406 22.4668 134.898 22.5625 135.326 22.7539C135.759 22.9408 136.124 23.2028 136.42 23.54C136.716 23.8773 136.942 24.276 137.097 24.7363C137.252 25.1921 137.329 25.6911 137.329 26.2334V26.377C137.329 26.9147 137.252 27.4137 137.097 27.874C136.942 28.3298 136.716 28.7285 136.42 29.0703C136.124 29.4076 135.761 29.6696 135.333 29.8564C134.905 30.0433 134.415 30.1367 133.863 30.1367C133.316 30.1367 132.826 30.0433 132.394 29.8564C131.961 29.6696 131.596 29.4076 131.3 29.0703C131.004 28.7285 130.778 28.3298 130.623 27.874C130.468 27.4137 130.391 26.9147 130.391 26.377ZM132.195 26.2334V26.377C132.195 26.7005 132.227 27.0036 132.291 27.2861C132.355 27.5687 132.453 27.8171 132.585 28.0312C132.717 28.2454 132.888 28.4141 133.098 28.5371C133.312 28.6556 133.567 28.7148 133.863 28.7148C134.155 28.7148 134.406 28.6556 134.615 28.5371C134.825 28.4141 134.996 28.2454 135.128 28.0312C135.265 27.8171 135.365 27.5687 135.429 27.2861C135.493 27.0036 135.524 26.7005 135.524 26.377V26.2334C135.524 25.9144 135.493 25.6159 135.429 25.3379C135.365 25.0553 135.265 24.807 135.128 24.5928C134.996 24.374 134.823 24.2031 134.608 24.0801C134.399 23.9525 134.146 23.8887 133.85 23.8887C133.558 23.8887 133.307 23.9525 133.098 24.0801C132.888 24.2031 132.717 24.374 132.585 24.5928C132.453 24.807 132.355 25.0553 132.291 25.3379C132.227 25.6159 132.195 25.9144 132.195 26.2334ZM146.53 28.2432V22.6035H148.349V30H146.64L146.53 28.2432ZM146.763 26.7119L147.323 26.6982C147.323 27.195 147.269 27.653 147.159 28.0723C147.05 28.4915 146.879 28.8561 146.646 29.166C146.419 29.4714 146.129 29.7106 145.778 29.8838C145.427 30.0524 145.013 30.1367 144.534 30.1367C144.17 30.1367 143.837 30.0866 143.536 29.9863C143.235 29.8815 142.976 29.7197 142.757 29.501C142.543 29.2777 142.376 28.9928 142.258 28.6465C142.139 28.2956 142.08 27.874 142.08 27.3818V22.6035H143.885V27.3955C143.885 27.6416 143.912 27.8467 143.967 28.0107C144.026 28.1748 144.106 28.3092 144.206 28.4141C144.311 28.5143 144.432 28.5872 144.568 28.6328C144.71 28.6738 144.86 28.6943 145.02 28.6943C145.457 28.6943 145.801 28.6077 146.052 28.4346C146.307 28.2568 146.489 28.0199 146.599 27.7236C146.708 27.4229 146.763 27.0856 146.763 26.7119ZM151.753 24.0254V32.8438H149.941V22.6035H151.616L151.753 24.0254ZM156.504 26.2266V26.3701C156.504 26.9079 156.44 27.4069 156.312 27.8672C156.189 28.3229 156.007 28.7217 155.766 29.0635C155.524 29.4007 155.223 29.665 154.863 29.8564C154.508 30.0433 154.098 30.1367 153.633 30.1367C153.177 30.1367 152.781 30.0501 152.443 29.877C152.106 29.6992 151.821 29.4486 151.589 29.125C151.356 28.8014 151.17 28.4255 151.028 27.9971C150.892 27.5641 150.789 27.0924 150.721 26.582V26.124C150.789 25.5817 150.892 25.0895 151.028 24.6475C151.17 24.2008 151.356 23.8158 151.589 23.4922C151.821 23.1641 152.104 22.9111 152.437 22.7334C152.774 22.5557 153.168 22.4668 153.619 22.4668C154.089 22.4668 154.501 22.5557 154.856 22.7334C155.216 22.9111 155.52 23.1663 155.766 23.499C156.012 23.8317 156.196 24.2282 156.319 24.6885C156.442 25.1488 156.504 25.6615 156.504 26.2266ZM154.692 26.3701V26.2266C154.692 25.8984 154.663 25.5954 154.604 25.3174C154.544 25.0348 154.453 24.7887 154.33 24.5791C154.207 24.3649 154.048 24.1986 153.852 24.0801C153.656 23.9616 153.419 23.9023 153.141 23.9023C152.863 23.9023 152.623 23.9479 152.423 24.0391C152.222 24.1302 152.058 24.2601 151.931 24.4287C151.803 24.5973 151.703 24.7979 151.63 25.0303C151.562 25.2581 151.516 25.5111 151.493 25.7891V26.9238C151.534 27.2611 151.614 27.5641 151.732 27.833C151.851 28.1019 152.024 28.3161 152.252 28.4756C152.484 28.6351 152.785 28.7148 153.154 28.7148C153.432 28.7148 153.669 28.6533 153.865 28.5303C154.061 28.4072 154.221 28.2386 154.344 28.0244C154.467 27.8057 154.556 27.555 154.61 27.2725C154.665 26.9899 154.692 26.6891 154.692 26.3701ZM159.737 19.5V30H157.926V19.5H159.737ZM161.139 26.377V26.2334C161.139 25.6911 161.216 25.1921 161.371 24.7363C161.526 24.276 161.752 23.8773 162.048 23.54C162.344 23.2028 162.706 22.9408 163.135 22.7539C163.563 22.5625 164.051 22.4668 164.598 22.4668C165.154 22.4668 165.646 22.5625 166.074 22.7539C166.507 22.9408 166.872 23.2028 167.168 23.54C167.464 23.8773 167.69 24.276 167.845 24.7363C168 25.1921 168.077 25.6911 168.077 26.2334V26.377C168.077 26.9147 168 27.4137 167.845 27.874C167.69 28.3298 167.464 28.7285 167.168 29.0703C166.872 29.4076 166.509 29.6696 166.081 29.8564C165.653 30.0433 165.163 30.1367 164.611 30.1367C164.064 30.1367 163.575 30.0433 163.142 29.8564C162.709 29.6696 162.344 29.4076 162.048 29.0703C161.752 28.7285 161.526 28.3298 161.371 27.874C161.216 27.4137 161.139 26.9147 161.139 26.377ZM162.943 26.2334V26.377C162.943 26.7005 162.975 27.0036 163.039 27.2861C163.103 27.5687 163.201 27.8171 163.333 28.0312C163.465 28.2454 163.636 28.4141 163.846 28.5371C164.06 28.6556 164.315 28.7148 164.611 28.7148C164.903 28.7148 165.154 28.6556 165.363 28.5371C165.573 28.4141 165.744 28.2454 165.876 28.0312C166.013 27.8171 166.113 27.5687 166.177 27.2861C166.241 27.0036 166.272 26.7005 166.272 26.377V26.2334C166.272 25.9144 166.241 25.6159 166.177 25.3379C166.113 25.0553 166.013 24.807 165.876 24.5928C165.744 24.374 165.571 24.2031 165.356 24.0801C165.147 23.9525 164.894 23.8887 164.598 23.8887C164.306 23.8887 164.055 23.9525 163.846 24.0801C163.636 24.2031 163.465 24.374 163.333 24.5928C163.201 24.807 163.103 25.0553 163.039 25.3379C162.975 25.6159 162.943 25.9144 162.943 26.2334ZM173.464 28.4277V25.0166C173.464 24.766 173.421 24.5495 173.334 24.3672C173.247 24.1849 173.115 24.0436 172.938 23.9434C172.76 23.8431 172.534 23.793 172.261 23.793C172.019 23.793 171.807 23.834 171.625 23.916C171.447 23.998 171.311 24.1143 171.215 24.2646C171.119 24.4105 171.071 24.5791 171.071 24.7705H169.26C169.26 24.4652 169.333 24.1758 169.479 23.9023C169.624 23.6243 169.832 23.3783 170.101 23.1641C170.374 22.9453 170.7 22.7744 171.078 22.6514C171.461 22.5283 171.889 22.4668 172.363 22.4668C172.924 22.4668 173.423 22.5625 173.86 22.7539C174.302 22.9408 174.649 23.2233 174.899 23.6016C175.155 23.9798 175.282 24.4561 175.282 25.0303V28.2568C175.282 28.626 175.305 28.9427 175.351 29.207C175.401 29.4668 175.474 29.6924 175.569 29.8838V30H173.73C173.644 29.8132 173.578 29.5762 173.532 29.2891C173.487 28.9974 173.464 28.7103 173.464 28.4277ZM173.717 25.4951L173.73 26.5684H172.589C172.306 26.5684 172.058 26.598 171.844 26.6572C171.63 26.7119 171.454 26.7939 171.317 26.9033C171.181 27.0081 171.078 27.1357 171.01 27.2861C170.941 27.432 170.907 27.5983 170.907 27.7852C170.907 27.9674 170.948 28.1315 171.03 28.2773C171.117 28.4232 171.24 28.5394 171.399 28.626C171.563 28.708 171.755 28.749 171.974 28.749C172.293 28.749 172.571 28.6852 172.808 28.5576C173.045 28.4255 173.229 28.266 173.361 28.0791C173.493 27.8923 173.564 27.7145 173.573 27.5459L174.093 28.3252C174.029 28.512 173.933 28.7103 173.806 28.9199C173.678 29.1296 173.514 29.3255 173.313 29.5078C173.113 29.6901 172.871 29.8405 172.589 29.959C172.306 30.0775 171.978 30.1367 171.604 30.1367C171.126 30.1367 170.698 30.041 170.319 29.8496C169.941 29.6582 169.643 29.3962 169.424 29.0635C169.205 28.7308 169.096 28.3525 169.096 27.9287C169.096 27.5368 169.169 27.1904 169.314 26.8896C169.46 26.5889 169.677 26.3359 169.964 26.1309C170.251 25.9212 170.606 25.764 171.03 25.6592C171.459 25.5498 171.949 25.4951 172.5 25.4951H173.717ZM181.346 28.4277V19.5H183.164V30H181.523L181.346 28.4277ZM176.595 26.3906V26.2471C176.595 25.682 176.659 25.1693 176.786 24.709C176.918 24.2441 177.11 23.8454 177.36 23.5127C177.611 23.18 177.914 22.9225 178.27 22.7402C178.63 22.5579 179.037 22.4668 179.493 22.4668C179.935 22.4668 180.32 22.5557 180.648 22.7334C180.981 22.9111 181.264 23.1641 181.496 23.4922C181.733 23.8203 181.922 24.21 182.063 24.6611C182.205 25.1077 182.307 25.5999 182.371 26.1377V26.5273C182.307 27.0514 182.205 27.5322 182.063 27.9697C181.922 28.4072 181.733 28.79 181.496 29.1182C181.264 29.4417 180.981 29.6924 180.648 29.8701C180.316 30.0479 179.926 30.1367 179.479 30.1367C179.028 30.1367 178.623 30.0433 178.263 29.8564C177.907 29.6696 177.604 29.4076 177.354 29.0703C177.107 28.7331 176.918 28.3366 176.786 27.8809C176.659 27.4251 176.595 26.9284 176.595 26.3906ZM178.406 26.2471V26.3906C178.406 26.7096 178.434 27.0081 178.488 27.2861C178.543 27.5641 178.632 27.8102 178.755 28.0244C178.878 28.234 179.035 28.3981 179.227 28.5166C179.423 28.6351 179.66 28.6943 179.938 28.6943C180.293 28.6943 180.585 28.6169 180.812 28.4619C181.045 28.3024 181.225 28.0859 181.353 27.8125C181.48 27.5345 181.562 27.2223 181.599 26.876V25.8027C181.58 25.5293 181.533 25.2764 181.455 25.0439C181.382 24.8115 181.277 24.611 181.141 24.4424C181.008 24.2738 180.844 24.1416 180.648 24.0459C180.452 23.9502 180.22 23.9023 179.951 23.9023C179.673 23.9023 179.436 23.9639 179.24 24.0869C179.044 24.2054 178.885 24.3717 178.762 24.5859C178.639 24.8001 178.548 25.0485 178.488 25.3311C178.434 25.6136 178.406 25.9189 178.406 26.2471Z" fill="#CF2A2A"/>
<path d="M188.1 26.3838V26.2266C188.1 25.6934 188.177 25.1989 188.332 24.7432C188.487 24.2829 188.71 23.8841 189.002 23.5469C189.294 23.2051 189.647 22.9408 190.062 22.7539C190.476 22.5625 190.941 22.4668 191.456 22.4668C191.976 22.4668 192.443 22.5625 192.857 22.7539C193.277 22.9408 193.632 23.2051 193.924 23.5469C194.22 23.8841 194.446 24.2829 194.601 24.7432C194.756 25.1989 194.833 25.6934 194.833 26.2266V26.3838C194.833 26.917 194.756 27.4115 194.601 27.8672C194.446 28.3229 194.22 28.7217 193.924 29.0635C193.632 29.4007 193.279 29.665 192.864 29.8564C192.454 30.0433 191.989 30.1367 191.47 30.1367C190.95 30.1367 190.483 30.0433 190.068 29.8564C189.654 29.665 189.298 29.4007 189.002 29.0635C188.71 28.7217 188.487 28.3229 188.332 27.8672C188.177 27.4115 188.1 26.917 188.1 26.3838ZM189.364 26.2266V26.3838C189.364 26.7529 189.408 27.1016 189.494 27.4297C189.581 27.7533 189.711 28.0404 189.884 28.291C190.062 28.5417 190.283 28.7399 190.547 28.8857C190.811 29.027 191.119 29.0977 191.47 29.0977C191.816 29.0977 192.119 29.027 192.379 28.8857C192.643 28.7399 192.862 28.5417 193.035 28.291C193.208 28.0404 193.338 27.7533 193.425 27.4297C193.516 27.1016 193.562 26.7529 193.562 26.3838V26.2266C193.562 25.862 193.516 25.5179 193.425 25.1943C193.338 24.8662 193.206 24.5768 193.028 24.3262C192.855 24.071 192.636 23.8704 192.372 23.7246C192.112 23.5788 191.807 23.5059 191.456 23.5059C191.11 23.5059 190.804 23.5788 190.54 23.7246C190.28 23.8704 190.062 24.071 189.884 24.3262C189.711 24.5768 189.581 24.8662 189.494 25.1943C189.408 25.5179 189.364 25.862 189.364 26.2266ZM197.684 23.7656V30H196.419V22.6035H197.649L197.684 23.7656ZM199.994 22.5625L199.987 23.7383C199.882 23.7155 199.782 23.7018 199.687 23.6973C199.595 23.6882 199.491 23.6836 199.372 23.6836C199.08 23.6836 198.823 23.7292 198.6 23.8203C198.376 23.9115 198.187 24.0391 198.032 24.2031C197.877 24.3672 197.754 24.5632 197.663 24.791C197.576 25.0143 197.52 25.2604 197.492 25.5293L197.137 25.7344C197.137 25.2878 197.18 24.8685 197.267 24.4766C197.358 24.0846 197.497 23.7383 197.684 23.4375C197.87 23.1322 198.107 22.8952 198.395 22.7266C198.686 22.5534 199.033 22.4668 199.434 22.4668C199.525 22.4668 199.63 22.4782 199.748 22.501C199.867 22.5192 199.949 22.5397 199.994 22.5625ZM209.298 28.5645V19.5H210.569V30H209.407L209.298 28.5645ZM204.321 26.3838V26.2402C204.321 25.6751 204.39 25.1624 204.526 24.7021C204.668 24.2373 204.866 23.8385 205.121 23.5059C205.381 23.1732 205.688 22.918 206.044 22.7402C206.404 22.5579 206.805 22.4668 207.247 22.4668C207.712 22.4668 208.118 22.5488 208.464 22.7129C208.815 22.8724 209.111 23.1071 209.353 23.417C209.599 23.7223 209.792 24.0915 209.934 24.5244C210.075 24.9574 210.173 25.4473 210.228 25.9941V26.623C210.177 27.1654 210.079 27.653 209.934 28.0859C209.792 28.5189 209.599 28.888 209.353 29.1934C209.111 29.4987 208.815 29.7334 208.464 29.8975C208.113 30.057 207.703 30.1367 207.233 30.1367C206.8 30.1367 206.404 30.0433 206.044 29.8564C205.688 29.6696 205.381 29.4076 205.121 29.0703C204.866 28.7331 204.668 28.3366 204.526 27.8809C204.39 27.4206 204.321 26.9215 204.321 26.3838ZM205.593 26.2402V26.3838C205.593 26.7529 205.629 27.0993 205.702 27.4229C205.78 27.7464 205.898 28.0312 206.058 28.2773C206.217 28.5234 206.42 28.7171 206.666 28.8584C206.912 28.9951 207.206 29.0635 207.548 29.0635C207.967 29.0635 208.311 28.9746 208.58 28.7969C208.854 28.6191 209.072 28.3844 209.236 28.0928C209.4 27.8011 209.528 27.4844 209.619 27.1426V25.4951C209.564 25.2445 209.485 25.0029 209.38 24.7705C209.28 24.5335 209.147 24.3239 208.983 24.1416C208.824 23.9548 208.626 23.8066 208.389 23.6973C208.156 23.5879 207.881 23.5332 207.562 23.5332C207.215 23.5332 206.917 23.6061 206.666 23.752C206.42 23.8932 206.217 24.0892 206.058 24.3398C205.898 24.5859 205.78 24.873 205.702 25.2012C205.629 25.5247 205.593 25.8711 205.593 26.2402ZM213.803 23.7656V30H212.538V22.6035H213.769L213.803 23.7656ZM216.113 22.5625L216.106 23.7383C216.002 23.7155 215.901 23.7018 215.806 23.6973C215.715 23.6882 215.61 23.6836 215.491 23.6836C215.2 23.6836 214.942 23.7292 214.719 23.8203C214.495 23.9115 214.306 24.0391 214.151 24.2031C213.996 24.3672 213.873 24.5632 213.782 24.791C213.696 25.0143 213.639 25.2604 213.611 25.5293L213.256 25.7344C213.256 25.2878 213.299 24.8685 213.386 24.4766C213.477 24.0846 213.616 23.7383 213.803 23.4375C213.99 23.1322 214.227 22.8952 214.514 22.7266C214.805 22.5534 215.152 22.4668 215.553 22.4668C215.644 22.4668 215.749 22.4782 215.867 22.501C215.986 22.5192 216.068 22.5397 216.113 22.5625ZM221.37 28.7354V24.9277C221.37 24.6361 221.311 24.3831 221.192 24.1689C221.078 23.9502 220.905 23.7816 220.673 23.6631C220.44 23.5446 220.153 23.4854 219.812 23.4854C219.493 23.4854 219.212 23.54 218.971 23.6494C218.734 23.7588 218.547 23.9023 218.41 24.0801C218.278 24.2578 218.212 24.4492 218.212 24.6543H216.947C216.947 24.39 217.016 24.1279 217.152 23.8682C217.289 23.6084 217.485 23.3737 217.74 23.1641C218 22.9499 218.31 22.7812 218.67 22.6582C219.035 22.5306 219.44 22.4668 219.887 22.4668C220.424 22.4668 220.898 22.5579 221.309 22.7402C221.723 22.9225 222.047 23.1982 222.279 23.5674C222.516 23.932 222.635 24.39 222.635 24.9414V28.3867C222.635 28.6328 222.655 28.8949 222.696 29.1729C222.742 29.4508 222.808 29.6901 222.895 29.8906V30H221.575C221.511 29.8542 221.461 29.6605 221.425 29.4189C221.388 29.1729 221.37 28.945 221.37 28.7354ZM221.589 25.5156L221.603 26.4043H220.324C219.964 26.4043 219.643 26.4339 219.36 26.4932C219.078 26.5479 218.841 26.6322 218.649 26.7461C218.458 26.86 218.312 27.0036 218.212 27.1768C218.112 27.3454 218.062 27.5436 218.062 27.7715C218.062 28.0039 218.114 28.2158 218.219 28.4072C218.324 28.5986 218.481 28.7513 218.69 28.8652C218.905 28.9746 219.167 29.0293 219.477 29.0293C219.864 29.0293 220.206 28.9473 220.502 28.7832C220.798 28.6191 221.033 28.4186 221.206 28.1816C221.384 27.9447 221.479 27.7145 221.493 27.4912L222.033 28.0996C222.001 28.291 221.915 28.5029 221.773 28.7354C221.632 28.9678 221.443 29.1911 221.206 29.4053C220.974 29.6149 220.696 29.7904 220.372 29.9316C220.053 30.0684 219.693 30.1367 219.292 30.1367C218.791 30.1367 218.351 30.0387 217.973 29.8428C217.599 29.6468 217.307 29.3848 217.098 29.0566C216.893 28.724 216.79 28.3525 216.79 27.9424C216.79 27.5459 216.868 27.1973 217.022 26.8965C217.177 26.5911 217.401 26.3382 217.692 26.1377C217.984 25.9326 218.335 25.7777 218.745 25.6729C219.155 25.568 219.613 25.5156 220.119 25.5156H221.589ZM229.416 22.6035H230.564V29.8428C230.564 30.4945 230.432 31.0505 230.168 31.5107C229.904 31.971 229.535 32.3197 229.061 32.5566C228.591 32.7982 228.049 32.9189 227.434 32.9189C227.178 32.9189 226.878 32.8779 226.531 32.7959C226.189 32.7184 225.852 32.584 225.52 32.3926C225.191 32.2057 224.916 31.9528 224.692 31.6338L225.355 30.8818C225.665 31.2555 225.989 31.5153 226.326 31.6611C226.668 31.807 227.005 31.8799 227.338 31.8799C227.739 31.8799 228.085 31.8047 228.377 31.6543C228.669 31.5039 228.894 31.2806 229.054 30.9844C229.218 30.6927 229.3 30.3327 229.3 29.9043V24.2305L229.416 22.6035ZM224.323 26.3838V26.2402C224.323 25.6751 224.389 25.1624 224.521 24.7021C224.658 24.2373 224.852 23.8385 225.103 23.5059C225.358 23.1732 225.665 22.918 226.025 22.7402C226.385 22.5579 226.791 22.4668 227.242 22.4668C227.707 22.4668 228.113 22.5488 228.459 22.7129C228.81 22.8724 229.106 23.1071 229.348 23.417C229.594 23.7223 229.787 24.0915 229.929 24.5244C230.07 24.9574 230.168 25.4473 230.223 25.9941V26.623C230.173 27.1654 230.075 27.653 229.929 28.0859C229.787 28.5189 229.594 28.888 229.348 29.1934C229.106 29.4987 228.81 29.7334 228.459 29.8975C228.108 30.057 227.698 30.1367 227.229 30.1367C226.786 30.1367 226.385 30.0433 226.025 29.8564C225.67 29.6696 225.365 29.4076 225.109 29.0703C224.854 28.7331 224.658 28.3366 224.521 27.8809C224.389 27.4206 224.323 26.9215 224.323 26.3838ZM225.588 26.2402V26.3838C225.588 26.7529 225.624 27.0993 225.697 27.4229C225.775 27.7464 225.891 28.0312 226.046 28.2773C226.205 28.5234 226.408 28.7171 226.654 28.8584C226.9 28.9951 227.194 29.0635 227.536 29.0635C227.955 29.0635 228.302 28.9746 228.575 28.7969C228.849 28.6191 229.065 28.3844 229.225 28.0928C229.389 27.8011 229.516 27.4844 229.607 27.1426V25.4951C229.557 25.2445 229.48 25.0029 229.375 24.7705C229.275 24.5335 229.143 24.3239 228.979 24.1416C228.819 23.9548 228.621 23.8066 228.384 23.6973C228.147 23.5879 227.869 23.5332 227.55 23.5332C227.203 23.5332 226.905 23.6061 226.654 23.752C226.408 23.8932 226.205 24.0892 226.046 24.3398C225.891 24.5859 225.775 24.873 225.697 25.2012C225.624 25.5247 225.588 25.8711 225.588 26.2402ZM240.319 28.7354V24.9277C240.319 24.6361 240.26 24.3831 240.142 24.1689C240.028 23.9502 239.854 23.7816 239.622 23.6631C239.39 23.5446 239.103 23.4854 238.761 23.4854C238.442 23.4854 238.161 23.54 237.92 23.6494C237.683 23.7588 237.496 23.9023 237.359 24.0801C237.227 24.2578 237.161 24.4492 237.161 24.6543H235.896C235.896 24.39 235.965 24.1279 236.102 23.8682C236.238 23.6084 236.434 23.3737 236.689 23.1641C236.949 22.9499 237.259 22.7812 237.619 22.6582C237.984 22.5306 238.389 22.4668 238.836 22.4668C239.374 22.4668 239.848 22.5579 240.258 22.7402C240.673 22.9225 240.996 23.1982 241.229 23.5674C241.465 23.932 241.584 24.39 241.584 24.9414V28.3867C241.584 28.6328 241.604 28.8949 241.646 29.1729C241.691 29.4508 241.757 29.6901 241.844 29.8906V30H240.524C240.461 29.8542 240.41 29.6605 240.374 29.4189C240.338 29.1729 240.319 28.945 240.319 28.7354ZM240.538 25.5156L240.552 26.4043H239.273C238.913 26.4043 238.592 26.4339 238.31 26.4932C238.027 26.5479 237.79 26.6322 237.599 26.7461C237.407 26.86 237.261 27.0036 237.161 27.1768C237.061 27.3454 237.011 27.5436 237.011 27.7715C237.011 28.0039 237.063 28.2158 237.168 28.4072C237.273 28.5986 237.43 28.7513 237.64 28.8652C237.854 28.9746 238.116 29.0293 238.426 29.0293C238.813 29.0293 239.155 28.9473 239.451 28.7832C239.747 28.6191 239.982 28.4186 240.155 28.1816C240.333 27.9447 240.429 27.7145 240.442 27.4912L240.982 28.0996C240.951 28.291 240.864 28.5029 240.723 28.7354C240.581 28.9678 240.392 29.1911 240.155 29.4053C239.923 29.6149 239.645 29.7904 239.321 29.9316C239.002 30.0684 238.642 30.1367 238.241 30.1367C237.74 30.1367 237.3 30.0387 236.922 29.8428C236.548 29.6468 236.257 29.3848 236.047 29.0566C235.842 28.724 235.739 28.3525 235.739 27.9424C235.739 27.5459 235.817 27.1973 235.972 26.8965C236.127 26.5911 236.35 26.3382 236.642 26.1377C236.933 25.9326 237.284 25.7777 237.694 25.6729C238.104 25.568 238.562 25.5156 239.068 25.5156H240.538ZM244.838 24.1826V30H243.573V22.6035H244.77L244.838 24.1826ZM244.537 26.0215L244.011 26.001C244.015 25.4951 244.09 25.028 244.236 24.5996C244.382 24.1667 244.587 23.7907 244.852 23.4717C245.116 23.1527 245.43 22.9066 245.795 22.7334C246.164 22.5557 246.572 22.4668 247.019 22.4668C247.383 22.4668 247.711 22.5169 248.003 22.6172C248.295 22.7129 248.543 22.8678 248.748 23.082C248.958 23.2962 249.117 23.5742 249.227 23.916C249.336 24.2533 249.391 24.6657 249.391 25.1533V30H248.119V25.1396C248.119 24.7523 248.062 24.4424 247.948 24.21C247.834 23.973 247.668 23.8021 247.449 23.6973C247.23 23.5879 246.962 23.5332 246.643 23.5332C246.328 23.5332 246.041 23.5993 245.781 23.7314C245.526 23.8636 245.305 24.0459 245.118 24.2783C244.936 24.5107 244.792 24.7773 244.688 25.0781C244.587 25.3743 244.537 25.6888 244.537 26.0215ZM255.974 28.5645V19.5H257.245V30H256.083L255.974 28.5645ZM250.997 26.3838V26.2402C250.997 25.6751 251.065 25.1624 251.202 24.7021C251.343 24.2373 251.542 23.8385 251.797 23.5059C252.057 23.1732 252.364 22.918 252.72 22.7402C253.08 22.5579 253.481 22.4668 253.923 22.4668C254.388 22.4668 254.793 22.5488 255.14 22.7129C255.491 22.8724 255.787 23.1071 256.028 23.417C256.274 23.7223 256.468 24.0915 256.609 24.5244C256.751 24.9574 256.849 25.4473 256.903 25.9941V26.623C256.853 27.1654 256.755 27.653 256.609 28.0859C256.468 28.5189 256.274 28.888 256.028 29.1934C255.787 29.4987 255.491 29.7334 255.14 29.8975C254.789 30.057 254.379 30.1367 253.909 30.1367C253.476 30.1367 253.08 30.0433 252.72 29.8564C252.364 29.6696 252.057 29.4076 251.797 29.0703C251.542 28.7331 251.343 28.3366 251.202 27.8809C251.065 27.4206 250.997 26.9215 250.997 26.3838ZM252.269 26.2402V26.3838C252.269 26.7529 252.305 27.0993 252.378 27.4229C252.455 27.7464 252.574 28.0312 252.733 28.2773C252.893 28.5234 253.096 28.7171 253.342 28.8584C253.588 28.9951 253.882 29.0635 254.224 29.0635C254.643 29.0635 254.987 28.9746 255.256 28.7969C255.529 28.6191 255.748 28.3844 255.912 28.0928C256.076 27.8011 256.204 27.4844 256.295 27.1426V25.4951C256.24 25.2445 256.16 25.0029 256.056 24.7705C255.955 24.5335 255.823 24.3239 255.659 24.1416C255.5 23.9548 255.301 23.8066 255.064 23.6973C254.832 23.5879 254.556 23.5332 254.237 23.5332C253.891 23.5332 253.592 23.6061 253.342 23.752C253.096 23.8932 252.893 24.0892 252.733 24.3398C252.574 24.5859 252.455 24.873 252.378 25.2012C252.305 25.5247 252.269 25.8711 252.269 26.2402ZM267.349 28.5645V19.5H268.62V30H267.458L267.349 28.5645ZM262.372 26.3838V26.2402C262.372 25.6751 262.44 25.1624 262.577 24.7021C262.718 24.2373 262.917 23.8385 263.172 23.5059C263.432 23.1732 263.739 22.918 264.095 22.7402C264.455 22.5579 264.856 22.4668 265.298 22.4668C265.763 22.4668 266.168 22.5488 266.515 22.7129C266.866 22.8724 267.162 23.1071 267.403 23.417C267.649 23.7223 267.843 24.0915 267.984 24.5244C268.126 24.9574 268.224 25.4473 268.278 25.9941V26.623C268.228 27.1654 268.13 27.653 267.984 28.0859C267.843 28.5189 267.649 28.888 267.403 29.1934C267.162 29.4987 266.866 29.7334 266.515 29.8975C266.164 30.057 265.754 30.1367 265.284 30.1367C264.851 30.1367 264.455 30.0433 264.095 29.8564C263.739 29.6696 263.432 29.4076 263.172 29.0703C262.917 28.7331 262.718 28.3366 262.577 27.8809C262.44 27.4206 262.372 26.9215 262.372 26.3838ZM263.644 26.2402V26.3838C263.644 26.7529 263.68 27.0993 263.753 27.4229C263.83 27.7464 263.949 28.0312 264.108 28.2773C264.268 28.5234 264.471 28.7171 264.717 28.8584C264.963 28.9951 265.257 29.0635 265.599 29.0635C266.018 29.0635 266.362 28.9746 266.631 28.7969C266.904 28.6191 267.123 28.3844 267.287 28.0928C267.451 27.8011 267.579 27.4844 267.67 27.1426V25.4951C267.615 25.2445 267.535 25.0029 267.431 24.7705C267.33 24.5335 267.198 24.3239 267.034 24.1416C266.875 23.9548 266.676 23.8066 266.439 23.6973C266.207 23.5879 265.931 23.5332 265.612 23.5332C265.266 23.5332 264.967 23.6061 264.717 23.752C264.471 23.8932 264.268 24.0892 264.108 24.3398C263.949 24.5859 263.83 24.873 263.753 25.2012C263.68 25.5247 263.644 25.8711 263.644 26.2402ZM271.854 23.7656V30H270.589V22.6035H271.819L271.854 23.7656ZM274.164 22.5625L274.157 23.7383C274.052 23.7155 273.952 23.7018 273.856 23.6973C273.765 23.6882 273.66 23.6836 273.542 23.6836C273.25 23.6836 272.993 23.7292 272.77 23.8203C272.546 23.9115 272.357 24.0391 272.202 24.2031C272.047 24.3672 271.924 24.5632 271.833 24.791C271.746 25.0143 271.689 25.2604 271.662 25.5293L271.307 25.7344C271.307 25.2878 271.35 24.8685 271.437 24.4766C271.528 24.0846 271.667 23.7383 271.854 23.4375C272.04 23.1322 272.277 22.8952 272.564 22.7266C272.856 22.5534 273.202 22.4668 273.604 22.4668C273.695 22.4668 273.799 22.4782 273.918 22.501C274.036 22.5192 274.118 22.5397 274.164 22.5625ZM274.861 26.3838V26.2266C274.861 25.6934 274.939 25.1989 275.094 24.7432C275.249 24.2829 275.472 23.8841 275.764 23.5469C276.055 23.2051 276.409 22.9408 276.823 22.7539C277.238 22.5625 277.703 22.4668 278.218 22.4668C278.737 22.4668 279.204 22.5625 279.619 22.7539C280.038 22.9408 280.394 23.2051 280.686 23.5469C280.982 23.8841 281.207 24.2829 281.362 24.7432C281.517 25.1989 281.595 25.6934 281.595 26.2266V26.3838C281.595 26.917 281.517 27.4115 281.362 27.8672C281.207 28.3229 280.982 28.7217 280.686 29.0635C280.394 29.4007 280.041 29.665 279.626 29.8564C279.216 30.0433 278.751 30.1367 278.231 30.1367C277.712 30.1367 277.245 30.0433 276.83 29.8564C276.415 29.665 276.06 29.4007 275.764 29.0635C275.472 28.7217 275.249 28.3229 275.094 27.8672C274.939 27.4115 274.861 26.917 274.861 26.3838ZM276.126 26.2266V26.3838C276.126 26.7529 276.169 27.1016 276.256 27.4297C276.342 27.7533 276.472 28.0404 276.646 28.291C276.823 28.5417 277.044 28.7399 277.309 28.8857C277.573 29.027 277.881 29.0977 278.231 29.0977C278.578 29.0977 278.881 29.027 279.141 28.8857C279.405 28.7399 279.624 28.5417 279.797 28.291C279.97 28.0404 280.1 27.7533 280.187 27.4297C280.278 27.1016 280.323 26.7529 280.323 26.3838V26.2266C280.323 25.862 280.278 25.5179 280.187 25.1943C280.1 24.8662 279.968 24.5768 279.79 24.3262C279.617 24.071 279.398 23.8704 279.134 23.7246C278.874 23.5788 278.569 23.5059 278.218 23.5059C277.871 23.5059 277.566 23.5788 277.302 23.7246C277.042 23.8704 276.823 24.071 276.646 24.3262C276.472 24.5768 276.342 24.8662 276.256 25.1943C276.169 25.5179 276.126 25.862 276.126 26.2266ZM284.445 24.0254V32.8438H283.174V22.6035H284.336L284.445 24.0254ZM289.429 26.2402V26.3838C289.429 26.9215 289.365 27.4206 289.237 27.8809C289.11 28.3366 288.923 28.7331 288.677 29.0703C288.435 29.4076 288.137 29.6696 287.781 29.8564C287.426 30.0433 287.018 30.1367 286.558 30.1367C286.088 30.1367 285.674 30.0592 285.313 29.9043C284.953 29.7493 284.648 29.5238 284.397 29.2275C284.147 28.9313 283.946 28.5758 283.796 28.1611C283.65 27.7464 283.55 27.2793 283.495 26.7598V25.9941C283.55 25.4473 283.652 24.9574 283.803 24.5244C283.953 24.0915 284.151 23.7223 284.397 23.417C284.648 23.1071 284.951 22.8724 285.307 22.7129C285.662 22.5488 286.072 22.4668 286.537 22.4668C287.002 22.4668 287.414 22.5579 287.774 22.7402C288.134 22.918 288.438 23.1732 288.684 23.5059C288.93 23.8385 289.114 24.2373 289.237 24.7021C289.365 25.1624 289.429 25.6751 289.429 26.2402ZM288.157 26.3838V26.2402C288.157 25.8711 288.118 25.5247 288.041 25.2012C287.964 24.873 287.843 24.5859 287.679 24.3398C287.519 24.0892 287.314 23.8932 287.063 23.752C286.813 23.6061 286.514 23.5332 286.168 23.5332C285.849 23.5332 285.571 23.5879 285.334 23.6973C285.102 23.8066 284.903 23.9548 284.739 24.1416C284.575 24.3239 284.441 24.5335 284.336 24.7705C284.236 25.0029 284.16 25.2445 284.11 25.4951V27.2656C284.201 27.5846 284.329 27.8854 284.493 28.168C284.657 28.446 284.876 28.6715 285.149 28.8447C285.423 29.0133 285.767 29.0977 286.182 29.0977C286.523 29.0977 286.817 29.027 287.063 28.8857C287.314 28.7399 287.519 28.5417 287.679 28.291C287.843 28.0404 287.964 27.7533 288.041 27.4297C288.118 27.1016 288.157 26.7529 288.157 26.3838ZM297.611 22.6035V23.5742H293.612V22.6035H297.611ZM294.966 20.8057H296.23V28.168C296.23 28.4186 296.269 28.6077 296.347 28.7354C296.424 28.863 296.524 28.9473 296.647 28.9883C296.771 29.0293 296.903 29.0498 297.044 29.0498C297.149 29.0498 297.258 29.0407 297.372 29.0225C297.491 28.9997 297.579 28.9814 297.639 28.9678L297.646 30C297.545 30.0319 297.413 30.0615 297.249 30.0889C297.09 30.1208 296.896 30.1367 296.668 30.1367C296.358 30.1367 296.073 30.0752 295.813 29.9521C295.554 29.8291 295.346 29.624 295.191 29.3369C295.041 29.0452 294.966 28.6533 294.966 28.1611V20.8057ZM302.164 30.1367C301.649 30.1367 301.182 30.0501 300.763 29.877C300.348 29.6992 299.99 29.4508 299.689 29.1318C299.393 28.8128 299.165 28.4346 299.006 27.9971C298.846 27.5596 298.767 27.0811 298.767 26.5615V26.2744C298.767 25.6729 298.855 25.1374 299.033 24.668C299.211 24.194 299.452 23.793 299.758 23.4648C300.063 23.1367 300.41 22.8883 300.797 22.7197C301.184 22.5511 301.585 22.4668 302 22.4668C302.529 22.4668 302.984 22.5579 303.367 22.7402C303.755 22.9225 304.071 23.1777 304.317 23.5059C304.563 23.8294 304.746 24.2122 304.864 24.6543C304.983 25.0918 305.042 25.5703 305.042 26.0898V26.6572H299.519V25.625H303.777V25.5293C303.759 25.2012 303.691 24.8822 303.572 24.5723C303.458 24.2624 303.276 24.0072 303.025 23.8066C302.775 23.6061 302.433 23.5059 302 23.5059C301.713 23.5059 301.449 23.5674 301.207 23.6904C300.965 23.8089 300.758 23.9867 300.585 24.2236C300.412 24.4606 300.277 24.75 300.182 25.0918C300.086 25.4336 300.038 25.8278 300.038 26.2744V26.5615C300.038 26.9124 300.086 27.2428 300.182 27.5527C300.282 27.8581 300.425 28.127 300.612 28.3594C300.804 28.5918 301.034 28.7741 301.303 28.9062C301.576 29.0384 301.886 29.1045 302.232 29.1045C302.679 29.1045 303.057 29.0133 303.367 28.8311C303.677 28.6488 303.948 28.4049 304.181 28.0996L304.946 28.708C304.787 28.9495 304.584 29.1797 304.338 29.3984C304.092 29.6172 303.789 29.7949 303.429 29.9316C303.073 30.0684 302.652 30.1367 302.164 30.1367ZM307.776 24.0732V30H306.505V22.6035H307.708L307.776 24.0732ZM307.517 26.0215L306.929 26.001C306.933 25.4951 306.999 25.028 307.127 24.5996C307.255 24.1667 307.444 23.7907 307.694 23.4717C307.945 23.1527 308.257 22.9066 308.631 22.7334C309.005 22.5557 309.438 22.4668 309.93 22.4668C310.276 22.4668 310.595 22.5169 310.887 22.6172C311.178 22.7129 311.431 22.8656 311.646 23.0752C311.86 23.2848 312.026 23.5537 312.145 23.8818C312.263 24.21 312.322 24.6064 312.322 25.0713V30H311.058V25.1328C311.058 24.7454 310.992 24.4355 310.859 24.2031C310.732 23.9707 310.549 23.8021 310.312 23.6973C310.076 23.5879 309.798 23.5332 309.479 23.5332C309.105 23.5332 308.793 23.5993 308.542 23.7314C308.291 23.8636 308.091 24.0459 307.94 24.2783C307.79 24.5107 307.681 24.7773 307.612 25.0781C307.549 25.3743 307.517 25.6888 307.517 26.0215ZM312.309 25.3242L311.461 25.584C311.465 25.1784 311.532 24.7887 311.659 24.415C311.791 24.0413 311.98 23.7087 312.227 23.417C312.477 23.1253 312.785 22.8952 313.149 22.7266C313.514 22.5534 313.931 22.4668 314.4 22.4668C314.797 22.4668 315.148 22.5192 315.453 22.624C315.763 22.7288 316.023 22.8906 316.232 23.1094C316.447 23.3236 316.608 23.5993 316.718 23.9365C316.827 24.2738 316.882 24.6748 316.882 25.1396V30H315.61V25.126C315.61 24.7113 315.544 24.39 315.412 24.1621C315.285 23.9297 315.102 23.7679 314.865 23.6768C314.633 23.5811 314.355 23.5332 314.031 23.5332C313.753 23.5332 313.507 23.5811 313.293 23.6768C313.079 23.7725 312.899 23.9046 312.753 24.0732C312.607 24.2373 312.495 24.4264 312.418 24.6406C312.345 24.8548 312.309 25.0827 312.309 25.3242ZM320.061 24.0254V32.8438H318.789V22.6035H319.951L320.061 24.0254ZM325.044 26.2402V26.3838C325.044 26.9215 324.98 27.4206 324.853 27.8809C324.725 28.3366 324.538 28.7331 324.292 29.0703C324.05 29.4076 323.752 29.6696 323.396 29.8564C323.041 30.0433 322.633 30.1367 322.173 30.1367C321.703 30.1367 321.289 30.0592 320.929 29.9043C320.569 29.7493 320.263 29.5238 320.013 29.2275C319.762 28.9313 319.562 28.5758 319.411 28.1611C319.265 27.7464 319.165 27.2793 319.11 26.7598V25.9941C319.165 25.4473 319.268 24.9574 319.418 24.5244C319.568 24.0915 319.767 23.7223 320.013 23.417C320.263 23.1071 320.566 22.8724 320.922 22.7129C321.277 22.5488 321.688 22.4668 322.152 22.4668C322.617 22.4668 323.03 22.5579 323.39 22.7402C323.75 22.918 324.053 23.1732 324.299 23.5059C324.545 23.8385 324.729 24.2373 324.853 24.7021C324.98 25.1624 325.044 25.6751 325.044 26.2402ZM323.772 26.3838V26.2402C323.772 25.8711 323.734 25.5247 323.656 25.2012C323.579 24.873 323.458 24.5859 323.294 24.3398C323.134 24.0892 322.929 23.8932 322.679 23.752C322.428 23.6061 322.13 23.5332 321.783 23.5332C321.464 23.5332 321.186 23.5879 320.949 23.6973C320.717 23.8066 320.519 23.9548 320.354 24.1416C320.19 24.3239 320.056 24.5335 319.951 24.7705C319.851 25.0029 319.776 25.2445 319.726 25.4951V27.2656C319.817 27.5846 319.944 27.8854 320.108 28.168C320.272 28.446 320.491 28.6715 320.765 28.8447C321.038 29.0133 321.382 29.0977 321.797 29.0977C322.139 29.0977 322.433 29.027 322.679 28.8857C322.929 28.7399 323.134 28.5417 323.294 28.291C323.458 28.0404 323.579 27.7533 323.656 27.4297C323.734 27.1016 323.772 26.7529 323.772 26.3838ZM328.031 19.5V30H326.76V19.5H328.031ZM334.423 28.7354V24.9277C334.423 24.6361 334.364 24.3831 334.245 24.1689C334.131 23.9502 333.958 23.7816 333.726 23.6631C333.493 23.5446 333.206 23.4854 332.864 23.4854C332.545 23.4854 332.265 23.54 332.023 23.6494C331.786 23.7588 331.6 23.9023 331.463 24.0801C331.331 24.2578 331.265 24.4492 331.265 24.6543H330C330 24.39 330.068 24.1279 330.205 23.8682C330.342 23.6084 330.538 23.3737 330.793 23.1641C331.053 22.9499 331.363 22.7812 331.723 22.6582C332.087 22.5306 332.493 22.4668 332.939 22.4668C333.477 22.4668 333.951 22.5579 334.361 22.7402C334.776 22.9225 335.1 23.1982 335.332 23.5674C335.569 23.932 335.688 24.39 335.688 24.9414V28.3867C335.688 28.6328 335.708 28.8949 335.749 29.1729C335.795 29.4508 335.861 29.6901 335.947 29.8906V30H334.628C334.564 29.8542 334.514 29.6605 334.478 29.4189C334.441 29.1729 334.423 28.945 334.423 28.7354ZM334.642 25.5156L334.655 26.4043H333.377C333.017 26.4043 332.696 26.4339 332.413 26.4932C332.131 26.5479 331.894 26.6322 331.702 26.7461C331.511 26.86 331.365 27.0036 331.265 27.1768C331.164 27.3454 331.114 27.5436 331.114 27.7715C331.114 28.0039 331.167 28.2158 331.271 28.4072C331.376 28.5986 331.534 28.7513 331.743 28.8652C331.957 28.9746 332.219 29.0293 332.529 29.0293C332.917 29.0293 333.258 28.9473 333.555 28.7832C333.851 28.6191 334.086 28.4186 334.259 28.1816C334.437 27.9447 334.532 27.7145 334.546 27.4912L335.086 28.0996C335.054 28.291 334.967 28.5029 334.826 28.7354C334.685 28.9678 334.496 29.1911 334.259 29.4053C334.026 29.6149 333.748 29.7904 333.425 29.9316C333.106 30.0684 332.746 30.1367 332.345 30.1367C331.843 30.1367 331.404 30.0387 331.025 29.8428C330.652 29.6468 330.36 29.3848 330.15 29.0566C329.945 28.724 329.843 28.3525 329.843 27.9424C329.843 27.5459 329.92 27.1973 330.075 26.8965C330.23 26.5911 330.453 26.3382 330.745 26.1377C331.037 25.9326 331.388 25.7777 331.798 25.6729C332.208 25.568 332.666 25.5156 333.172 25.5156H334.642ZM340.773 22.6035V23.5742H336.774V22.6035H340.773ZM338.128 20.8057H339.393V28.168C339.393 28.4186 339.431 28.6077 339.509 28.7354C339.586 28.863 339.687 28.9473 339.81 28.9883C339.933 29.0293 340.065 29.0498 340.206 29.0498C340.311 29.0498 340.42 29.0407 340.534 29.0225C340.653 28.9997 340.742 28.9814 340.801 28.9678L340.808 30C340.707 30.0319 340.575 30.0615 340.411 30.0889C340.252 30.1208 340.058 30.1367 339.83 30.1367C339.52 30.1367 339.235 30.0752 338.976 29.9521C338.716 29.8291 338.508 29.624 338.354 29.3369C338.203 29.0452 338.128 28.6533 338.128 28.1611V20.8057ZM345.326 30.1367C344.811 30.1367 344.344 30.0501 343.925 29.877C343.51 29.6992 343.152 29.4508 342.852 29.1318C342.555 28.8128 342.327 28.4346 342.168 27.9971C342.008 27.5596 341.929 27.0811 341.929 26.5615V26.2744C341.929 25.6729 342.018 25.1374 342.195 24.668C342.373 24.194 342.615 23.793 342.92 23.4648C343.225 23.1367 343.572 22.8883 343.959 22.7197C344.346 22.5511 344.747 22.4668 345.162 22.4668C345.691 22.4668 346.146 22.5579 346.529 22.7402C346.917 22.9225 347.233 23.1777 347.479 23.5059C347.726 23.8294 347.908 24.2122 348.026 24.6543C348.145 25.0918 348.204 25.5703 348.204 26.0898V26.6572H342.681V25.625H346.939V25.5293C346.921 25.2012 346.853 24.8822 346.734 24.5723C346.62 24.2624 346.438 24.0072 346.188 23.8066C345.937 23.6061 345.595 23.5059 345.162 23.5059C344.875 23.5059 344.611 23.5674 344.369 23.6904C344.128 23.8089 343.92 23.9867 343.747 24.2236C343.574 24.4606 343.439 24.75 343.344 25.0918C343.248 25.4336 343.2 25.8278 343.2 26.2744V26.5615C343.2 26.9124 343.248 27.2428 343.344 27.5527C343.444 27.8581 343.588 28.127 343.774 28.3594C343.966 28.5918 344.196 28.7741 344.465 28.9062C344.738 29.0384 345.048 29.1045 345.395 29.1045C345.841 29.1045 346.219 29.0133 346.529 28.8311C346.839 28.6488 347.11 28.4049 347.343 28.0996L348.108 28.708C347.949 28.9495 347.746 29.1797 347.5 29.3984C347.254 29.6172 346.951 29.7949 346.591 29.9316C346.235 30.0684 345.814 30.1367 345.326 30.1367ZM192.857 45.3301C192.857 45.1159 192.924 44.9359 193.056 44.79C193.192 44.6396 193.388 44.5645 193.644 44.5645C193.899 44.5645 194.092 44.6396 194.225 44.79C194.361 44.9359 194.43 45.1159 194.43 45.3301C194.43 45.5397 194.361 45.7174 194.225 45.8633C194.092 46.0091 193.899 46.082 193.644 46.082C193.388 46.082 193.192 46.0091 193.056 45.8633C192.924 45.7174 192.857 45.5397 192.857 45.3301ZM197.383 38.6035L199.003 41.2969L200.644 38.6035H202.127L199.707 42.2539L202.202 46H200.739L199.03 43.2246L197.321 46H195.852L198.34 42.2539L195.927 38.6035H197.383ZM204.848 35.5V46H203.576V35.5H204.848ZM207.732 38.6035L209.353 41.2969L210.993 38.6035H212.477L210.057 42.2539L212.552 46H211.089L209.38 43.2246L207.671 46H206.201L208.689 42.2539L206.276 38.6035H207.732ZM218.13 44.0381C218.13 43.8558 218.089 43.6872 218.007 43.5322C217.929 43.3727 217.768 43.2292 217.521 43.1016C217.28 42.9694 216.915 42.8555 216.428 42.7598C216.018 42.6732 215.646 42.5706 215.313 42.4521C214.985 42.3337 214.705 42.1901 214.473 42.0215C214.245 41.8529 214.069 41.6546 213.946 41.4268C213.823 41.1989 213.762 40.9323 213.762 40.627C213.762 40.3353 213.826 40.0596 213.953 39.7998C214.085 39.54 214.27 39.3099 214.507 39.1094C214.748 38.9089 215.038 38.7516 215.375 38.6377C215.712 38.5238 216.088 38.4668 216.503 38.4668C217.095 38.4668 217.601 38.5716 218.021 38.7812C218.44 38.9909 218.761 39.2712 218.984 39.6221C219.208 39.9684 219.319 40.3535 219.319 40.7773H218.055C218.055 40.5723 217.993 40.374 217.87 40.1826C217.752 39.9867 217.576 39.8249 217.344 39.6973C217.116 39.5697 216.836 39.5059 216.503 39.5059C216.152 39.5059 215.867 39.5605 215.648 39.6699C215.434 39.7747 215.277 39.9092 215.177 40.0732C215.081 40.2373 215.033 40.4105 215.033 40.5928C215.033 40.7295 215.056 40.8525 215.102 40.9619C215.152 41.0667 215.238 41.1647 215.361 41.2559C215.484 41.3424 215.658 41.4245 215.881 41.502C216.104 41.5794 216.389 41.6569 216.735 41.7344C217.341 41.8711 217.84 42.0352 218.232 42.2266C218.624 42.418 218.916 42.6527 219.107 42.9307C219.299 43.2087 219.395 43.5459 219.395 43.9424C219.395 44.266 219.326 44.5622 219.189 44.8311C219.057 45.0999 218.864 45.3324 218.608 45.5283C218.358 45.7197 218.057 45.8701 217.706 45.9795C217.36 46.0843 216.97 46.1367 216.537 46.1367C215.885 46.1367 215.334 46.0205 214.883 45.7881C214.432 45.5557 214.09 45.2549 213.857 44.8857C213.625 44.5166 213.509 44.127 213.509 43.7168H214.78C214.799 44.0632 214.899 44.3389 215.081 44.5439C215.263 44.7445 215.487 44.888 215.751 44.9746C216.015 45.0566 216.277 45.0977 216.537 45.0977C216.883 45.0977 217.173 45.0521 217.405 44.9609C217.642 44.8698 217.822 44.7445 217.945 44.585C218.068 44.4255 218.13 44.2432 218.13 44.0381ZM222.204 44.4961V45.5146C222.204 45.9294 222.099 46.3669 221.89 46.8271C221.68 47.292 221.386 47.6794 221.008 47.9893L220.29 47.4902C220.436 47.2897 220.559 47.0846 220.659 46.875C220.759 46.6699 220.835 46.4557 220.885 46.2324C220.939 46.0137 220.967 45.7812 220.967 45.5352V44.4961H222.204ZM227.311 45.3301C227.311 45.1159 227.377 44.9359 227.509 44.79C227.646 44.6396 227.841 44.5645 228.097 44.5645C228.352 44.5645 228.546 44.6396 228.678 44.79C228.814 44.9359 228.883 45.1159 228.883 45.3301C228.883 45.5397 228.814 45.7174 228.678 45.8633C228.546 46.0091 228.352 46.082 228.097 46.082C227.841 46.082 227.646 46.0091 227.509 45.8633C227.377 45.7174 227.311 45.5397 227.311 45.3301ZM231.836 38.6035L233.456 41.2969L235.097 38.6035H236.58L234.16 42.2539L236.655 46H235.192L233.483 43.2246L231.774 46H230.305L232.793 42.2539L230.38 38.6035H231.836ZM239.301 35.5V46H238.029V35.5H239.301ZM245.638 44.0381C245.638 43.8558 245.597 43.6872 245.515 43.5322C245.437 43.3727 245.275 43.2292 245.029 43.1016C244.788 42.9694 244.423 42.8555 243.936 42.7598C243.525 42.6732 243.154 42.5706 242.821 42.4521C242.493 42.3337 242.213 42.1901 241.98 42.0215C241.753 41.8529 241.577 41.6546 241.454 41.4268C241.331 41.1989 241.27 40.9323 241.27 40.627C241.27 40.3353 241.333 40.0596 241.461 39.7998C241.593 39.54 241.778 39.3099 242.015 39.1094C242.256 38.9089 242.546 38.7516 242.883 38.6377C243.22 38.5238 243.596 38.4668 244.011 38.4668C244.603 38.4668 245.109 38.5716 245.528 38.7812C245.948 38.9909 246.269 39.2712 246.492 39.6221C246.715 39.9684 246.827 40.3535 246.827 40.7773H245.562C245.562 40.5723 245.501 40.374 245.378 40.1826C245.259 39.9867 245.084 39.8249 244.852 39.6973C244.624 39.5697 244.343 39.5059 244.011 39.5059C243.66 39.5059 243.375 39.5605 243.156 39.6699C242.942 39.7747 242.785 39.9092 242.685 40.0732C242.589 40.2373 242.541 40.4105 242.541 40.5928C242.541 40.7295 242.564 40.8525 242.609 40.9619C242.66 41.0667 242.746 41.1647 242.869 41.2559C242.992 41.3424 243.165 41.4245 243.389 41.502C243.612 41.5794 243.897 41.6569 244.243 41.7344C244.849 41.8711 245.348 42.0352 245.74 42.2266C246.132 42.418 246.424 42.6527 246.615 42.9307C246.807 43.2087 246.902 43.5459 246.902 43.9424C246.902 44.266 246.834 44.5622 246.697 44.8311C246.565 45.0999 246.371 45.3324 246.116 45.5283C245.866 45.7197 245.565 45.8701 245.214 45.9795C244.868 46.0843 244.478 46.1367 244.045 46.1367C243.393 46.1367 242.842 46.0205 242.391 45.7881C241.939 45.5557 241.598 45.2549 241.365 44.8857C241.133 44.5166 241.017 44.127 241.017 43.7168H242.288C242.306 44.0632 242.407 44.3389 242.589 44.5439C242.771 44.7445 242.994 44.888 243.259 44.9746C243.523 45.0566 243.785 45.0977 244.045 45.0977C244.391 45.0977 244.681 45.0521 244.913 44.9609C245.15 44.8698 245.33 44.7445 245.453 44.585C245.576 44.4255 245.638 44.2432 245.638 44.0381Z" fill="#636363"/>
<rect x="0.986328" y="0.25" width="391.5" height="65.5" rx="9.75" stroke="#C4C4C4" stroke-width="0.5"/>
</svg>
