<svg width="153" height="17" viewBox="0 0 153 17" fill="none" xmlns="http://www.w3.org/2000/svg">
<path d="M32.8486 14H30.7705L30.7842 12.9268H32.8486C33.5596 12.9268 34.152 12.7786 34.626 12.4824C35.0999 12.1816 35.4554 11.7624 35.6924 11.2246C35.9339 10.6823 36.0547 10.0488 36.0547 9.32422V8.71582C36.0547 8.14616 35.9863 7.6403 35.8496 7.19824C35.7129 6.75163 35.5124 6.37565 35.248 6.07031C34.9837 5.76042 34.6602 5.52572 34.2773 5.36621C33.8991 5.20671 33.4639 5.12695 32.9717 5.12695H30.7295V4.04688H32.9717C33.6234 4.04688 34.2181 4.15625 34.7559 4.375C35.2936 4.58919 35.7562 4.90137 36.1436 5.31152C36.5355 5.71712 36.8363 6.20931 37.0459 6.78809C37.2555 7.3623 37.3604 8.00944 37.3604 8.72949V9.32422C37.3604 10.0443 37.2555 10.6937 37.0459 11.2725C36.8363 11.8467 36.5332 12.3366 36.1367 12.7422C35.7448 13.1478 35.2708 13.46 34.7148 13.6787C34.1634 13.8929 33.5413 14 32.8486 14ZM31.4746 4.04688V14H30.1553V4.04688H31.4746ZM38.8164 10.3838V10.2266C38.8164 9.69336 38.8939 9.19889 39.0488 8.74316C39.2038 8.28288 39.4271 7.88411 39.7188 7.54688C40.0104 7.20508 40.3636 6.94076 40.7783 6.75391C41.193 6.5625 41.6579 6.4668 42.1729 6.4668C42.6924 6.4668 43.1595 6.5625 43.5742 6.75391C43.9935 6.94076 44.349 7.20508 44.6406 7.54688C44.9368 7.88411 45.1624 8.28288 45.3174 8.74316C45.4723 9.19889 45.5498 9.69336 45.5498 10.2266V10.3838C45.5498 10.917 45.4723 11.4115 45.3174 11.8672C45.1624 12.3229 44.9368 12.7217 44.6406 13.0635C44.349 13.4007 43.9958 13.665 43.5811 13.8564C43.1709 14.0433 42.7061 14.1367 42.1865 14.1367C41.667 14.1367 41.1999 14.0433 40.7852 13.8564C40.3704 13.665 40.015 13.4007 39.7188 13.0635C39.4271 12.7217 39.2038 12.3229 39.0488 11.8672C38.8939 11.4115 38.8164 10.917 38.8164 10.3838ZM40.0811 10.2266V10.3838C40.0811 10.7529 40.1243 11.1016 40.2109 11.4297C40.2975 11.7533 40.4274 12.0404 40.6006 12.291C40.7783 12.5417 40.9993 12.7399 41.2637 12.8857C41.528 13.027 41.8356 13.0977 42.1865 13.0977C42.5329 13.0977 42.8359 13.027 43.0957 12.8857C43.36 12.7399 43.5788 12.5417 43.752 12.291C43.9251 12.0404 44.055 11.7533 44.1416 11.4297C44.2327 11.1016 44.2783 10.7529 44.2783 10.3838V10.2266C44.2783 9.86198 44.2327 9.5179 44.1416 9.19434C44.055 8.86621 43.9229 8.57682 43.7451 8.32617C43.5719 8.07096 43.3532 7.87044 43.0889 7.72461C42.8291 7.57878 42.5238 7.50586 42.1729 7.50586C41.8265 7.50586 41.5212 7.57878 41.2568 7.72461C40.9971 7.87044 40.7783 8.07096 40.6006 8.32617C40.4274 8.57682 40.2975 8.86621 40.2109 9.19434C40.1243 9.5179 40.0811 9.86198 40.0811 10.2266ZM49.0088 12.6875L50.9092 6.60352H51.7432L51.5791 7.81348L49.6445 14H48.8311L49.0088 12.6875ZM47.7305 6.60352L49.3506 12.7559L49.4668 14H48.6123L46.4658 6.60352H47.7305ZM53.5615 12.708L55.1064 6.60352H56.3643L54.2178 14H53.3701L53.5615 12.708ZM51.9277 6.60352L53.7871 12.585L53.999 14H53.1924L51.2031 7.7998L51.0391 6.60352H51.9277ZM58.9277 8.18262V14H57.6631V6.60352H58.8594L58.9277 8.18262ZM58.627 10.0215L58.1006 10.001C58.1051 9.49512 58.1803 9.02799 58.3262 8.59961C58.472 8.16667 58.6771 7.79069 58.9414 7.47168C59.2057 7.15267 59.5202 6.90658 59.8848 6.7334C60.2539 6.55566 60.6618 6.4668 61.1084 6.4668C61.473 6.4668 61.8011 6.51693 62.0928 6.61719C62.3844 6.71289 62.6328 6.86784 62.8379 7.08203C63.0475 7.29622 63.207 7.57422 63.3164 7.91602C63.4258 8.25326 63.4805 8.66569 63.4805 9.15332V14H62.209V9.13965C62.209 8.75228 62.152 8.44238 62.0381 8.20996C61.9242 7.97298 61.7578 7.80208 61.5391 7.69727C61.3203 7.58789 61.0514 7.5332 60.7324 7.5332C60.418 7.5332 60.1309 7.59928 59.8711 7.73145C59.6159 7.86361 59.3949 8.0459 59.208 8.27832C59.0257 8.51074 58.8822 8.77734 58.7773 9.07812C58.6771 9.37435 58.627 9.6888 58.627 10.0215ZM66.7754 3.5V14H65.5039V3.5H66.7754ZM68.4707 10.3838V10.2266C68.4707 9.69336 68.5482 9.19889 68.7031 8.74316C68.8581 8.28288 69.0814 7.88411 69.373 7.54688C69.6647 7.20508 70.0179 6.94076 70.4326 6.75391C70.8473 6.5625 71.3122 6.4668 71.8271 6.4668C72.3467 6.4668 72.8138 6.5625 73.2285 6.75391C73.6478 6.94076 74.0033 7.20508 74.2949 7.54688C74.5911 7.88411 74.8167 8.28288 74.9717 8.74316C75.1266 9.19889 75.2041 9.69336 75.2041 10.2266V10.3838C75.2041 10.917 75.1266 11.4115 74.9717 11.8672C74.8167 12.3229 74.5911 12.7217 74.2949 13.0635C74.0033 13.4007 73.6501 13.665 73.2354 13.8564C72.8252 14.0433 72.3604 14.1367 71.8408 14.1367C71.3213 14.1367 70.8542 14.0433 70.4395 13.8564C70.0247 13.665 69.6693 13.4007 69.373 13.0635C69.0814 12.7217 68.8581 12.3229 68.7031 11.8672C68.5482 11.4115 68.4707 10.917 68.4707 10.3838ZM69.7354 10.2266V10.3838C69.7354 10.7529 69.7786 11.1016 69.8652 11.4297C69.9518 11.7533 70.0817 12.0404 70.2549 12.291C70.4326 12.5417 70.6536 12.7399 70.918 12.8857C71.1823 13.027 71.4899 13.0977 71.8408 13.0977C72.1872 13.0977 72.4902 13.027 72.75 12.8857C73.0143 12.7399 73.2331 12.5417 73.4062 12.291C73.5794 12.0404 73.7093 11.7533 73.7959 11.4297C73.887 11.1016 73.9326 10.7529 73.9326 10.3838V10.2266C73.9326 9.86198 73.887 9.5179 73.7959 9.19434C73.7093 8.86621 73.5771 8.57682 73.3994 8.32617C73.2262 8.07096 73.0075 7.87044 72.7432 7.72461C72.4834 7.57878 72.1781 7.50586 71.8271 7.50586C71.4808 7.50586 71.1755 7.57878 70.9111 7.72461C70.6514 7.87044 70.4326 8.07096 70.2549 8.32617C70.0817 8.57682 69.9518 8.86621 69.8652 9.19434C69.7786 9.5179 69.7354 9.86198 69.7354 10.2266ZM81.1514 12.7354V8.92773C81.1514 8.63607 81.0921 8.38314 80.9736 8.16895C80.8597 7.9502 80.6865 7.78158 80.4541 7.66309C80.2217 7.5446 79.9346 7.48535 79.5928 7.48535C79.2738 7.48535 78.9935 7.54004 78.752 7.64941C78.515 7.75879 78.3281 7.90234 78.1914 8.08008C78.0592 8.25781 77.9932 8.44922 77.9932 8.6543H76.7285C76.7285 8.38997 76.7969 8.12793 76.9336 7.86816C77.0703 7.6084 77.2663 7.3737 77.5215 7.16406C77.7812 6.94987 78.0911 6.78125 78.4512 6.6582C78.8158 6.5306 79.2214 6.4668 79.668 6.4668C80.2057 6.4668 80.6797 6.55794 81.0898 6.74023C81.5046 6.92253 81.8281 7.19824 82.0605 7.56738C82.2975 7.93197 82.416 8.38997 82.416 8.94141V12.3867C82.416 12.6328 82.4365 12.8949 82.4775 13.1729C82.5231 13.4508 82.5892 13.6901 82.6758 13.8906V14H81.3564C81.2926 13.8542 81.2425 13.6605 81.2061 13.4189C81.1696 13.1729 81.1514 12.945 81.1514 12.7354ZM81.3701 9.51562L81.3838 10.4043H80.1055C79.7454 10.4043 79.4242 10.4339 79.1416 10.4932C78.859 10.5479 78.6221 10.6322 78.4307 10.7461C78.2393 10.86 78.0934 11.0036 77.9932 11.1768C77.8929 11.3454 77.8428 11.5436 77.8428 11.7715C77.8428 12.0039 77.8952 12.2158 78 12.4072C78.1048 12.5986 78.262 12.7513 78.4717 12.8652C78.6859 12.9746 78.9479 13.0293 79.2578 13.0293C79.6452 13.0293 79.987 12.9473 80.2832 12.7832C80.5794 12.6191 80.8141 12.4186 80.9873 12.1816C81.165 11.9447 81.2607 11.7145 81.2744 11.4912L81.8145 12.0996C81.7826 12.291 81.696 12.5029 81.5547 12.7354C81.4134 12.9678 81.2243 13.1911 80.9873 13.4053C80.7549 13.6149 80.4769 13.7904 80.1533 13.9316C79.8343 14.0684 79.4743 14.1367 79.0732 14.1367C78.5719 14.1367 78.1322 14.0387 77.7539 13.8428C77.3802 13.6468 77.0885 13.3848 76.8789 13.0566C76.6738 12.724 76.5713 12.3525 76.5713 11.9424C76.5713 11.5459 76.6488 11.1973 76.8037 10.8965C76.9587 10.5911 77.182 10.3382 77.4736 10.1377C77.7653 9.93262 78.1162 9.77767 78.5264 9.67285C78.9365 9.56803 79.3945 9.51562 79.9004 9.51562H81.3701ZM89.0674 12.5645V3.5H90.3389V14H89.1768L89.0674 12.5645ZM84.0908 10.3838V10.2402C84.0908 9.67513 84.1592 9.16243 84.2959 8.70215C84.4372 8.2373 84.6354 7.83854 84.8906 7.50586C85.1504 7.17318 85.458 6.91797 85.8135 6.74023C86.1735 6.55794 86.5745 6.4668 87.0166 6.4668C87.4814 6.4668 87.887 6.54883 88.2334 6.71289C88.5843 6.8724 88.8805 7.1071 89.1221 7.41699C89.3682 7.72233 89.5618 8.09147 89.7031 8.52441C89.8444 8.95736 89.9424 9.44727 89.9971 9.99414V10.623C89.9469 11.1654 89.849 11.653 89.7031 12.0859C89.5618 12.5189 89.3682 12.888 89.1221 13.1934C88.8805 13.4987 88.5843 13.7334 88.2334 13.8975C87.8825 14.057 87.4723 14.1367 87.0029 14.1367C86.57 14.1367 86.1735 14.0433 85.8135 13.8564C85.458 13.6696 85.1504 13.4076 84.8906 13.0703C84.6354 12.7331 84.4372 12.3366 84.2959 11.8809C84.1592 11.4206 84.0908 10.9215 84.0908 10.3838ZM85.3623 10.2402V10.3838C85.3623 10.7529 85.3988 11.0993 85.4717 11.4229C85.5492 11.7464 85.6676 12.0312 85.8271 12.2773C85.9867 12.5234 86.1895 12.7171 86.4355 12.8584C86.6816 12.9951 86.9756 13.0635 87.3174 13.0635C87.7367 13.0635 88.0807 12.9746 88.3496 12.7969C88.623 12.6191 88.8418 12.3844 89.0059 12.0928C89.1699 11.8011 89.2975 11.4844 89.3887 11.1426V9.49512C89.334 9.24447 89.2542 9.00293 89.1494 8.77051C89.0492 8.53353 88.917 8.32389 88.7529 8.1416C88.5934 7.95475 88.3952 7.80664 88.1582 7.69727C87.9258 7.58789 87.6501 7.5332 87.3311 7.5332C86.9847 7.5332 86.6862 7.60612 86.4355 7.75195C86.1895 7.89323 85.9867 8.08919 85.8271 8.33984C85.6676 8.58594 85.5492 8.87305 85.4717 9.20117C85.3988 9.52474 85.3623 9.87109 85.3623 10.2402ZM99.376 4.04688V14H98.0771V4.04688H99.376ZM102.575 4.04688V5.12695H94.8848V4.04688H102.575ZM106.246 14.1367C105.731 14.1367 105.264 14.0501 104.845 13.877C104.43 13.6992 104.072 13.4508 103.771 13.1318C103.475 12.8128 103.247 12.4346 103.088 11.9971C102.928 11.5596 102.849 11.0811 102.849 10.5615V10.2744C102.849 9.67285 102.938 9.13737 103.115 8.66797C103.293 8.19401 103.535 7.79297 103.84 7.46484C104.145 7.13672 104.492 6.88835 104.879 6.71973C105.266 6.55111 105.667 6.4668 106.082 6.4668C106.611 6.4668 107.066 6.55794 107.449 6.74023C107.837 6.92253 108.153 7.17773 108.399 7.50586C108.646 7.82943 108.828 8.21224 108.946 8.6543C109.065 9.0918 109.124 9.57031 109.124 10.0898V10.6572H103.601V9.625H107.859V9.5293C107.841 9.20117 107.773 8.88216 107.654 8.57227C107.54 8.26237 107.358 8.00716 107.107 7.80664C106.857 7.60612 106.515 7.50586 106.082 7.50586C105.795 7.50586 105.531 7.56738 105.289 7.69043C105.048 7.80892 104.84 7.98665 104.667 8.22363C104.494 8.46061 104.359 8.75 104.264 9.0918C104.168 9.43359 104.12 9.8278 104.12 10.2744V10.5615C104.12 10.9124 104.168 11.2428 104.264 11.5527C104.364 11.8581 104.507 12.127 104.694 12.3594C104.886 12.5918 105.116 12.7741 105.385 12.9062C105.658 13.0384 105.968 13.1045 106.314 13.1045C106.761 13.1045 107.139 13.0133 107.449 12.8311C107.759 12.6488 108.03 12.4049 108.263 12.0996L109.028 12.708C108.869 12.9495 108.666 13.1797 108.42 13.3984C108.174 13.6172 107.871 13.7949 107.511 13.9316C107.155 14.0684 106.734 14.1367 106.246 14.1367ZM111.858 8.07324V14H110.587V6.60352H111.79L111.858 8.07324ZM111.599 10.0215L111.011 10.001C111.015 9.49512 111.081 9.02799 111.209 8.59961C111.337 8.16667 111.526 7.79069 111.776 7.47168C112.027 7.15267 112.339 6.90658 112.713 6.7334C113.087 6.55566 113.52 6.4668 114.012 6.4668C114.358 6.4668 114.677 6.51693 114.969 6.61719C115.26 6.71289 115.513 6.86556 115.728 7.0752C115.942 7.28483 116.108 7.55371 116.227 7.88184C116.345 8.20996 116.404 8.60645 116.404 9.07129V14H115.14V9.13281C115.14 8.74544 115.074 8.43555 114.941 8.20312C114.814 7.9707 114.632 7.80208 114.395 7.69727C114.158 7.58789 113.88 7.5332 113.561 7.5332C113.187 7.5332 112.875 7.59928 112.624 7.73145C112.373 7.86361 112.173 8.0459 112.022 8.27832C111.872 8.51074 111.763 8.77734 111.694 9.07812C111.631 9.37435 111.599 9.6888 111.599 10.0215ZM116.391 9.32422L115.543 9.58398C115.548 9.17839 115.614 8.78874 115.741 8.41504C115.873 8.04134 116.062 7.70866 116.309 7.41699C116.559 7.12533 116.867 6.89518 117.231 6.72656C117.596 6.55339 118.013 6.4668 118.482 6.4668C118.879 6.4668 119.23 6.51921 119.535 6.62402C119.845 6.72884 120.105 6.89062 120.314 7.10938C120.529 7.32357 120.69 7.59928 120.8 7.93652C120.909 8.27376 120.964 8.6748 120.964 9.13965V14H119.692V9.12598C119.692 8.71126 119.626 8.38997 119.494 8.16211C119.367 7.92969 119.184 7.7679 118.947 7.67676C118.715 7.58105 118.437 7.5332 118.113 7.5332C117.835 7.5332 117.589 7.58105 117.375 7.67676C117.161 7.77246 116.981 7.90462 116.835 8.07324C116.689 8.2373 116.577 8.42643 116.5 8.64062C116.427 8.85482 116.391 9.08268 116.391 9.32422ZM124.143 8.02539V16.8438H122.871V6.60352H124.033L124.143 8.02539ZM129.126 10.2402V10.3838C129.126 10.9215 129.062 11.4206 128.935 11.8809C128.807 12.3366 128.62 12.7331 128.374 13.0703C128.132 13.4076 127.834 13.6696 127.479 13.8564C127.123 14.0433 126.715 14.1367 126.255 14.1367C125.785 14.1367 125.371 14.0592 125.011 13.9043C124.651 13.7493 124.345 13.5238 124.095 13.2275C123.844 12.9313 123.644 12.5758 123.493 12.1611C123.347 11.7464 123.247 11.2793 123.192 10.7598V9.99414C123.247 9.44727 123.35 8.95736 123.5 8.52441C123.65 8.09147 123.849 7.72233 124.095 7.41699C124.345 7.1071 124.648 6.8724 125.004 6.71289C125.359 6.54883 125.77 6.4668 126.234 6.4668C126.699 6.4668 127.112 6.55794 127.472 6.74023C127.832 6.91797 128.135 7.17318 128.381 7.50586C128.627 7.83854 128.812 8.2373 128.935 8.70215C129.062 9.16243 129.126 9.67513 129.126 10.2402ZM127.854 10.3838V10.2402C127.854 9.87109 127.816 9.52474 127.738 9.20117C127.661 8.87305 127.54 8.58594 127.376 8.33984C127.216 8.08919 127.011 7.89323 126.761 7.75195C126.51 7.60612 126.212 7.5332 125.865 7.5332C125.546 7.5332 125.268 7.58789 125.031 7.69727C124.799 7.80664 124.601 7.95475 124.437 8.1416C124.272 8.32389 124.138 8.53353 124.033 8.77051C123.933 9.00293 123.858 9.24447 123.808 9.49512V11.2656C123.899 11.5846 124.026 11.8854 124.19 12.168C124.354 12.446 124.573 12.6715 124.847 12.8447C125.12 13.0133 125.464 13.0977 125.879 13.0977C126.221 13.0977 126.515 13.027 126.761 12.8857C127.011 12.7399 127.216 12.5417 127.376 12.291C127.54 12.0404 127.661 11.7533 127.738 11.4297C127.816 11.1016 127.854 10.7529 127.854 10.3838ZM132.113 3.5V14H130.842V3.5H132.113ZM138.505 12.7354V8.92773C138.505 8.63607 138.446 8.38314 138.327 8.16895C138.213 7.9502 138.04 7.78158 137.808 7.66309C137.575 7.5446 137.288 7.48535 136.946 7.48535C136.627 7.48535 136.347 7.54004 136.105 7.64941C135.868 7.75879 135.682 7.90234 135.545 8.08008C135.413 8.25781 135.347 8.44922 135.347 8.6543H134.082C134.082 8.38997 134.15 8.12793 134.287 7.86816C134.424 7.6084 134.62 7.3737 134.875 7.16406C135.135 6.94987 135.445 6.78125 135.805 6.6582C136.169 6.5306 136.575 6.4668 137.021 6.4668C137.559 6.4668 138.033 6.55794 138.443 6.74023C138.858 6.92253 139.182 7.19824 139.414 7.56738C139.651 7.93197 139.77 8.38997 139.77 8.94141V12.3867C139.77 12.6328 139.79 12.8949 139.831 13.1729C139.877 13.4508 139.943 13.6901 140.029 13.8906V14H138.71C138.646 13.8542 138.596 13.6605 138.56 13.4189C138.523 13.1729 138.505 12.945 138.505 12.7354ZM138.724 9.51562L138.737 10.4043H137.459C137.099 10.4043 136.778 10.4339 136.495 10.4932C136.213 10.5479 135.976 10.6322 135.784 10.7461C135.593 10.86 135.447 11.0036 135.347 11.1768C135.246 11.3454 135.196 11.5436 135.196 11.7715C135.196 12.0039 135.249 12.2158 135.354 12.4072C135.458 12.5986 135.616 12.7513 135.825 12.8652C136.039 12.9746 136.301 13.0293 136.611 13.0293C136.999 13.0293 137.34 12.9473 137.637 12.7832C137.933 12.6191 138.168 12.4186 138.341 12.1816C138.519 11.9447 138.614 11.7145 138.628 11.4912L139.168 12.0996C139.136 12.291 139.049 12.5029 138.908 12.7354C138.767 12.9678 138.578 13.1911 138.341 13.4053C138.108 13.6149 137.83 13.7904 137.507 13.9316C137.188 14.0684 136.828 14.1367 136.427 14.1367C135.925 14.1367 135.486 14.0387 135.107 13.8428C134.734 13.6468 134.442 13.3848 134.232 13.0566C134.027 12.724 133.925 12.3525 133.925 11.9424C133.925 11.5459 134.002 11.1973 134.157 10.8965C134.312 10.5911 134.535 10.3382 134.827 10.1377C135.119 9.93262 135.47 9.77767 135.88 9.67285C136.29 9.56803 136.748 9.51562 137.254 9.51562H138.724ZM144.855 6.60352V7.57422H140.856V6.60352H144.855ZM142.21 4.80566H143.475V12.168C143.475 12.4186 143.513 12.6077 143.591 12.7354C143.668 12.863 143.769 12.9473 143.892 12.9883C144.015 13.0293 144.147 13.0498 144.288 13.0498C144.393 13.0498 144.502 13.0407 144.616 13.0225C144.735 12.9997 144.824 12.9814 144.883 12.9678L144.89 14C144.789 14.0319 144.657 14.0615 144.493 14.0889C144.334 14.1208 144.14 14.1367 143.912 14.1367C143.602 14.1367 143.317 14.0752 143.058 13.9521C142.798 13.8291 142.59 13.624 142.436 13.3369C142.285 13.0452 142.21 12.6533 142.21 12.1611V4.80566ZM149.408 14.1367C148.893 14.1367 148.426 14.0501 148.007 13.877C147.592 13.6992 147.234 13.4508 146.934 13.1318C146.637 12.8128 146.41 12.4346 146.25 11.9971C146.09 11.5596 146.011 11.0811 146.011 10.5615V10.2744C146.011 9.67285 146.1 9.13737 146.277 8.66797C146.455 8.19401 146.697 7.79297 147.002 7.46484C147.307 7.13672 147.654 6.88835 148.041 6.71973C148.428 6.55111 148.829 6.4668 149.244 6.4668C149.773 6.4668 150.229 6.55794 150.611 6.74023C150.999 6.92253 151.315 7.17773 151.562 7.50586C151.808 7.82943 151.99 8.21224 152.108 8.6543C152.227 9.0918 152.286 9.57031 152.286 10.0898V10.6572H146.763V9.625H151.021V9.5293C151.003 9.20117 150.935 8.88216 150.816 8.57227C150.702 8.26237 150.52 8.00716 150.27 7.80664C150.019 7.60612 149.677 7.50586 149.244 7.50586C148.957 7.50586 148.693 7.56738 148.451 7.69043C148.21 7.80892 148.002 7.98665 147.829 8.22363C147.656 8.46061 147.521 8.75 147.426 9.0918C147.33 9.43359 147.282 9.8278 147.282 10.2744V10.5615C147.282 10.9124 147.33 11.2428 147.426 11.5527C147.526 11.8581 147.67 12.127 147.856 12.3594C148.048 12.5918 148.278 12.7741 148.547 12.9062C148.82 13.0384 149.13 13.1045 149.477 13.1045C149.923 13.1045 150.301 13.0133 150.611 12.8311C150.921 12.6488 151.192 12.4049 151.425 12.0996L152.19 12.708C152.031 12.9495 151.828 13.1797 151.582 13.3984C151.336 13.6172 151.033 13.7949 150.673 13.9316C150.317 14.0684 149.896 14.1367 149.408 14.1367Z" fill="#636363"/>
<path d="M11.3015 7.93914L4.18555 6.68555V15.9487C4.18563 16.0493 4.20554 16.1489 4.24412 16.2419C4.28271 16.3348 4.33923 16.4192 4.41045 16.4903C4.48166 16.5614 4.56619 16.6178 4.65919 16.6562C4.7522 16.6947 4.85186 16.7144 4.95249 16.7143H17.2313C17.332 16.7146 17.4318 16.695 17.525 16.6566C17.6181 16.6182 17.7028 16.5619 17.7742 16.4908C17.8455 16.4197 17.9022 16.3352 17.9408 16.2422C17.9795 16.1491 17.9994 16.0494 17.9995 15.9487V12.5357L11.3015 7.93914Z" fill="#185C37"/>
<path d="M11.3015 2.69911e-07H4.95249C4.85186 -8.41884e-05 4.7522 0.0196531 4.65919 0.0580854C4.56619 0.0965176 4.48166 0.152892 4.41045 0.22399C4.33923 0.295088 4.28271 0.379517 4.24412 0.472457C4.20554 0.565396 4.18563 0.665026 4.18555 0.765658V4.17866L11.3015 8.35731L15.0693 9.61091L17.9995 8.35731V4.17866L11.3015 2.69911e-07Z" fill="#21A366"/>
<path d="M4.18555 4.17578H11.3015V8.35444H4.18555V4.17578Z" fill="#107C41"/>
<path opacity="0.1" d="M9.27836 3.3418H4.18555V13.7884H9.27836C9.48129 13.7874 9.67566 13.7065 9.81933 13.5632C9.96301 13.4199 10.0444 13.2257 10.0459 13.0228V4.10745C10.0444 3.90453 9.96301 3.71037 9.81933 3.56705C9.67566 3.42374 9.48129 3.34281 9.27836 3.3418Z" fill="black"/>
<path opacity="0.2" d="M8.85985 3.75977H4.18555V14.2064H8.85985C9.06279 14.2054 9.25715 14.1245 9.40083 13.9811C9.5445 13.8378 9.62592 13.6437 9.62744 13.4407V4.52542C9.62592 4.32249 9.5445 4.12834 9.40083 3.98502C9.25715 3.84171 9.06279 3.76077 8.85985 3.75977Z" fill="black"/>
<path opacity="0.2" d="M8.85985 3.75977H4.18555V13.3707H8.85985C9.06279 13.3697 9.25715 13.2887 9.40083 13.1454C9.5445 13.0021 9.62592 12.8079 9.62744 12.605V4.52542C9.62592 4.32249 9.5445 4.12834 9.40083 3.98502C9.25715 3.84171 9.06279 3.76077 8.85985 3.75977Z" fill="black"/>
<path opacity="0.2" d="M8.44135 3.75977H4.18555V13.3707H8.44135C8.64428 13.3697 8.83864 13.2887 8.98232 13.1454C9.12599 13.0021 9.20741 12.8079 9.20893 12.605V4.52542C9.20741 4.32249 9.12599 4.12834 8.98232 3.98502C8.83864 3.84171 8.64428 3.76077 8.44135 3.75977Z" fill="black"/>
<path d="M0.767587 3.75977H8.44217C8.64546 3.7596 8.84051 3.84015 8.98444 3.98372C9.12837 4.12729 9.20941 4.32213 9.20975 4.52542V12.1871C9.20941 12.3904 9.12837 12.5853 8.98444 12.7289C8.84051 12.8724 8.64546 12.953 8.44217 12.9528H0.767587C0.6669 12.953 0.567168 12.9333 0.47409 12.8949C0.381011 12.8565 0.296412 12.8001 0.225126 12.729C0.153841 12.6579 0.0972669 12.5735 0.0586385 12.4805C0.0200101 12.3875 8.43266e-05 12.2878 0 12.1871V4.52542C8.43266e-05 4.42474 0.0200101 4.32506 0.0586385 4.23207C0.0972669 4.13909 0.153841 4.05463 0.225126 3.98353C0.296412 3.91242 0.381011 3.85606 0.47409 3.81767C0.567168 3.77927 0.6669 3.7596 0.767587 3.75977Z" fill="url(#paint0_linear_14925_366260)"/>
<path d="M2.37891 10.8488L3.99315 8.3519L2.51455 5.86914H3.70193L4.50873 7.45896C4.58331 7.60939 4.63731 7.72125 4.66174 7.79582H4.67267C4.72538 7.67496 4.78131 7.5586 4.83981 7.44481L5.70254 5.87171H6.79542L5.27889 8.34033L6.83399 10.8507H5.67104L4.73888 9.10792C4.6956 9.03299 4.65882 8.95448 4.62895 8.87327H4.61352C4.58634 8.9524 4.5501 9.02812 4.50552 9.09892L3.54571 10.8488H2.37891Z" fill="white"/>
<path d="M17.2313 1.07919e-06H11.3008V4.17866H17.9988V0.765659C17.9988 0.664973 17.9788 0.56529 17.9402 0.472309C17.9016 0.379327 17.845 0.29487 17.7737 0.223763C17.7024 0.152657 17.6178 0.0962958 17.5248 0.0579015C17.4317 0.0195071 17.3319 -0.000167893 17.2313 1.07919e-06Z" fill="#33C481"/>
<path d="M11.3008 8.35938H17.9988V12.538H11.3008V8.35938Z" fill="#107C41"/>
<defs>
<linearGradient id="paint0_linear_14925_366260" x1="1.60332" y1="3.15804" x2="7.60644" y2="13.5545" gradientUnits="userSpaceOnUse">
<stop stop-color="#18884F"/>
<stop offset="0.5" stop-color="#117E43"/>
<stop offset="1" stop-color="#0B6631"/>
</linearGradient>
</defs>
</svg>
