<svg width="31" height="31" viewBox="0 0 31 31" fill="none" xmlns="http://www.w3.org/2000/svg">
<path d="M10.2493 22.7891L15.4993 17.5391L20.7493 22.7891L22.791 20.7474L17.541 15.4974L22.791 10.2474L20.7493 8.20573L15.4993 13.4557L10.2493 8.20573L8.20768 10.2474L13.4577 15.4974L8.20768 20.7474L10.2493 22.7891ZM15.4993 30.0807C13.482 30.0807 11.5862 29.6977 9.81185 28.9316C8.03754 28.1664 6.49414 27.1276 5.18164 25.8151C3.86914 24.5026 2.83032 22.9592 2.06518 21.1849C1.29907 19.4106 0.916016 17.5148 0.916016 15.4974C0.916016 13.48 1.29907 11.5842 2.06518 9.8099C2.83032 8.03559 3.86914 6.49219 5.18164 5.17969C6.49414 3.86719 8.03754 2.82788 9.81185 2.06177C11.5862 1.29663 13.482 0.914062 15.4993 0.914062C17.5167 0.914062 19.4125 1.29663 21.1868 2.06177C22.9612 2.82788 24.5046 3.86719 25.8171 5.17969C27.1296 6.49219 28.1684 8.03559 28.9335 9.8099C29.6996 11.5842 30.0827 13.48 30.0827 15.4974C30.0827 17.5148 29.6996 19.4106 28.9335 21.1849C28.1684 22.9592 27.1296 24.5026 25.8171 25.8151C24.5046 27.1276 22.9612 28.1664 21.1868 28.9316C19.4125 29.6977 17.5167 30.0807 15.4993 30.0807ZM15.4993 27.1641C18.7563 27.1641 21.515 26.0339 23.7754 23.7734C26.0358 21.513 27.166 18.7543 27.166 15.4974C27.166 12.2405 26.0358 9.48177 23.7754 7.22135C21.515 4.96094 18.7563 3.83073 15.4993 3.83073C12.2424 3.83073 9.48372 4.96094 7.22331 7.22135C4.96289 9.48177 3.83268 12.2405 3.83268 15.4974C3.83268 18.7543 4.96289 21.513 7.22331 23.7734C9.48372 26.0339 12.2424 27.1641 15.4993 27.1641Z" fill="#CF2A2A"/>
</svg>
