<svg width="30" height="31" viewBox="0 0 30 31" fill="none" xmlns="http://www.w3.org/2000/svg">
<path d="M17.1429 28.4188C17.1431 28.7383 17.2365 29.0525 17.4145 29.3315C17.5924 29.6105 17.8488 29.8451 18.1594 30.0131C18.47 30.181 18.8245 30.2767 19.1893 30.2911C19.5541 30.3054 19.917 30.238 20.2436 30.0952L28.815 26.345C29.1709 26.1893 29.4702 25.9501 29.6795 25.654C29.8888 25.3579 29.9998 25.0167 30 24.6686V13.8604C29.9998 13.5409 29.9063 13.2267 29.7284 12.9477C29.5505 12.6687 29.2941 12.4341 28.9834 12.2662C28.6728 12.0982 28.3183 12.0025 27.9536 11.9881C27.5888 11.9738 27.2259 12.0412 26.8993 12.184L18.3279 15.9343C17.972 16.0899 17.6726 16.3291 17.4633 16.6252C17.254 16.9213 17.1431 17.2625 17.1429 17.6106V28.4188ZM26.1664 8.31C26.5219 8.15411 26.8208 7.91474 27.0296 7.61869C27.2385 7.32264 27.3491 6.98157 27.3491 6.63364C27.3491 6.28571 27.2385 5.94464 27.0296 5.64859C26.8208 5.35254 26.5219 5.11317 26.1664 4.95728L15.9579 0.49073C15.6604 0.360675 15.3325 0.292969 15 0.292969C14.6675 0.292969 14.3396 0.360675 14.0421 0.49073L3.83357 4.95728C3.47811 5.11317 3.17923 5.35254 2.97035 5.64859C2.76148 5.94464 2.65086 6.28571 2.65086 6.63364C2.65086 6.98157 2.76148 7.32264 2.97035 7.61869C3.17923 7.91474 3.47811 8.15411 3.83357 8.31L14.0421 12.7766C14.3396 12.9066 14.6675 12.9743 15 12.9743C15.3325 12.9743 15.6604 12.9066 15.9579 12.7766L26.1664 8.31ZM3.10071 12.184C2.7741 12.0412 2.4112 11.9738 2.04644 11.9881C1.68169 12.0025 1.32718 12.0982 1.01656 12.2662C0.705938 12.4341 0.449505 12.6687 0.271594 12.9477C0.0936833 13.2267 0.000194934 13.5409 0 13.8604V24.6686C0.000212461 25.0167 0.111178 25.3579 0.320469 25.654C0.52976 25.9501 0.829112 26.1893 1.185 26.345L9.75643 30.0952C10.083 30.238 10.4459 30.3054 10.8107 30.2911C11.1755 30.2767 11.53 30.181 11.8406 30.0131C12.1512 29.8451 12.4076 29.6105 12.5855 29.3315C12.7635 29.0525 12.8569 28.7383 12.8571 28.4188V17.6106C12.8569 17.2625 12.746 16.9213 12.5367 16.6252C12.3274 16.3291 12.028 16.0899 11.6721 15.9343L3.10071 12.184Z" fill="#636363"/>
</svg>
