<svg width="116" height="13" viewBox="0 0 116 13" fill="none" xmlns="http://www.w3.org/2000/svg">
<path d="M7.60938 8.22656H9.94531C9.89844 8.99219 9.6875 9.67188 9.3125 10.2656C8.94271 10.8594 8.42448 11.3229 7.75781 11.6562C7.09635 11.9896 6.29948 12.1562 5.36719 12.1562C4.63802 12.1562 3.98438 12.0312 3.40625 11.7812C2.82812 11.526 2.33333 11.1615 1.92188 10.6875C1.51562 10.2135 1.20573 9.64062 0.992188 8.96875C0.778646 8.29688 0.671875 7.54427 0.671875 6.71094V5.92188C0.671875 5.08854 0.78125 4.33594 1 3.66406C1.22396 2.98698 1.54167 2.41146 1.95312 1.9375C2.36979 1.46354 2.86719 1.09896 3.44531 0.84375C4.02344 0.588542 4.66927 0.460938 5.38281 0.460938C6.33073 0.460938 7.13021 0.632812 7.78125 0.976562C8.4375 1.32031 8.94531 1.79427 9.30469 2.39844C9.66927 3.0026 9.88802 3.6901 9.96094 4.46094H7.61719C7.59115 4.0026 7.5 3.61458 7.34375 3.29688C7.1875 2.97396 6.95052 2.73177 6.63281 2.57031C6.32031 2.40365 5.90365 2.32031 5.38281 2.32031C4.99219 2.32031 4.65104 2.39323 4.35938 2.53906C4.06771 2.6849 3.82292 2.90625 3.625 3.20312C3.42708 3.5 3.27865 3.875 3.17969 4.32812C3.08594 4.77604 3.03906 5.30208 3.03906 5.90625V6.71094C3.03906 7.29948 3.08333 7.81771 3.17188 8.26562C3.26042 8.70833 3.39583 9.08333 3.57812 9.39062C3.76562 9.69271 4.00521 9.92188 4.29688 10.0781C4.59375 10.2292 4.95052 10.3047 5.36719 10.3047C5.85677 10.3047 6.26042 10.2266 6.57812 10.0703C6.89583 9.91406 7.13802 9.68229 7.30469 9.375C7.47656 9.06771 7.57812 8.6849 7.60938 8.22656ZM17.7656 0.625H20.1016V8.14062C20.1016 9.01562 19.9141 9.7526 19.5391 10.3516C19.1693 10.9505 18.6562 11.401 18 11.7031C17.349 12.0052 16.599 12.1562 15.75 12.1562C14.901 12.1562 14.1458 12.0052 13.4844 11.7031C12.8281 11.401 12.3125 10.9505 11.9375 10.3516C11.5677 9.7526 11.3828 9.01562 11.3828 8.14062V0.625H13.7266V8.14062C13.7266 8.65104 13.8073 9.06771 13.9688 9.39062C14.1302 9.71354 14.362 9.95052 14.6641 10.1016C14.9714 10.2526 15.3333 10.3281 15.75 10.3281C16.1771 10.3281 16.5391 10.2526 16.8359 10.1016C17.138 9.95052 17.3672 9.71354 17.5234 9.39062C17.6849 9.06771 17.7656 8.65104 17.7656 8.14062V0.625ZM27.9531 9.02344C27.9531 8.82031 27.9219 8.63802 27.8594 8.47656C27.8021 8.3099 27.6927 8.15885 27.5312 8.02344C27.3698 7.88281 27.1432 7.74479 26.8516 7.60938C26.5599 7.47396 26.1823 7.33333 25.7188 7.1875C25.2031 7.02083 24.7135 6.83333 24.25 6.625C23.7917 6.41667 23.3854 6.17448 23.0312 5.89844C22.6823 5.61719 22.4062 5.29167 22.2031 4.92188C22.0052 4.55208 21.9062 4.1224 21.9062 3.63281C21.9062 3.15885 22.0104 2.72917 22.2188 2.34375C22.4271 1.95312 22.7188 1.61979 23.0938 1.34375C23.4688 1.0625 23.9115 0.846354 24.4219 0.695312C24.9375 0.544271 25.5026 0.46875 26.1172 0.46875C26.9557 0.46875 27.6875 0.619792 28.3125 0.921875C28.9375 1.22396 29.4219 1.63802 29.7656 2.16406C30.1146 2.6901 30.2891 3.29167 30.2891 3.96875H27.9609C27.9609 3.63542 27.8906 3.34375 27.75 3.09375C27.6146 2.83854 27.4062 2.63802 27.125 2.49219C26.849 2.34635 26.5 2.27344 26.0781 2.27344C25.6719 2.27344 25.3333 2.33594 25.0625 2.46094C24.7917 2.58073 24.5885 2.74479 24.4531 2.95312C24.3177 3.15625 24.25 3.38542 24.25 3.64062C24.25 3.83333 24.2969 4.00781 24.3906 4.16406C24.4896 4.32031 24.6354 4.46615 24.8281 4.60156C25.0208 4.73698 25.2578 4.86458 25.5391 4.98438C25.8203 5.10417 26.1458 5.22135 26.5156 5.33594C27.1354 5.52344 27.6797 5.73438 28.1484 5.96875C28.6224 6.20312 29.0182 6.46615 29.3359 6.75781C29.6536 7.04948 29.8932 7.38021 30.0547 7.75C30.2161 8.11979 30.2969 8.53906 30.2969 9.00781C30.2969 9.5026 30.2005 9.94531 30.0078 10.3359C29.8151 10.7266 29.5365 11.0573 29.1719 11.3281C28.8073 11.599 28.3724 11.8047 27.8672 11.9453C27.362 12.0859 26.7969 12.1562 26.1719 12.1562C25.6094 12.1562 25.0547 12.0833 24.5078 11.9375C23.9609 11.7865 23.4635 11.5599 23.0156 11.2578C22.5729 10.9557 22.2188 10.5703 21.9531 10.1016C21.6875 9.63281 21.5547 9.07812 21.5547 8.4375H23.9062C23.9062 8.79167 23.9609 9.09115 24.0703 9.33594C24.1797 9.58073 24.3333 9.77865 24.5312 9.92969C24.7344 10.0807 24.974 10.1901 25.25 10.2578C25.5312 10.3255 25.8385 10.3594 26.1719 10.3594C26.5781 10.3594 26.9115 10.3021 27.1719 10.1875C27.4375 10.0729 27.6328 9.91406 27.7578 9.71094C27.888 9.50781 27.9531 9.27865 27.9531 9.02344ZM36.9766 0.625V12H34.6406V0.625H36.9766ZM40.4766 0.625V2.46094H31.1953V0.625H40.4766ZM50.9375 6.04688V6.58594C50.9375 7.45052 50.8203 8.22656 50.5859 8.91406C50.3516 9.60156 50.0208 10.1875 49.5938 10.6719C49.1667 11.151 48.6562 11.5182 48.0625 11.7734C47.474 12.0286 46.8203 12.1562 46.1016 12.1562C45.388 12.1562 44.7344 12.0286 44.1406 11.7734C43.5521 11.5182 43.0417 11.151 42.6094 10.6719C42.1771 10.1875 41.8411 9.60156 41.6016 8.91406C41.3672 8.22656 41.25 7.45052 41.25 6.58594V6.04688C41.25 5.17708 41.3672 4.40104 41.6016 3.71875C41.8359 3.03125 42.1667 2.44531 42.5938 1.96094C43.026 1.47656 43.5365 1.10677 44.125 0.851562C44.7188 0.596354 45.3724 0.46875 46.0859 0.46875C46.8047 0.46875 47.4583 0.596354 48.0469 0.851562C48.6406 1.10677 49.151 1.47656 49.5781 1.96094C50.0104 2.44531 50.3438 3.03125 50.5781 3.71875C50.8177 4.40104 50.9375 5.17708 50.9375 6.04688ZM48.5703 6.58594V6.03125C48.5703 5.42708 48.5156 4.89583 48.4062 4.4375C48.2969 3.97917 48.1354 3.59375 47.9219 3.28125C47.7083 2.96875 47.4479 2.73438 47.1406 2.57812C46.8333 2.41667 46.4818 2.33594 46.0859 2.33594C45.6901 2.33594 45.3385 2.41667 45.0312 2.57812C44.7292 2.73438 44.4714 2.96875 44.2578 3.28125C44.0495 3.59375 43.8906 3.97917 43.7812 4.4375C43.6719 4.89583 43.6172 5.42708 43.6172 6.03125V6.58594C43.6172 7.1849 43.6719 7.71615 43.7812 8.17969C43.8906 8.63802 44.0521 9.02604 44.2656 9.34375C44.4792 9.65625 44.7396 9.89323 45.0469 10.0547C45.3542 10.2161 45.7057 10.2969 46.1016 10.2969C46.4974 10.2969 46.849 10.2161 47.1562 10.0547C47.4635 9.89323 47.7214 9.65625 47.9297 9.34375C48.138 9.02604 48.2969 8.63802 48.4062 8.17969C48.5156 7.71615 48.5703 7.1849 48.5703 6.58594ZM53.6953 0.625H55.6797L58.6016 8.97656L61.5234 0.625H63.5078L59.3984 12H57.8047L53.6953 0.625ZM52.625 0.625H54.6016L54.9609 8.76562V12H52.625V0.625ZM62.6016 0.625H64.5859V12H62.2422V8.76562L62.6016 0.625ZM74.2734 10.1719V12H68.2188V10.1719H74.2734ZM68.9844 0.625V12H66.6406V0.625H68.9844ZM73.4844 5.25781V7.03906H68.2188V5.25781H73.4844ZM74.2656 0.625V2.46094H68.2188V0.625H74.2656ZM75.6406 0.625H79.8828C80.7526 0.625 81.5 0.755208 82.125 1.01562C82.7552 1.27604 83.2396 1.66146 83.5781 2.17188C83.9167 2.68229 84.0859 3.3099 84.0859 4.05469C84.0859 4.66406 83.9818 5.1875 83.7734 5.625C83.5703 6.05729 83.2812 6.41927 82.9062 6.71094C82.5365 6.9974 82.1016 7.22656 81.6016 7.39844L80.8594 7.78906H77.1719L77.1562 5.96094H79.8984C80.3099 5.96094 80.651 5.88802 80.9219 5.74219C81.1927 5.59635 81.3958 5.39323 81.5312 5.13281C81.6719 4.8724 81.7422 4.57031 81.7422 4.22656C81.7422 3.86198 81.6745 3.54688 81.5391 3.28125C81.4036 3.01562 81.1979 2.8125 80.9219 2.67188C80.6458 2.53125 80.2995 2.46094 79.8828 2.46094H77.9844V12H75.6406V0.625ZM82 12L79.4062 6.92969L81.8828 6.91406L84.5078 11.8906V12H82ZM91.9453 5.33594H93.1484C93.5339 5.33594 93.8516 5.27083 94.1016 5.14062C94.3516 5.00521 94.5365 4.81771 94.6562 4.57812C94.7812 4.33333 94.8438 4.04948 94.8438 3.72656C94.8438 3.4349 94.7865 3.17708 94.6719 2.95312C94.5625 2.72396 94.3932 2.54688 94.1641 2.42188C93.9349 2.29167 93.6458 2.22656 93.2969 2.22656C93.0208 2.22656 92.7656 2.28125 92.5312 2.39062C92.2969 2.5 92.1094 2.65365 91.9688 2.85156C91.8281 3.04948 91.7578 3.28906 91.7578 3.57031H89.5C89.5 2.94531 89.6667 2.40104 90 1.9375C90.3385 1.47396 90.7917 1.11198 91.3594 0.851562C91.9271 0.591146 92.5521 0.460938 93.2344 0.460938C94.0052 0.460938 94.6797 0.585938 95.2578 0.835938C95.8359 1.08073 96.2865 1.44271 96.6094 1.92188C96.9323 2.40104 97.0938 2.99479 97.0938 3.70312C97.0938 4.0625 97.0104 4.41146 96.8438 4.75C96.6771 5.08333 96.4375 5.38542 96.125 5.65625C95.8177 5.92188 95.4427 6.13542 95 6.29688C94.5573 6.45312 94.0599 6.53125 93.5078 6.53125H91.9453V5.33594ZM91.9453 7.04688V5.88281H93.5078C94.1276 5.88281 94.6719 5.95312 95.1406 6.09375C95.6094 6.23438 96.0026 6.4375 96.3203 6.70312C96.638 6.96354 96.8776 7.27344 97.0391 7.63281C97.2005 7.98698 97.2812 8.38021 97.2812 8.8125C97.2812 9.34375 97.1797 9.81771 96.9766 10.2344C96.7734 10.6458 96.487 10.9948 96.1172 11.2812C95.7526 11.5677 95.3255 11.7865 94.8359 11.9375C94.3464 12.0833 93.8125 12.1562 93.2344 12.1562C92.7552 12.1562 92.2839 12.0911 91.8203 11.9609C91.362 11.8255 90.9453 11.625 90.5703 11.3594C90.2005 11.0885 89.9036 10.75 89.6797 10.3438C89.4609 9.93229 89.3516 9.44531 89.3516 8.88281H91.6094C91.6094 9.17448 91.6823 9.4349 91.8281 9.66406C91.974 9.89323 92.1745 10.0729 92.4297 10.2031C92.6901 10.3333 92.9792 10.3984 93.2969 10.3984C93.6562 10.3984 93.9635 10.3333 94.2188 10.2031C94.4792 10.0677 94.6771 9.88021 94.8125 9.64062C94.9531 9.39583 95.0234 9.11198 95.0234 8.78906C95.0234 8.3724 94.9479 8.03906 94.7969 7.78906C94.6458 7.53385 94.4297 7.34635 94.1484 7.22656C93.8672 7.10677 93.5339 7.04688 93.1484 7.04688H91.9453ZM104.633 0.507812H104.961V2.30469H104.828C104.234 2.30469 103.706 2.39323 103.242 2.57031C102.779 2.7474 102.385 3 102.062 3.32812C101.745 3.65104 101.5 4.04167 101.328 4.5C101.161 4.95833 101.078 5.47135 101.078 6.03906V7.92969C101.078 8.33594 101.117 8.69531 101.195 9.00781C101.279 9.3151 101.396 9.57292 101.547 9.78125C101.703 9.98438 101.885 10.138 102.094 10.2422C102.302 10.3411 102.536 10.3906 102.797 10.3906C103.042 10.3906 103.263 10.3385 103.461 10.2344C103.664 10.1302 103.836 9.98438 103.977 9.79688C104.122 9.60417 104.232 9.38021 104.305 9.125C104.383 8.86458 104.422 8.58073 104.422 8.27344C104.422 7.96615 104.383 7.68229 104.305 7.42188C104.232 7.16146 104.122 6.9375 103.977 6.75C103.831 6.55729 103.654 6.40885 103.445 6.30469C103.237 6.20052 103.003 6.14844 102.742 6.14844C102.388 6.14844 102.076 6.23177 101.805 6.39844C101.539 6.5599 101.331 6.76823 101.18 7.02344C101.029 7.27865 100.948 7.54688 100.938 7.82812L100.258 7.39062C100.273 6.98958 100.357 6.60938 100.508 6.25C100.664 5.89062 100.878 5.57292 101.148 5.29688C101.424 5.01562 101.755 4.79688 102.141 4.64062C102.526 4.47917 102.961 4.39844 103.445 4.39844C103.977 4.39844 104.443 4.5 104.844 4.70312C105.25 4.90625 105.589 5.1849 105.859 5.53906C106.13 5.89323 106.333 6.30208 106.469 6.76562C106.604 7.22917 106.672 7.72396 106.672 8.25C106.672 8.80208 106.581 9.3151 106.398 9.78906C106.221 10.263 105.964 10.6771 105.625 11.0312C105.292 11.3854 104.891 11.6615 104.422 11.8594C103.953 12.0573 103.427 12.1562 102.844 12.1562C102.24 12.1562 101.69 12.0469 101.195 11.8281C100.706 11.6042 100.284 11.2917 99.9297 10.8906C99.5755 10.4896 99.3021 10.013 99.1094 9.46094C98.9219 8.90885 98.8281 8.30469 98.8281 7.64844V6.77344C98.8281 5.85677 98.9609 5.01823 99.2266 4.25781C99.4974 3.49219 99.8854 2.83073 100.391 2.27344C100.896 1.71094 101.505 1.27604 102.219 0.96875C102.932 0.661458 103.737 0.507812 104.633 0.507812ZM115.672 5.3125V7.28125C115.672 8.13542 115.581 8.8724 115.398 9.49219C115.216 10.1068 114.953 10.612 114.609 11.0078C114.271 11.3984 113.867 11.6875 113.398 11.875C112.93 12.0625 112.409 12.1562 111.836 12.1562C111.378 12.1562 110.951 12.099 110.555 11.9844C110.159 11.8646 109.802 11.6797 109.484 11.4297C109.172 11.1797 108.901 10.8646 108.672 10.4844C108.448 10.099 108.276 9.64062 108.156 9.10938C108.036 8.57812 107.977 7.96875 107.977 7.28125V5.3125C107.977 4.45833 108.068 3.72656 108.25 3.11719C108.438 2.5026 108.701 2 109.039 1.60938C109.383 1.21875 109.789 0.932292 110.258 0.75C110.727 0.5625 111.247 0.46875 111.82 0.46875C112.279 0.46875 112.703 0.528646 113.094 0.648438C113.49 0.763021 113.846 0.942708 114.164 1.1875C114.482 1.43229 114.753 1.7474 114.977 2.13281C115.201 2.51302 115.372 2.96875 115.492 3.5C115.612 4.02604 115.672 4.63021 115.672 5.3125ZM113.414 7.57812V5.00781C113.414 4.59635 113.391 4.23698 113.344 3.92969C113.302 3.6224 113.237 3.36198 113.148 3.14844C113.06 2.92969 112.951 2.7526 112.82 2.61719C112.69 2.48177 112.542 2.38281 112.375 2.32031C112.208 2.25781 112.023 2.22656 111.82 2.22656C111.565 2.22656 111.339 2.27604 111.141 2.375C110.948 2.47396 110.784 2.63281 110.648 2.85156C110.513 3.0651 110.409 3.35156 110.336 3.71094C110.268 4.0651 110.234 4.4974 110.234 5.00781V7.57812C110.234 7.98958 110.255 8.35156 110.297 8.66406C110.344 8.97656 110.411 9.24479 110.5 9.46875C110.594 9.6875 110.703 9.86719 110.828 10.0078C110.958 10.1432 111.107 10.2422 111.273 10.3047C111.445 10.3672 111.633 10.3984 111.836 10.3984C112.086 10.3984 112.307 10.349 112.5 10.25C112.698 10.1458 112.865 9.98438 113 9.76562C113.141 9.54167 113.245 9.25 113.312 8.89062C113.38 8.53125 113.414 8.09375 113.414 7.57812Z" fill="#636363"/>
</svg>
