<svg width="23" height="24" viewBox="0 0 23 24" fill="none" xmlns="http://www.w3.org/2000/svg">
<path d="M3.83333 8.3667H5.51042M5.51042 8.3667C5.95521 8.3667 6.38178 8.54816 6.69629 8.87118C7.01081 9.19419 7.1875 9.63229 7.1875 10.0891C7.1875 10.5459 7.01081 10.984 6.69629 11.307C6.38178 11.63 5.95521 11.8115 5.51042 11.8115H2.875M5.51042 8.3667C5.95521 8.3667 6.38178 8.18523 6.69629 7.86221C7.01081 7.5392 7.1875 7.1011 7.1875 6.64429C7.1875 6.18747 7.01081 5.74937 6.69629 5.42636C6.38178 5.10334 5.95521 4.92188 5.51042 4.92188H2.875M20.125 14.7642C20.125 18.026 16.2629 20.6696 11.5 20.6696C6.73708 20.6696 2.875 18.026 2.875 14.7642M13.4167 4.92188H12.4583C11.6958 4.92188 10.9646 5.23296 10.4254 5.7867C9.88623 6.34044 9.58333 7.09147 9.58333 7.87458V9.84305M13.8958 9.35093V9.84305C13.8958 10.3651 13.6939 10.8658 13.3345 11.235C12.975 11.6041 12.4875 11.8115 11.9792 11.8115H11.5C10.9917 11.8115 10.5042 11.6041 10.1447 11.235C9.78527 10.8658 9.58333 10.3651 9.58333 9.84305V9.35093C9.58333 8.82886 9.78527 8.32817 10.1447 7.95901C10.5042 7.58985 10.9917 7.38246 11.5 7.38246H11.9792C12.4875 7.38246 12.975 7.58985 13.3345 7.95901C13.6939 8.32817 13.8958 8.82886 13.8958 9.35093ZM16.2917 8.3667V6.89034C16.2917 6.36827 16.4936 5.86759 16.853 5.49843C17.2125 5.12927 17.7 4.92188 18.2083 4.92188H18.6875C19.1958 4.92188 19.6833 5.12927 20.0428 5.49843C20.4022 5.86759 20.6042 6.36827 20.6042 6.89034V9.84305C20.6042 10.3651 20.4022 10.8658 20.0428 11.235C19.6833 11.6041 19.1958 11.8115 18.6875 11.8115H18.2083C17.7 11.8115 17.2125 11.6041 16.853 11.235C16.4936 10.8658 16.2917 10.3651 16.2917 9.84305V8.3667Z" stroke="#3FA2F7" stroke-width="2" stroke-linecap="round" stroke-linejoin="round"/>
</svg>
