<svg width="19" height="22" viewBox="0 0 19 22" fill="none" xmlns="http://www.w3.org/2000/svg">
<path d="M9.25 0.738281C10.0801 0.738226 10.8788 1.05913 11.4822 1.63517C12.0856 2.2112 12.448 2.9987 12.495 3.83611L12.5 4.02202H17.75C17.94 4.02208 18.1229 4.09501 18.2618 4.22609C18.4006 4.35716 18.4851 4.5366 18.498 4.72815C18.511 4.9197 18.4515 5.10908 18.3316 5.25802C18.2116 5.40695 18.0402 5.50435 17.852 5.53052L17.75 5.53759H16.954L15.674 18.6927C15.6099 19.3486 15.3171 19.96 14.848 20.4179C14.3789 20.8758 13.7639 21.1503 13.113 21.1924L12.937 21.1985H5.563C4.91046 21.1985 4.27919 20.964 3.78201 20.537C3.28482 20.11 2.95412 19.5182 2.849 18.8675L2.826 18.6917L1.545 5.53759H0.75C0.568762 5.53758 0.393658 5.47126 0.257069 5.3509C0.120481 5.23054 0.0316483 5.06428 0.00699997 4.88286L0 4.7798C7.6429e-06 4.59668 0.0656426 4.41976 0.184767 4.28176C0.303891 4.14375 0.468446 4.054 0.648 4.02909L0.75 4.02202H6C6 3.15112 6.34241 2.31589 6.9519 1.70007C7.5614 1.08425 8.38805 0.738281 9.25 0.738281ZM15.447 5.53759H3.052L4.319 18.5432C4.34705 18.8334 4.47362 19.1049 4.67722 19.3115C4.88082 19.5181 5.14891 19.6472 5.436 19.6769L5.563 19.6829H12.937C13.537 19.6829 14.046 19.2535 14.162 18.6705L14.182 18.5432L15.446 5.53759H15.447ZM11 8.31614C11.1812 8.31614 11.3563 8.38246 11.4929 8.50282C11.6295 8.62318 11.7184 8.78944 11.743 8.97086L11.75 9.07392V16.1466C11.7499 16.3386 11.6778 16.5234 11.548 16.6637C11.4183 16.804 11.2407 16.8893 11.0511 16.9024C10.8615 16.9155 10.6741 16.8554 10.5267 16.7342C10.3793 16.613 10.2829 16.4398 10.257 16.2496L10.25 16.1466V9.07392C10.25 8.87294 10.329 8.6802 10.4697 8.53809C10.6103 8.39597 10.8011 8.31614 11 8.31614ZM7.5 8.31614C7.68124 8.31614 7.85634 8.38246 7.99293 8.50282C8.12952 8.62318 8.21835 8.78944 8.243 8.97086L8.25 9.07392V16.1466C8.24994 16.3386 8.17775 16.5234 8.04803 16.6637C7.9183 16.804 7.7407 16.8893 7.55112 16.9024C7.36154 16.9155 7.17411 16.8554 7.0267 16.7342C6.87929 16.613 6.7829 16.4398 6.757 16.2496L6.75 16.1466V9.07392C6.75 8.87294 6.82902 8.6802 6.96967 8.53809C7.11032 8.39597 7.30109 8.31614 7.5 8.31614ZM9.25 2.25385C8.81081 2.25387 8.38768 2.42074 8.06461 2.72133C7.74153 3.02193 7.54214 3.43428 7.506 3.87652L7.5 4.02202H11C11 3.55307 10.8156 3.10333 10.4874 2.77174C10.1592 2.44014 9.71413 2.25385 9.25 2.25385Z" fill="#96989A"/>
</svg>
