<svg width="19" height="20" viewBox="0 0 19 20" fill="none" xmlns="http://www.w3.org/2000/svg">
<path d="M9.5 0.34375C4.275 0.34375 0 4.61875 0 9.84375C0 15.0687 4.275 19.3438 9.5 19.3438C14.725 19.3438 19 15.0687 19 9.84375C19 4.61875 14.725 0.34375 9.5 0.34375ZM9.5 2.45486C11.1361 2.45486 12.6667 3.03542 13.9333 3.93264L3.58889 14.2771C2.69167 13.0104 2.11111 11.4799 2.11111 9.84375C2.11111 5.77986 5.43611 2.45486 9.5 2.45486ZM9.5 17.2326C7.86389 17.2326 6.33333 16.6521 5.06667 15.7549L15.4111 5.41042C16.3083 6.67708 16.8889 8.20764 16.8889 9.84375C16.8889 13.9076 13.5639 17.2326 9.5 17.2326Z" fill="#D50000"/>
</svg>
