<svg width="19" height="19" viewBox="0 0 19 19" fill="none" xmlns="http://www.w3.org/2000/svg">
<path d="M9.5 0C4.275 0 0 4.275 0 9.5C0 14.725 4.275 19 9.5 19C14.725 19 19 14.725 19 9.5C19 4.275 14.725 0 9.5 0ZM9.5 2.11111C11.1361 2.11111 12.6667 2.69167 13.9333 3.58889L3.58889 13.9333C2.69167 12.6667 2.11111 11.1361 2.11111 9.5C2.11111 5.43611 5.43611 2.11111 9.5 2.11111ZM9.5 16.8889C7.86389 16.8889 6.33333 16.3083 5.06667 15.4111L15.4111 5.06667C16.3083 6.33333 16.8889 7.86389 16.8889 9.5C16.8889 13.5639 13.5639 16.8889 9.5 16.8889Z" fill="#D50000"/>
</svg>
