<svg width="10" height="12" viewBox="0 0 10 12" fill="none" xmlns="http://www.w3.org/2000/svg">
<path d="M8.75245 10.4663H0.585785C0.431075 10.4663 0.282702 10.5278 0.173306 10.6372C0.06391 10.7466 0.00245172 10.8949 0.00245172 11.0496C0.00245172 11.2043 0.06391 11.3527 0.173306 11.4621C0.282702 11.5715 0.431075 11.633 0.585785 11.633H8.75245C8.90716 11.633 9.05554 11.5715 9.16493 11.4621C9.27433 11.3527 9.33579 11.2043 9.33579 11.0496C9.33579 10.8949 9.27433 10.7466 9.16493 10.6372C9.05554 10.5278 8.90716 10.4663 8.75245 10.4663ZM0.585785 9.29964H0.638285L3.07079 9.07797C3.33725 9.05143 3.58647 8.93403 3.77662 8.74547L9.02662 3.49547C9.23039 3.2802 9.34051 2.99294 9.33286 2.69662C9.3252 2.4003 9.2004 2.1191 8.98579 1.91464L7.38745 0.316307C7.17885 0.120363 6.9055 0.00793307 6.61939 0.000404109C6.33329 -0.00712485 6.05441 0.0907726 5.83579 0.275474L0.585785 5.52547C0.397232 5.71562 0.279829 5.96484 0.253285 6.23131L0.00245172 8.66381C-0.00540638 8.74925 0.00568008 8.83537 0.0349208 8.91603C0.0641614 8.9967 0.110836 9.06991 0.171618 9.13047C0.226125 9.18454 0.290768 9.22731 0.36184 9.25634C0.432912 9.28537 0.509015 9.30008 0.585785 9.29964ZM6.57662 1.13297L8.16912 2.72547L7.00245 3.86297L5.43912 2.29964L6.57662 1.13297Z" fill="#CF2A2A"/>
</svg>
