<svg width="19" height="19" viewBox="0 0 19 19" fill="none" xmlns="http://www.w3.org/2000/svg">
<path d="M15.988 0.0117188L18.988 3.01172L16.701 5.29972L13.701 2.29972L15.988 0.0117188ZM5 13.9997H8L15.287 6.71272L12.287 3.71272L5 10.9997V13.9997Z" fill="#D5A62F"/>
<path d="M16 16.9997H5.158C5.132 16.9997 5.105 17.0097 5.079 17.0097C5.046 17.0097 5.013 17.0007 4.979 16.9997H2V2.99972H8.847L10.847 0.999719H2C0.897 0.999719 0 1.89572 0 2.99972V16.9997C0 18.1037 0.897 18.9997 2 18.9997H16C16.5304 18.9997 17.0391 18.789 17.4142 18.4139C17.7893 18.0389 18 17.5302 18 16.9997V8.33172L16 10.3317V16.9997Z" fill="#D5A62F"/>
</svg>
