<svg width="19" height="20" viewBox="0 0 19 20" fill="none" xmlns="http://www.w3.org/2000/svg">
<path d="M9.5 0.988281C7.62108 0.988281 5.78435 1.54545 4.22209 2.58932C2.65982 3.63319 1.44218 5.11689 0.723149 6.85279C0.0041162 8.58869 -0.184015 10.4988 0.182544 12.3416C0.549104 14.1845 1.45389 15.8772 2.78249 17.2058C4.11109 18.5344 5.80383 19.4392 7.64665 19.8057C9.48946 20.1723 11.3996 19.9842 13.1355 19.2651C14.8714 18.5461 16.3551 17.3285 17.399 15.7662C18.4428 14.2039 19 12.3672 19 10.4883C19 7.96872 17.9991 5.55236 16.2175 3.77077C14.4359 1.98917 12.0196 0.988281 9.5 0.988281ZM14.5533 11.0956L6.41047 15.167C6.30699 15.2187 6.19201 15.2431 6.07645 15.2379C5.96088 15.2327 5.84858 15.198 5.7502 15.1371C5.65182 15.0763 5.57062 14.9913 5.51433 14.8902C5.45804 14.7892 5.42852 14.6754 5.42858 14.5597V6.41685C5.42864 6.30123 5.45824 6.18754 5.51458 6.08657C5.57092 5.9856 5.65212 5.90071 5.75049 5.83993C5.84885 5.77916 5.96111 5.74453 6.07662 5.73933C6.19212 5.73413 6.30704 5.75853 6.41047 5.81021L14.5533 9.88164C14.6659 9.93805 14.7605 10.0247 14.8267 10.1318C14.8928 10.2389 14.9278 10.3624 14.9278 10.4883C14.9278 10.6142 14.8928 10.7376 14.8267 10.8448C14.7605 10.9519 14.6659 11.0385 14.5533 11.0949V11.0956Z" fill="#2FB755"/>
</svg>
