<svg width="81" height="80" viewBox="0 0 81 80" fill="none" xmlns="http://www.w3.org/2000/svg">
<path fill-rule="evenodd" clip-rule="evenodd" d="M40.8984 80C63.0318 80 80.8984 62.1333 80.8984 40C80.8984 17.8667 63.0318 0 40.8984 0C18.7651 0 0.898438 17.8667 0.898438 40C0.898438 62.1333 18.7651 80 40.8984 80ZM37.0916 46.9993V18.1818H44.8153V46.9993H37.0916ZM45.2681 54.4567C45.2681 55.6108 44.8864 56.5607 44.1229 57.3065C43.3416 58.0522 42.2852 58.4251 40.9535 58.4251C39.6396 58.4251 38.592 58.0522 37.8107 57.3065C37.0295 56.5607 36.6388 55.6108 36.6388 54.4567C36.6388 53.2848 37.0383 52.326 37.8374 51.5803C38.6186 50.8345 39.6573 50.4616 40.9535 50.4616C42.2496 50.4616 43.2972 50.8345 44.0962 51.5803C44.8775 52.326 45.2681 53.2848 45.2681 54.4567Z" fill="#D5A62F"/>
</svg>
