<svg width="21" height="14" viewBox="0 0 21 14" fill="none" xmlns="http://www.w3.org/2000/svg">
<path d="M10.5 2.91667C10.1136 2.92271 9.73003 2.98409 9.36104 3.09896C9.53172 3.39913 9.6226 3.73804 9.625 4.08333C9.625 4.35145 9.57219 4.61694 9.46959 4.86465C9.36698 5.11235 9.21659 5.33742 9.02701 5.52701C8.83742 5.7166 8.61235 5.86698 8.36464 5.96959C8.11693 6.07219 7.85144 6.125 7.58333 6.125C7.23803 6.1226 6.89912 6.03172 6.59895 5.86104C6.36213 6.68237 6.38973 7.5574 6.67785 8.36217C6.96596 9.16694 7.49999 9.86066 8.20428 10.3451C8.90856 10.8295 9.74741 11.08 10.602 11.0612C11.4566 11.0424 12.2836 10.7551 12.9659 10.2402C13.6481 9.72521 14.1511 9.00864 14.4035 8.19196C14.6559 7.37528 14.6449 6.49989 14.3721 5.68979C14.0994 4.87968 13.5786 4.17593 12.8837 3.67823C12.1887 3.18052 11.3548 2.91409 10.5 2.91667ZM20.8731 6.46771C18.896 2.61005 14.9818 0 10.5 0C6.01817 0 2.1029 2.61188 0.126855 6.46807C0.0434538 6.63305 0 6.81532 0 7.00018C0 7.18504 0.0434538 7.36731 0.126855 7.53229C2.10399 11.3899 6.01817 14 10.5 14C14.9818 14 18.8971 11.3881 20.8731 7.53193C20.9565 7.36695 21 7.18468 21 6.99982C21 6.81496 20.9565 6.63269 20.8731 6.46771ZM10.5 12.25C6.90338 12.25 3.60608 10.2448 1.82545 7C3.60608 3.75521 6.90301 1.75 10.5 1.75C14.097 1.75 17.3939 3.75521 19.1745 7C17.3943 10.2448 14.097 12.25 10.5 12.25Z" fill="#3FA2F7"/>
</svg>
