<svg width="21" height="20" viewBox="0 0 21 20" fill="none" xmlns="http://www.w3.org/2000/svg">
<path d="M5.2513 3.83398H14.0282C13.7789 4.06147 13.5219 4.29762 13.3376 4.47984C13.2686 4.54808 13.2042 4.61414 13.1515 4.67306C13.1112 4.71805 13.0381 4.80143 12.9919 4.89415C12.9783 4.92132 12.9563 4.97006 12.9433 5.0333C12.9314 5.09162 12.9158 5.21705 12.9802 5.35564C13.0545 5.51564 13.1899 5.59907 13.3034 5.63163C13.4006 5.65951 13.4829 5.65227 13.5219 5.6471C13.6023 5.63647 13.6697 5.60963 13.7039 5.59523C13.7465 5.57733 13.7901 5.55563 13.8326 5.53295C14.0998 5.39049 14.6428 5.03347 15.5846 4.3715V6.66721C15.5846 6.66725 15.5846 6.66728 15.5846 6.66732C15.5846 6.75568 15.5495 6.84041 15.487 6.90288L15.4869 6.90293L11.5644 10.8254L11.418 10.9719V11.179V14.1672C11.418 14.1672 11.418 14.1673 11.418 14.1673C11.4179 14.2557 11.3828 14.3404 11.3203 14.4029L11.3202 14.4029L9.65363 16.0695C9.65362 16.0696 9.6536 16.0696 9.65358 16.0696C9.60698 16.1162 9.54761 16.1479 9.48298 16.1607C9.41833 16.1736 9.35132 16.167 9.29042 16.1418C9.22952 16.1165 9.17746 16.0738 9.14084 16.019L8.72513 16.2969L9.14083 16.019C9.10423 15.9643 9.08467 15.8999 9.08464 15.834C9.08464 15.834 9.08464 15.8339 9.08464 15.8339V11.179V10.9719L8.93819 10.8254L5.01569 6.90293L5.01564 6.90288C4.95314 6.84041 4.91802 6.75568 4.91797 6.66732C4.91797 6.66728 4.91797 6.66725 4.91797 6.66721V4.16732C4.91797 4.07891 4.95309 3.99413 5.0156 3.93162C5.07811 3.8691 5.1629 3.83398 5.2513 3.83398ZM13.3161 4.6735C13.312 4.67521 13.3127 4.67469 13.3173 4.67296C13.3169 4.67317 13.3164 4.67335 13.3161 4.6735ZM13.8647 5.37798C13.8646 5.378 13.8651 5.37736 13.8661 5.37601C13.8652 5.37729 13.8647 5.37796 13.8647 5.37798Z" stroke="#636363"/>
</svg>
