<svg width="21" height="21" viewBox="0 0 21 21" fill="none" xmlns="http://www.w3.org/2000/svg">
<path fill-rule="evenodd" clip-rule="evenodd" d="M0 10.5C0 16.299 4.70101 21 10.5 21C16.299 21 21 16.299 21 10.5C21 4.70101 16.299 0 10.5 0C4.70101 0 0 4.70101 0 10.5ZM19.091 10.5007C19.091 15.2453 15.2447 19.0916 10.5001 19.0916C5.75543 19.0916 1.90915 15.2453 1.90915 10.5007C1.90915 5.75607 5.75543 1.90979 10.5001 1.90979C15.2447 1.90979 19.091 5.75607 19.091 10.5007ZM11.459 12.4084H12.4129V14.3175H8.5947V12.4084H9.54924V10.4993H8.5947V8.59021H11.459V12.4084ZM11.4548 6.67879C11.4548 7.20597 11.0273 7.63333 10.5 7.63333C9.97261 7.63333 9.5451 7.20597 9.5451 6.67879C9.5451 6.15161 9.97261 5.72424 10.5 5.72424C11.0273 5.72424 11.4548 6.15161 11.4548 6.67879Z" fill="#636363"/>
</svg>
