<svg width="17" height="18" viewBox="0 0 17 18" fill="none" xmlns="http://www.w3.org/2000/svg">
<path d="M16.75 8.99967C16.75 13.626 13.0004 17.3763 8.375 17.3763C3.74962 17.3763 0 13.626 0 8.99967C0 4.37339 3.74962 0.623047 8.375 0.623047C13.0004 0.623047 16.75 4.37339 16.75 8.99967Z" fill="#BDBDBD"/>
<path d="M6.97917 8.53424C6.97917 7.7632 7.6041 7.13814 8.375 7.13814C9.14589 7.13814 9.77083 7.7632 9.77083 8.53424V13.1879C9.77083 13.959 9.14589 14.584 8.375 14.584C7.6041 14.584 6.97917 13.959 6.97917 13.1879V8.53424Z" fill="white"/>
<path d="M6.97917 4.81136C6.97917 4.04031 7.6041 3.41525 8.375 3.41525C9.14589 3.41525 9.77083 4.04031 9.77083 4.81136C9.77083 5.5824 9.14589 6.20746 8.375 6.20746C7.6041 6.20746 6.97917 5.5824 6.97917 4.81136Z" fill="white"/>
</svg>
