<svg width="38" height="28" viewBox="0 0 38 28" fill="none" xmlns="http://www.w3.org/2000/svg">
<path d="M33.375 22.75C33.8721 22.7494 34.3487 22.5517 34.7002 22.2002C35.0517 21.8487 35.2494 21.3721 35.25 20.875V2.125C35.2494 1.6279 35.0517 1.15132 34.7002 0.799814C34.3487 0.448309 33.8721 0.250579 33.375 0.25H4.625C4.1279 0.250579 3.65132 0.448309 3.29981 0.799814C2.94831 1.15132 2.75058 1.6279 2.75 2.125V20.875C2.75058 21.3721 2.94831 21.8487 3.29981 22.2002C3.65132 22.5517 4.1279 22.7494 4.625 22.75H33.375ZM5.25 2.75H32.75V20.25H5.25V2.75ZM0.25 25.25H37.75V27.75H0.25V25.25Z" fill="#636363"/>
</svg>
