<svg width="24" height="38" viewBox="0 0 24 38" fill="none" xmlns="http://www.w3.org/2000/svg">
<path d="M20.3333 37.3327H3.66659C2.78253 37.3327 1.93468 36.9815 1.30956 36.3564C0.684441 35.7313 0.333252 34.8834 0.333252 33.9994V3.85435C0.37064 2.99567 0.738266 2.18461 1.35938 1.59052C1.9805 0.99642 2.80709 0.665204 3.66659 0.666017H20.3333C21.2173 0.666017 22.0652 1.01721 22.6903 1.64233C23.3154 2.26745 23.6666 3.1153 23.6666 3.99935V33.9994C23.6666 34.8834 23.3154 35.7313 22.6903 36.3564C22.0652 36.9815 21.2173 37.3327 20.3333 37.3327ZM3.66659 3.99935V33.9994H20.3333V3.99935H16.9999C16.9999 4.88341 16.6487 5.73125 16.0236 6.35637C15.3985 6.98149 14.5506 7.33268 13.6666 7.33268H10.3333C9.4492 7.33268 8.60135 6.98149 7.97623 6.35637C7.35111 5.73125 6.99992 4.88341 6.99992 3.99935H3.66659Z" fill="#636363"/>
</svg>
