<svg width="19" height="20" viewBox="0 0 19 20" fill="none" xmlns="http://www.w3.org/2000/svg">
<path d="M15.988 0.355469L18.988 3.35547L16.701 5.64347L13.701 2.64347L15.988 0.355469ZM5 14.3435H8L15.287 7.05647L12.287 4.05647L5 11.3435V14.3435Z" fill="#D5A62F"/>
<path d="M16 17.3435H5.158C5.132 17.3435 5.105 17.3535 5.079 17.3535C5.046 17.3535 5.013 17.3445 4.979 17.3435H2V3.34347H8.847L10.847 1.34347H2C0.897 1.34347 0 2.23947 0 3.34347V17.3435C0 18.4475 0.897 19.3435 2 19.3435H16C16.5304 19.3435 17.0391 19.1328 17.4142 18.7577C17.7893 18.3826 18 17.8739 18 17.3435V8.67547L16 10.6755V17.3435Z" fill="#D5A62F"/>
</svg>
