<svg width="40" height="40" viewBox="0 0 40 40" fill="none" xmlns="http://www.w3.org/2000/svg">
<path d="M24 6.66667V5.33333V6.66667ZM16 6.66667V8V6.66667ZM34.2827 31.792L33.3493 30.8427L32.8027 31.376L32.9893 32.1147L34.2827 31.7947V31.792ZM36 38.6667L35.6773 39.96C35.9006 40.0156 36.1344 40.0125 36.356 39.951C36.5777 39.8895 36.7797 39.7716 36.9423 39.609C37.105 39.4463 37.2228 39.2443 37.2843 39.0227C37.3458 38.801 37.3489 38.5672 37.2933 38.344L36 38.664V38.6667ZM25.3333 36L24.3893 35.056L22.7253 36.7227L25.0107 37.2933L25.3333 36ZM25.4 35.9333L26.3413 36.8773C26.5359 36.6835 26.6659 36.4343 26.7135 36.1638C26.7611 35.8933 26.724 35.6147 26.6073 35.3661C26.4905 35.1175 26.2999 34.911 26.0614 34.7748C25.8228 34.6386 25.5481 34.5794 25.2747 34.6053L25.4 35.9333ZM1.33333 21.3333H0H1.33333ZM18.6667 0V6.66667H21.3333V0H18.6667ZM24 5.33333H16V8H24V5.33333ZM40 21.3333C40 17.0899 38.3143 13.0202 35.3137 10.0196C32.3131 7.01904 28.2435 5.33333 24 5.33333V8C25.751 8 27.4848 8.34488 29.1024 9.01494C30.7201 9.685 32.19 10.6671 33.4281 11.9052C34.6662 13.1434 35.6483 14.6132 36.3184 16.2309C36.9885 17.8486 37.3333 19.5824 37.3333 21.3333H40ZM35.216 32.744C36.7334 31.2561 37.9382 29.48 38.7597 27.5201C39.5812 25.5601 40.0029 23.4558 40 21.3307H37.3333C37.3363 23.1018 36.9851 24.8557 36.3005 26.4892C35.6159 28.1227 34.6116 29.6029 33.3467 30.8427L35.216 32.744ZM37.296 38.344L35.5733 31.4667L32.9867 32.112L34.704 38.9867L37.2907 38.3413L37.296 38.344ZM25.0107 37.2933L35.6773 39.96L36.3227 37.3733L25.656 34.7067L25.0107 37.2933ZM24.456 34.992L24.3893 35.056L26.2773 36.9413L26.3413 36.8773L24.456 34.992ZM24 37.3333C24.5147 37.3333 25.024 37.3067 25.5253 37.2613L25.2747 34.6053C24.851 34.6459 24.4256 34.6663 24 34.6667V37.3333ZM16 37.3333H24V34.6667H16V37.3333ZM0 21.3333C0 25.5768 1.68571 29.6465 4.68629 32.647C7.68687 35.6476 11.7565 37.3333 16 37.3333V34.6667C14.249 34.6667 12.5152 34.3218 10.8976 33.6517C9.27988 32.9817 7.81002 31.9995 6.57191 30.7614C4.07142 28.2609 2.66667 24.8696 2.66667 21.3333H0ZM16 5.33333C11.7565 5.33333 7.68687 7.01904 4.68629 10.0196C1.68571 13.0202 0 17.0899 0 21.3333H2.66667C2.66667 17.7971 4.07142 14.4057 6.57191 11.9052C9.0724 9.40476 12.4638 8 16 8V5.33333ZM20 21.3333C18.9391 21.3333 17.9217 20.9119 17.1716 20.1618C16.4214 19.4116 16 18.3942 16 17.3333H13.3333C13.3333 19.1014 14.0357 20.7971 15.286 22.0474C16.5362 23.2976 18.2319 24 20 24V21.3333ZM24 17.3333C24 18.3942 23.5786 19.4116 22.8284 20.1618C22.0783 20.9119 21.0609 21.3333 20 21.3333V24C21.7681 24 23.4638 23.2976 24.714 22.0474C25.9643 20.7971 26.6667 19.1014 26.6667 17.3333H24ZM20 13.3333C21.0609 13.3333 22.0783 13.7548 22.8284 14.5049C23.5786 15.2551 24 16.2725 24 17.3333H26.6667C26.6667 15.5652 25.9643 13.8695 24.714 12.6193C23.4638 11.369 21.7681 10.6667 20 10.6667V13.3333ZM20 10.6667C18.2319 10.6667 16.5362 11.369 15.286 12.6193C14.0357 13.8695 13.3333 15.5652 13.3333 17.3333H16C16 16.2725 16.4214 15.2551 17.1716 14.5049C17.9217 13.7548 18.9391 13.3333 20 13.3333V10.6667ZM20 32C22.8373 32 25.4453 31.0133 27.5013 29.368L25.832 27.288C24.232 28.568 22.208 29.3333 20 29.3333V32ZM12.4987 29.368C14.552 31.0133 17.1653 32 20 32V29.3333C17.8795 29.3373 15.8215 28.6155 14.168 27.288L12.4987 29.368Z" fill="#636363"/>
</svg>
