<svg width="28" height="40" viewBox="0 0 28 40" fill="none" xmlns="http://www.w3.org/2000/svg">
<path d="M2.88 40C2.11618 40 1.38364 39.7471 0.843532 39.2971C0.303428 38.847 0 38.2365 0 37.6L0 9.42667C0 8.10167 1.29 7.02667 2.88 7.02667H6.292C6.4 7.02667 6.504 7.04833 6.594 7.08667L6.59 7.085V0.28C6.59 0.125 6.74 0 6.926 0H18.966C19.152 0 19.302 0.125 19.302 0.28V7.045C19.3543 7.03413 19.4081 7.02853 19.462 7.02833H22.492C24.082 7.02833 25.372 8.10333 25.372 9.42833V16.1467C25.4623 16.11 25.5615 16.0911 25.662 16.0917H27.176C27.548 16.0917 27.85 16.3433 27.85 16.6533V31.2733C27.85 31.4223 27.779 31.5652 27.6526 31.6705C27.5262 31.7758 27.3548 31.835 27.176 31.835H25.662C25.5601 31.8353 25.4594 31.8159 25.368 31.7783L25.372 31.78V37.6C25.372 38.2365 25.0686 38.847 24.5285 39.2971C23.9884 39.7471 23.2558 40 22.492 40H2.88ZM17.528 34.615V36.505C17.5285 36.5796 17.5643 36.651 17.6276 36.7037C17.6909 36.7564 17.7765 36.7862 17.866 36.7867H20.534C20.6235 36.7862 20.7091 36.7564 20.7724 36.7037C20.8357 36.651 20.8715 36.5796 20.872 36.505V34.615C20.8715 34.5406 20.8356 34.4694 20.7723 34.4169C20.709 34.3644 20.6233 34.335 20.534 34.335H17.862C17.7729 34.3354 17.6875 34.365 17.6243 34.4174C17.5611 34.4698 17.525 34.5407 17.524 34.615H17.528ZM11.216 34.615V36.505C11.2165 36.5796 11.2523 36.651 11.3156 36.7037C11.3789 36.7564 11.4645 36.7862 11.554 36.7867H14.22C14.3095 36.7862 14.3951 36.7564 14.4584 36.7037C14.5217 36.651 14.5575 36.5796 14.558 36.505V34.615C14.5575 34.5406 14.5216 34.4694 14.4583 34.4169C14.395 34.3644 14.3093 34.335 14.22 34.335H11.552C11.4629 34.3354 11.3775 34.365 11.3143 34.4174C11.2511 34.4698 11.215 34.5407 11.214 34.615H11.216ZM4.904 34.615V36.5067C4.904 36.6617 5.054 36.7867 5.24 36.7867H7.908C7.99748 36.7862 8.08315 36.7564 8.14642 36.7037C8.2097 36.651 8.24547 36.5796 8.246 36.505V34.615C8.24547 34.5406 8.20963 34.4694 8.1463 34.4169C8.08297 34.3644 7.9973 34.335 7.908 34.335H5.24C5.15089 34.335 5.06542 34.3645 5.00241 34.417C4.9394 34.4695 4.904 34.5407 4.904 34.615V34.615ZM17.526 30.33V32.22C17.5265 32.2946 17.5623 32.366 17.6256 32.4187C17.6889 32.4714 17.7745 32.5012 17.864 32.5017H20.532C20.6215 32.5012 20.7071 32.4714 20.7704 32.4187C20.8337 32.366 20.8695 32.2946 20.87 32.22V30.3283C20.87 30.2541 20.8346 30.1829 20.7716 30.1303C20.7086 30.0778 20.6231 30.0483 20.534 30.0483H17.86C17.7709 30.0483 17.6854 30.0778 17.6224 30.1303C17.5594 30.1829 17.524 30.2541 17.524 30.3283V30.33H17.526ZM11.214 30.33V32.22C11.2145 32.2946 11.2503 32.366 11.3136 32.4187C11.3769 32.4714 11.4625 32.5012 11.552 32.5017H14.22C14.3095 32.5012 14.3951 32.4714 14.4584 32.4187C14.5217 32.366 14.5575 32.2946 14.558 32.22V30.3283C14.558 30.2541 14.5226 30.1829 14.4596 30.1303C14.3966 30.0778 14.3111 30.0483 14.222 30.0483H11.55C11.4609 30.0483 11.3754 30.0778 11.3124 30.1303C11.2494 30.1829 11.214 30.2541 11.214 30.3283V30.33ZM4.902 30.33V32.2217C4.902 32.3767 5.052 32.5017 5.238 32.5017H7.906C7.99548 32.5012 8.08115 32.4714 8.14442 32.4187C8.2077 32.366 8.24348 32.2946 8.244 32.22V30.3283C8.244 30.2541 8.2086 30.1829 8.14559 30.1303C8.08258 30.0778 7.99711 30.0483 7.908 30.0483H5.238C5.14889 30.0483 5.06342 30.0778 5.00041 30.1303C4.9374 30.1829 4.902 30.2541 4.902 30.3283V30.33ZM17.524 26.0433V27.935C17.524 28.09 17.674 28.215 17.86 28.215H20.532C20.6211 28.215 20.7066 28.1855 20.7696 28.133C20.8326 28.0805 20.868 28.0093 20.868 27.935V26.0433C20.8675 25.9689 20.8316 25.8977 20.7683 25.8452C20.705 25.7928 20.6193 25.7633 20.53 25.7633H17.862C17.7729 25.7638 17.6875 25.7934 17.6243 25.8457C17.5611 25.8981 17.525 25.9691 17.524 26.0433V26.0433ZM11.212 26.0433V27.935C11.212 28.09 11.362 28.215 11.548 28.215H14.22C14.3091 28.215 14.3946 28.1855 14.4576 28.133C14.5206 28.0805 14.556 28.0093 14.556 27.935V26.0433C14.5555 25.9689 14.5196 25.8977 14.4563 25.8452C14.393 25.7928 14.3073 25.7633 14.218 25.7633H11.55C11.4609 25.7638 11.3755 25.7934 11.3123 25.8457C11.2491 25.8981 11.213 25.9691 11.212 26.0433V26.0433ZM4.9 26.0433V27.935C4.9 28.09 5.05 28.215 5.236 28.215H7.908C7.99711 28.215 8.08258 28.1855 8.14559 28.133C8.2086 28.0805 8.244 28.0093 8.244 27.935V26.0433C8.24347 25.9689 8.20763 25.8977 8.1443 25.8452C8.08097 25.7928 7.9953 25.7633 7.906 25.7633H5.238C5.14889 25.7633 5.06342 25.7928 5.00041 25.8453C4.9374 25.8979 4.902 25.9691 4.902 26.0433H4.9ZM4.48 14.855V23.0417C4.48 23.1967 4.63 23.3217 4.816 23.3217H20.34C20.4291 23.3217 20.5146 23.2922 20.5776 23.2397C20.6406 23.1871 20.676 23.1159 20.676 23.0417V14.855C20.6755 14.7804 20.6397 14.709 20.5764 14.6563C20.5131 14.6036 20.4275 14.5738 20.338 14.5733H4.818C4.72852 14.5738 4.64285 14.6036 4.57958 14.6563C4.5163 14.709 4.48052 14.7804 4.48 14.855V14.855ZM3.472 10.385V12.3683C3.472 12.8333 3.924 13.21 4.482 13.21H21.28C21.5479 13.21 21.8048 13.1213 21.9942 12.9635C22.1836 12.8056 22.29 12.5916 22.29 12.3683V10.385C22.29 10.1618 22.1836 9.94769 21.9942 9.78985C21.8048 9.63201 21.5479 9.54333 21.28 9.54333H19.3V11.2267H20.276V11.5233H5.492V11.2267H6.134C6.29623 11.2266 6.45608 11.1941 6.6 11.1317L6.594 11.1333V9.63667C6.45127 9.575 6.29277 9.54298 6.132 9.54333H4.478C4.21048 9.54377 3.95409 9.63264 3.76511 9.79044C3.57614 9.94824 3.47 10.1621 3.47 10.385H3.472Z" fill="#636363"/>
</svg>
