<svg width="41" height="41" viewBox="0 0 41 41" fill="none" xmlns="http://www.w3.org/2000/svg">
<path d="M10.2516 9.22539C10.2516 8.40985 10.5755 7.62771 11.1522 7.05104C11.7289 6.47436 12.511 6.15039 13.3266 6.15039H27.6766C28.4921 6.15039 29.2742 6.47436 29.8509 7.05104C30.4276 7.62771 30.7516 8.40985 30.7516 9.22539V10.2504H31.7766C33.1358 10.2504 34.4394 10.7903 35.4005 11.7515C36.3616 12.7126 36.9016 14.0162 36.9016 15.3754V25.6254C36.9016 26.4409 36.5776 27.2231 36.0009 27.7997C35.4242 28.3764 34.6421 28.7004 33.8266 28.7004H30.7516V31.7754C30.7516 32.5909 30.4276 33.3731 29.8509 33.9497C29.2742 34.5264 28.4921 34.8504 27.6766 34.8504H13.3266C12.511 34.8504 11.7289 34.5264 11.1522 33.9497C10.5755 33.3731 10.2516 32.5909 10.2516 31.7754V28.7004H7.17656C6.36102 28.7004 5.57888 28.3764 5.00221 27.7997C4.42553 27.2231 4.10156 26.4409 4.10156 25.6254V15.3754C4.10156 14.0162 4.64152 12.7126 5.60264 11.7515C6.56376 10.7903 7.86733 10.2504 9.22656 10.2504H10.2516V9.22539ZM28.7016 9.22539C28.7016 8.95354 28.5936 8.69283 28.4013 8.50061C28.2091 8.30838 27.9484 8.20039 27.6766 8.20039H13.3266C13.0547 8.20039 12.794 8.30838 12.6018 8.50061C12.4096 8.69283 12.3016 8.95354 12.3016 9.22539V10.2504H28.7016V9.22539ZM12.3016 23.5754V31.7754C12.3016 32.0472 12.4096 32.308 12.6018 32.5002C12.794 32.6924 13.0547 32.8004 13.3266 32.8004H27.6766C27.9484 32.8004 28.2091 32.6924 28.4013 32.5002C28.5936 32.308 28.7016 32.0472 28.7016 31.7754V23.5754C28.7016 23.3035 28.5936 23.0428 28.4013 22.8506C28.2091 22.6584 27.9484 22.5504 27.6766 22.5504H13.3266C13.0547 22.5504 12.794 22.6584 12.6018 22.8506C12.4096 23.0428 12.3016 23.3035 12.3016 23.5754Z" fill="#555555"/>
</svg>
