<svg width="27" height="28" viewBox="0 0 27 28" fill="none" xmlns="http://www.w3.org/2000/svg">
<path fill-rule="evenodd" clip-rule="evenodd" d="M26.8341 13.9993C26.8341 17.5356 25.4294 20.927 22.9289 23.4274C20.4284 25.9279 17.037 27.3327 13.5008 27.3327C9.96459 27.3327 6.57321 25.9279 4.07272 23.4274C1.57224 20.927 0.16748 17.5356 0.16748 13.9993C0.16748 10.4631 1.57224 7.07174 4.07272 4.57126C6.57321 2.07077 9.96459 0.666016 13.5008 0.666016C17.037 0.666016 20.4284 2.07077 22.9289 4.57126C25.4294 7.07174 26.8341 10.4631 26.8341 13.9993ZM13.5008 8.99935C13.208 8.99906 12.9202 9.07594 12.6666 9.22223C12.4129 9.36853 12.2022 9.57908 12.0558 9.83268C11.9501 10.0291 11.806 10.2024 11.6321 10.3421C11.4582 10.4819 11.258 10.5853 11.0433 10.6462C10.8287 10.7071 10.6041 10.7243 10.3827 10.6968C10.1613 10.6693 9.94764 10.5976 9.75445 10.486C9.56127 10.3744 9.39246 10.2252 9.25803 10.0471C9.1236 9.86908 9.02629 9.66585 8.97186 9.44949C8.91743 9.23313 8.90699 9.00804 8.94117 8.78757C8.97535 8.56711 9.05344 8.35574 9.17081 8.16602C9.72118 7.21287 10.5707 6.46795 11.5875 6.04679C12.6044 5.62562 13.7318 5.55174 14.7949 5.83661C15.8581 6.12148 16.7975 6.74917 17.4675 7.62235C18.1376 8.49552 18.5008 9.56538 18.5008 10.666C18.5011 11.7004 18.1807 12.7094 17.5837 13.5541C16.9868 14.3988 16.1426 15.0377 15.1675 15.3827V15.666C15.1675 16.108 14.9919 16.532 14.6793 16.8445C14.3668 17.1571 13.9428 17.3327 13.5008 17.3327C13.0588 17.3327 12.6349 17.1571 12.3223 16.8445C12.0097 16.532 11.8341 16.108 11.8341 15.666V13.9993C11.8341 13.5573 12.0097 13.1334 12.3223 12.8208C12.6349 12.5083 13.0588 12.3327 13.5008 12.3327C13.9428 12.3327 14.3668 12.1571 14.6793 11.8445C14.9919 11.532 15.1675 11.108 15.1675 10.666C15.1675 10.224 14.9919 9.80007 14.6793 9.4875C14.3668 9.17494 13.9428 8.99935 13.5008 8.99935ZM13.5008 22.3327C13.9428 22.3327 14.3668 22.1571 14.6793 21.8445C14.9919 21.532 15.1675 21.108 15.1675 20.666C15.1675 20.224 14.9919 19.8001 14.6793 19.4875C14.3668 19.1749 13.9428 18.9993 13.5008 18.9993C13.0588 18.9993 12.6349 19.1749 12.3223 19.4875C12.0097 19.8001 11.8341 20.224 11.8341 20.666C11.8341 21.108 12.0097 21.532 12.3223 21.8445C12.6349 22.1571 13.0588 22.3327 13.5008 22.3327Z" fill="#636363"/>
</svg>
