<svg width="15" height="15" viewBox="0 0 15 15" fill="none" xmlns="http://www.w3.org/2000/svg">
<path d="M12.6316 7.59868C12.6316 10.3783 10.3341 12.6316 7.5 12.6316C4.66591 12.6316 2.36842 10.3783 2.36842 7.59868C2.36842 4.81909 4.66591 2.56579 7.5 2.56579C10.3341 2.56579 12.6316 4.81909 12.6316 7.59868Z" fill="white"/>
<path fill-rule="evenodd" clip-rule="evenodd" d="M7.5 15C11.65 15 15 11.65 15 7.5C15 3.35 11.65 0 7.5 0C3.35 0 0 3.35 0 7.5C0 11.65 3.35 15 7.5 15ZM6.78622 8.81237V3.40909H8.23442V8.81237H6.78622ZM8.31931 10.2106C8.31931 10.427 8.24774 10.6051 8.10458 10.745C7.9581 10.8848 7.76001 10.9547 7.51032 10.9547C7.26396 10.9547 7.06754 10.8848 6.92105 10.745C6.77457 10.6051 6.70133 10.427 6.70133 10.2106C6.70133 9.9909 6.77623 9.81112 6.92605 9.6713C7.07253 9.53147 7.26729 9.46156 7.51032 9.46156C7.75335 9.46156 7.94977 9.53147 8.09959 9.6713C8.24607 9.81112 8.31931 9.9909 8.31931 10.2106Z" fill="#CF2A2A"/>
</svg>
