<svg width="28" height="24" viewBox="0 0 28 24" fill="none" xmlns="http://www.w3.org/2000/svg">
<path fill-rule="evenodd" clip-rule="evenodd" d="M11.4332 1.09184C11.4334 0.864339 11.3508 0.642467 11.197 0.457273C11.0431 0.272079 10.8257 0.132831 10.5751 0.0590163C10.3245 -0.0147986 10.0533 -0.0194868 9.79949 0.045608C9.54565 0.110703 9.32186 0.242323 9.15944 0.422049L0.267636 10.2398C0.0941762 10.4313 0 10.667 0 10.9096C0 11.1522 0.0941762 11.3879 0.267636 11.5794L9.15944 21.3972C9.32186 21.5769 9.54565 21.7085 9.79949 21.7736C10.0533 21.8387 10.3245 21.8341 10.5751 21.7602C10.8257 21.6864 11.0431 21.5472 11.197 21.362C11.3508 21.1768 11.4334 20.9549 11.4332 20.7274V16.3749C18.2659 16.497 21.5483 17.6108 23.1971 18.8217C24.7646 19.9725 25.0516 21.3263 25.3502 22.7444L25.4276 23.1099C25.4846 23.3714 25.6509 23.6059 25.8953 23.7695C26.1396 23.933 26.4451 24.0143 26.7543 23.9979C27.0635 23.9816 27.3551 23.8688 27.5742 23.6807C27.7933 23.4926 27.9248 23.2423 27.944 22.9768C28.1612 19.9791 27.8348 15.6353 25.3692 12.0016C22.976 8.47482 18.6661 5.76292 11.4332 5.4793V1.09184Z" fill="#CF2A2A"/>
</svg>
