<svg width="59" height="75" viewBox="0 0 59 75" fill="none" xmlns="http://www.w3.org/2000/svg">
<path d="M14.2194 61.0931C15.3922 61.7957 16.8897 62.0065 18.2955 61.5603L27.9835 58.5251C28.9668 58.2167 30.0334 58.2167 31.0167 58.5251L40.7047 61.5603C42.1105 62.0029 43.608 61.7957 44.7808 61.0931V74.7727L29.5001 70.0021L14.2194 74.7727V61.0931ZM28.2662 52.7672L20.389 55.2369C19.5071 55.513 18.5459 55.4834 17.6862 55.1534C16.8265 54.8234 16.1275 54.216 15.7208 53.4452L11.8815 46.1909C11.5287 45.5206 10.9535 44.9707 10.2388 44.6206L2.59847 40.8968C1.81219 40.5123 1.1967 39.8872 0.858395 39.1296C0.520089 38.3721 0.480222 37.5296 0.745685 36.7479L3.45801 28.7628C3.68943 28.0812 3.68943 27.3508 3.45801 26.6691L0.745685 18.684C0.479531 17.9014 0.519453 17.0579 0.858534 16.2995C1.19761 15.5411 1.81449 14.9157 2.60229 14.5316L10.2388 10.8079C10.9529 10.4587 11.5281 9.91006 11.8815 9.24105L15.7208 1.97615C16.1282 1.20607 16.8274 0.599359 17.6871 0.270075C18.5467 -0.0592089 19.5076 -0.0883868 20.389 0.188026L28.2662 2.65767C29.0661 2.90874 29.9341 2.90874 30.734 2.65767L38.6112 0.188026C39.4931 -0.0881299 40.4543 -0.058438 41.314 0.271517C42.1737 0.601471 42.8727 1.20895 43.2795 1.97966L47.1187 9.23754C47.4715 9.90785 48.0467 10.4578 48.7614 10.8079L56.4017 14.5316C57.188 14.9162 57.8035 15.5412 58.1418 16.2988C58.4801 17.0563 58.52 17.8988 58.2545 18.6805L55.5422 26.6656C55.3108 27.3473 55.3108 28.0776 55.5422 28.7593L58.2545 36.7444C58.5207 37.527 58.4808 38.3705 58.1417 39.1289C57.8026 39.8873 57.1857 40.5127 56.3979 40.8968L48.7614 44.6206C48.0473 44.9698 47.4721 45.5184 47.1187 46.1874L43.2795 53.4488C42.8721 54.2188 42.1728 54.8256 41.3131 55.1548C40.4535 55.4841 39.4926 55.5133 38.6112 55.2369L30.734 52.7672C29.9341 52.5162 29.0661 52.5162 28.2662 52.7672ZM29.5001 17.1734C28.4869 17.1734 27.5153 17.5435 26.7988 18.2024C26.0824 18.8612 25.6799 19.7547 25.6799 20.6864V34.7385C25.6799 35.6702 26.0824 36.5637 26.7988 37.2225C27.5153 37.8814 28.4869 38.2515 29.5001 38.2515C30.5133 38.2515 31.485 37.8814 32.2014 37.2225C32.9178 36.5637 33.3203 35.6702 33.3203 34.7385V20.6864C33.3203 19.7547 32.9178 18.8612 32.2014 18.2024C31.485 17.5435 30.5133 17.1734 29.5001 17.1734Z" fill="#CFD07C"/>
</svg>
