<svg width="38" height="34" viewBox="0 0 38 34" fill="none" xmlns="http://www.w3.org/2000/svg">
<path d="M11.7365 16.707C9.59896 16.7684 7.85069 17.5541 6.49167 19.0642H3.83958C2.75764 19.0642 1.84722 18.8156 1.10833 18.3184C0.369444 17.8211 0 17.0938 0 16.1362C0 11.8025 0.818056 9.6356 2.45417 9.6356C2.53333 9.6356 2.82031 9.76451 3.3151 10.0223C3.8099 10.2801 4.45312 10.541 5.24479 10.805C6.03646 11.0689 6.82153 11.2009 7.6 11.2009C8.48403 11.2009 9.36146 11.0597 10.2323 10.7773C10.1663 11.2316 10.1333 11.6367 10.1333 11.9927C10.1333 13.6992 10.6677 15.2706 11.7365 16.707ZM32.9333 28.4375C32.9333 29.9107 32.4517 31.0739 31.4885 31.9272C30.5253 32.7804 29.2455 33.207 27.649 33.207H10.351C8.75451 33.207 7.47465 32.7804 6.51146 31.9272C5.54826 31.0739 5.06667 29.9107 5.06667 28.4375C5.06667 27.7868 5.08976 27.1515 5.13594 26.5315C5.18212 25.9116 5.27448 25.2425 5.41302 24.5243C5.55156 23.8061 5.72639 23.1401 5.9375 22.5262C6.14861 21.9124 6.43229 21.3139 6.78854 20.7307C7.14479 20.1476 7.55382 19.6504 8.01562 19.2391C8.47743 18.8278 9.04149 18.4994 9.70781 18.2539C10.3741 18.0084 11.1097 17.8856 11.9146 17.8856C12.0465 17.8856 12.3302 18.0176 12.7656 18.2815C13.201 18.5455 13.6826 18.8401 14.2104 19.1655C14.7382 19.4908 15.4441 19.7854 16.3281 20.0494C17.2122 20.3133 18.1028 20.4453 19 20.4453C19.8972 20.4453 20.7878 20.3133 21.6719 20.0494C22.5559 19.7854 23.2618 19.4908 23.7896 19.1655C24.3174 18.8401 24.799 18.5455 25.2344 18.2815C25.6698 18.0176 25.9535 17.8856 26.0854 17.8856C26.8903 17.8856 27.6259 18.0084 28.2922 18.2539C28.9585 18.4994 29.5226 18.8278 29.9844 19.2391C30.4462 19.6504 30.8552 20.1476 31.2115 20.7307C31.5677 21.3139 31.8514 21.9124 32.0625 22.5262C32.2736 23.1401 32.4484 23.8061 32.587 24.5243C32.7255 25.2425 32.8179 25.9116 32.8641 26.5315C32.9102 27.1515 32.9333 27.7868 32.9333 28.4375ZM12.6667 4.92132C12.6667 6.22266 12.1719 7.33371 11.1823 8.25446C10.1927 9.17522 8.99861 9.6356 7.6 9.6356C6.20139 9.6356 5.00729 9.17522 4.01771 8.25446C3.02813 7.33371 2.53333 6.22266 2.53333 4.92132C2.53333 3.61998 3.02813 2.50893 4.01771 1.58817C5.00729 0.667411 6.20139 0.207031 7.6 0.207031C8.99861 0.207031 10.1927 0.667411 11.1823 1.58817C12.1719 2.50893 12.6667 3.61998 12.6667 4.92132ZM26.6 11.9927C26.6 13.9448 25.8578 15.6113 24.3734 16.9925C22.8891 18.3736 21.0979 19.0642 19 19.0642C16.9021 19.0642 15.1109 18.3736 13.6266 16.9925C12.1422 15.6113 11.4 13.9448 11.4 11.9927C11.4 10.0407 12.1422 8.37416 13.6266 6.99302C15.1109 5.61189 16.9021 4.92132 19 4.92132C21.0979 4.92132 22.8891 5.61189 24.3734 6.99302C25.8578 8.37416 26.6 10.0407 26.6 11.9927ZM38 16.1362C38 17.0938 37.6306 17.8211 36.8917 18.3184C36.1528 18.8156 35.2424 19.0642 34.1604 19.0642H31.5083C30.1493 17.5541 28.401 16.7684 26.2635 16.707C27.3323 15.2706 27.8667 13.6992 27.8667 11.9927C27.8667 11.6367 27.8337 11.2316 27.7677 10.7773C28.6385 11.0597 29.516 11.2009 30.4 11.2009C31.1785 11.2009 31.9635 11.0689 32.7552 10.805C33.5469 10.541 34.1901 10.2801 34.6849 10.0223C35.1797 9.76451 35.4667 9.6356 35.5458 9.6356C37.1819 9.6356 38 11.8025 38 16.1362ZM35.4667 4.92132C35.4667 6.22266 34.9719 7.33371 33.9823 8.25446C32.9927 9.17522 31.7986 9.6356 30.4 9.6356C29.0014 9.6356 27.8073 9.17522 26.8177 8.25446C25.8281 7.33371 25.3333 6.22266 25.3333 4.92132C25.3333 3.61998 25.8281 2.50893 26.8177 1.58817C27.8073 0.667411 29.0014 0.207031 30.4 0.207031C31.7986 0.207031 32.9927 0.667411 33.9823 1.58817C34.9719 2.50893 35.4667 3.61998 35.4667 4.92132Z" fill="#636363"/>
</svg>
