<svg width="31" height="31" viewBox="0 0 31 31" fill="none" xmlns="http://www.w3.org/2000/svg">
<path d="M17.8094 28.4188C17.8096 28.7383 17.903 29.0525 18.081 29.3315C18.2589 29.6105 18.5153 29.8451 18.8259 30.0131C19.1365 30.181 19.491 30.2767 19.8558 30.2911C20.2206 30.3054 20.5835 30.238 20.9101 30.0952L29.4815 26.345C29.8374 26.1893 30.1367 25.9501 30.346 25.654C30.5553 25.3579 30.6663 25.0167 30.6665 24.6686V13.8604C30.6663 13.5409 30.5728 13.2267 30.3949 12.9477C30.217 12.6687 29.9606 12.4341 29.6499 12.2662C29.3393 12.0982 28.9848 12.0025 28.6201 11.9881C28.2553 11.9738 27.8924 12.0412 27.5658 12.184L18.9944 15.9343C18.6385 16.0899 18.3391 16.3291 18.1298 16.6252C17.9205 16.9213 17.8096 17.2625 17.8094 17.6106V28.4188ZM26.8329 8.31C27.1884 8.15411 27.4873 7.91474 27.6961 7.61869C27.905 7.32264 28.0156 6.98157 28.0156 6.63364C28.0156 6.28571 27.905 5.94464 27.6961 5.64859C27.4873 5.35254 27.1884 5.11317 26.8329 4.95728L16.6244 0.49073C16.3269 0.360675 15.999 0.292969 15.6665 0.292969C15.334 0.292969 15.0061 0.360675 14.7086 0.49073L4.50008 4.95728C4.14461 5.11317 3.84573 5.35254 3.63686 5.64859C3.42799 5.94464 3.31736 6.28571 3.31736 6.63364C3.31736 6.98157 3.42799 7.32264 3.63686 7.61869C3.84573 7.91474 4.14461 8.15411 4.50008 8.31L14.7086 12.7766C15.0061 12.9066 15.334 12.9743 15.6665 12.9743C15.999 12.9743 16.3269 12.9066 16.6244 12.7766L26.8329 8.31ZM3.76722 12.184C3.4406 12.0412 3.0777 11.9738 2.71295 11.9881C2.34819 12.0025 1.99368 12.0982 1.68306 12.2662C1.37244 12.4341 1.11601 12.6687 0.938098 12.9477C0.760187 13.2267 0.666699 13.5409 0.666504 13.8604V24.6686C0.666716 25.0167 0.777682 25.3579 0.986973 25.654C1.19626 25.9501 1.49562 26.1893 1.8515 26.345L10.4229 30.0952C10.7495 30.238 11.1124 30.3054 11.4772 30.2911C11.842 30.2767 12.1965 30.181 12.5071 30.0131C12.8177 29.8451 13.0741 29.6105 13.2521 29.3315C13.43 29.0525 13.5235 28.7383 13.5236 28.4188V17.6106C13.5234 17.2625 13.4125 16.9213 13.2032 16.6252C12.9939 16.3291 12.6945 16.0899 12.3386 15.9343L3.76722 12.184Z" fill="#636363"/>
</svg>
