<svg width="36" height="37" viewBox="0 0 36 37" fill="none" xmlns="http://www.w3.org/2000/svg">
<path d="M30.5992 10.4004C30.5992 11.3365 30.3072 12.2494 29.764 13.0117C29.2207 13.7741 28.4532 14.3481 27.5684 14.6538C26.6836 14.9594 25.7254 14.9815 24.8275 14.7169C23.9295 14.4524 23.1364 13.9143 22.5586 13.1778L14.2462 17.334C14.4513 18.0987 14.4513 18.9039 14.2462 19.6686L22.5586 23.823C23.2475 22.9461 24.2375 22.3562 25.3366 22.1677C26.4357 21.9792 27.5657 22.2055 28.5074 22.8028C29.4491 23.4001 30.1356 24.3258 30.4336 25.4004C30.7316 26.475 30.62 27.622 30.1203 28.619C29.6207 29.616 28.7687 30.3919 27.7295 30.7964C26.6903 31.201 25.5379 31.2052 24.4957 30.8083C23.4536 30.4114 22.5959 29.6417 22.089 28.6484C21.5821 27.6551 21.462 26.509 21.7522 25.4322L13.4398 21.2778C12.8621 22.0146 12.069 22.5528 11.171 22.8176C10.273 23.0824 9.31474 23.0604 8.42977 22.7549C7.54479 22.4493 6.77716 21.8753 6.23381 21.1129C5.69045 20.3505 5.39844 19.4375 5.39844 18.5013C5.39844 17.5651 5.69045 16.6521 6.23381 15.8897C6.77716 15.1272 7.54479 14.5533 8.42977 14.2477C9.31474 13.9421 10.273 13.9202 11.171 14.185C12.069 14.4497 12.8621 14.988 13.4398 15.7248L21.7522 11.5668C21.5747 10.9 21.5527 10.2014 21.6879 9.52479C21.823 8.84817 22.1117 8.21161 22.5317 7.66416C22.9516 7.11672 23.4917 6.673 24.1102 6.36721C24.7287 6.06141 25.4092 5.9017 26.0992 5.90039C27.2926 5.90039 28.4372 6.3745 29.2812 7.21841C30.1251 8.06232 30.5992 9.20692 30.5992 10.4004Z" fill="#555555"/>
</svg>
