<svg width="14" height="15" viewBox="0 0 14 15" fill="none" xmlns="http://www.w3.org/2000/svg">
<path d="M13.5312 1.25C13.5312 1.0428 13.4489 0.844086 13.3024 0.697573C13.1559 0.55106 12.9572 0.46875 12.75 0.46875C12.5428 0.46875 12.3441 0.55106 12.1976 0.697573C12.0511 0.844086 11.9688 1.0428 11.9688 1.25V6.325L2.17656 0.64375C1.33281 0.15625 0.25 0.746875 0.25 1.73125V13.2688C0.25 14.2531 1.33125 14.8469 2.17656 14.3578L11.9688 8.67656V13.75C11.9688 13.9572 12.0511 14.1559 12.1976 14.3024C12.3441 14.4489 12.5428 14.5312 12.75 14.5312C12.9572 14.5312 13.1559 14.4489 13.3024 14.3024C13.4489 14.1559 13.5312 13.9572 13.5312 13.75V1.25Z" fill="#CF2A2A"/>
</svg>
