<svg width="39" height="34" viewBox="0 0 39 34" fill="none" xmlns="http://www.w3.org/2000/svg">
<path d="M12.2365 16.707C10.099 16.7684 8.35069 17.5541 6.99167 19.0642H4.33958C3.25764 19.0642 2.34722 18.8156 1.60833 18.3184C0.869444 17.8211 0.5 17.0938 0.5 16.1362C0.5 11.8025 1.31806 9.6356 2.95417 9.6356C3.03333 9.6356 3.32031 9.76451 3.8151 10.0223C4.3099 10.2801 4.95312 10.541 5.74479 10.805C6.53646 11.0689 7.32153 11.2009 8.1 11.2009C8.98403 11.2009 9.86146 11.0597 10.7323 10.7773C10.6663 11.2316 10.6333 11.6367 10.6333 11.9927C10.6333 13.6992 11.1677 15.2706 12.2365 16.707ZM33.4333 28.4375C33.4333 29.9107 32.9517 31.0739 31.9885 31.9272C31.0253 32.7804 29.7455 33.207 28.149 33.207H10.851C9.25451 33.207 7.97465 32.7804 7.01146 31.9272C6.04826 31.0739 5.56667 29.9107 5.56667 28.4375C5.56667 27.7868 5.58976 27.1515 5.63594 26.5315C5.68212 25.9116 5.77448 25.2425 5.91302 24.5243C6.05156 23.8061 6.22639 23.1401 6.4375 22.5262C6.64861 21.9124 6.93229 21.3139 7.28854 20.7307C7.64479 20.1476 8.05382 19.6504 8.51562 19.2391C8.97743 18.8278 9.54149 18.4994 10.2078 18.2539C10.8741 18.0084 11.6097 17.8856 12.4146 17.8856C12.5465 17.8856 12.8302 18.0176 13.2656 18.2815C13.701 18.5455 14.1826 18.8401 14.7104 19.1655C15.2382 19.4908 15.9441 19.7854 16.8281 20.0494C17.7122 20.3133 18.6028 20.4453 19.5 20.4453C20.3972 20.4453 21.2878 20.3133 22.1719 20.0494C23.0559 19.7854 23.7618 19.4908 24.2896 19.1655C24.8174 18.8401 25.299 18.5455 25.7344 18.2815C26.1698 18.0176 26.4535 17.8856 26.5854 17.8856C27.3903 17.8856 28.1259 18.0084 28.7922 18.2539C29.4585 18.4994 30.0226 18.8278 30.4844 19.2391C30.9462 19.6504 31.3552 20.1476 31.7115 20.7307C32.0677 21.3139 32.3514 21.9124 32.5625 22.5262C32.7736 23.1401 32.9484 23.8061 33.087 24.5243C33.2255 25.2425 33.3179 25.9116 33.3641 26.5315C33.4102 27.1515 33.4333 27.7868 33.4333 28.4375ZM13.1667 4.92132C13.1667 6.22266 12.6719 7.33371 11.6823 8.25446C10.6927 9.17522 9.49861 9.6356 8.1 9.6356C6.70139 9.6356 5.50729 9.17522 4.51771 8.25446C3.52813 7.33371 3.03333 6.22266 3.03333 4.92132C3.03333 3.61998 3.52813 2.50893 4.51771 1.58817C5.50729 0.667411 6.70139 0.207031 8.1 0.207031C9.49861 0.207031 10.6927 0.667411 11.6823 1.58817C12.6719 2.50893 13.1667 3.61998 13.1667 4.92132ZM27.1 11.9927C27.1 13.9448 26.3578 15.6113 24.8734 16.9925C23.3891 18.3736 21.5979 19.0642 19.5 19.0642C17.4021 19.0642 15.6109 18.3736 14.1266 16.9925C12.6422 15.6113 11.9 13.9448 11.9 11.9927C11.9 10.0407 12.6422 8.37416 14.1266 6.99302C15.6109 5.61189 17.4021 4.92132 19.5 4.92132C21.5979 4.92132 23.3891 5.61189 24.8734 6.99302C26.3578 8.37416 27.1 10.0407 27.1 11.9927ZM38.5 16.1362C38.5 17.0938 38.1306 17.8211 37.3917 18.3184C36.6528 18.8156 35.7424 19.0642 34.6604 19.0642H32.0083C30.6493 17.5541 28.901 16.7684 26.7635 16.707C27.8323 15.2706 28.3667 13.6992 28.3667 11.9927C28.3667 11.6367 28.3337 11.2316 28.2677 10.7773C29.1385 11.0597 30.016 11.2009 30.9 11.2009C31.6785 11.2009 32.4635 11.0689 33.2552 10.805C34.0469 10.541 34.6901 10.2801 35.1849 10.0223C35.6797 9.76451 35.9667 9.6356 36.0458 9.6356C37.6819 9.6356 38.5 11.8025 38.5 16.1362ZM35.9667 4.92132C35.9667 6.22266 35.4719 7.33371 34.4823 8.25446C33.4927 9.17522 32.2986 9.6356 30.9 9.6356C29.5014 9.6356 28.3073 9.17522 27.3177 8.25446C26.3281 7.33371 25.8333 6.22266 25.8333 4.92132C25.8333 3.61998 26.3281 2.50893 27.3177 1.58817C28.3073 0.667411 29.5014 0.207031 30.9 0.207031C32.2986 0.207031 33.4927 0.667411 34.4823 1.58817C35.4719 2.50893 35.9667 3.61998 35.9667 4.92132Z" fill="#636363"/>
</svg>
