<svg width="30" height="30" viewBox="0 0 30 30" fill="none" xmlns="http://www.w3.org/2000/svg">
<path fill-rule="evenodd" clip-rule="evenodd" d="M15 0C6.7 0 0 6.7 0 15C0 23.3 6.7 30 15 30C23.3 30 30 23.3 30 15C30 6.7 23.3 0 15 0ZM16.4276 12.3753V23.1818H13.5312V12.3753H16.4276ZM13.3614 9.57875C13.3614 9.14595 13.5045 8.78973 13.7908 8.51008C14.0838 8.23042 14.48 8.0906 14.9794 8.0906C15.4721 8.0906 15.8649 8.23042 16.1579 8.51008C16.4509 8.78973 16.5973 9.14595 16.5973 9.57875C16.5973 10.0182 16.4475 10.3778 16.1479 10.6574C15.8549 10.9371 15.4654 11.0769 14.9794 11.0769C14.4933 11.0769 14.1005 10.9371 13.8008 10.6574C13.5079 10.3778 13.3614 10.0182 13.3614 9.57875Z" fill="#CF2A2A"/>
</svg>
