<svg width="80" height="80" viewBox="0 0 80 80" fill="none" xmlns="http://www.w3.org/2000/svg">
<path fill-rule="evenodd" clip-rule="evenodd" d="M40 0C17.9091 0 0 17.9091 0 40C0 62.0909 17.9091 80 40 80C62.0909 80 80 62.0909 80 40C80 17.9091 62.0909 0 40 0ZM57.3382 33.2364C57.6574 32.8714 57.9005 32.4463 58.053 31.9861C58.2056 31.5258 58.2645 31.0397 58.2264 30.5563C58.1883 30.0729 58.054 29.6021 57.8312 29.1714C57.6084 28.7407 57.3018 28.3589 56.9293 28.0485C56.5568 27.7381 56.126 27.5053 55.6622 27.3639C55.1984 27.2224 54.711 27.1751 54.2287 27.2248C53.7463 27.2745 53.2788 27.4202 52.8536 27.6532C52.4284 27.8863 52.0541 28.202 51.7527 28.5818L36.1164 47.3418L28.0255 39.2473C27.3396 38.5849 26.4211 38.2184 25.4676 38.2266C24.5142 38.2349 23.6021 38.6174 22.9279 39.2916C22.2537 39.9658 21.8713 40.8778 21.863 41.8313C21.8547 42.7847 22.2212 43.7033 22.8836 44.3891L33.7927 55.2982C34.15 55.6553 34.5778 55.934 35.0488 56.1166C35.5198 56.2992 36.0236 56.3817 36.5283 56.3587C37.0329 56.3358 37.5272 56.208 37.9797 55.9834C38.4322 55.7589 38.8329 55.4425 39.1564 55.0545L57.3382 33.2364Z" fill="#2FB755"/>
</svg>
