<svg width="31" height="31" viewBox="0 0 31 31" fill="none" xmlns="http://www.w3.org/2000/svg">
<path d="M17.4764 28.4188C17.4765 28.7383 17.57 29.0525 17.7479 29.3315C17.9259 29.6105 18.1823 29.8451 18.4929 30.0131C18.8035 30.181 19.158 30.2767 19.5228 30.2911C19.8875 30.3054 20.2505 30.238 20.5771 30.0952L29.1485 26.345C29.5044 26.1893 29.8037 25.9501 30.013 25.654C30.2223 25.3579 30.3333 25.0167 30.3335 24.6686V13.8604C30.3333 13.5409 30.2398 13.2267 30.0619 12.9477C29.884 12.6687 29.6276 12.4341 29.3169 12.2662C29.0063 12.0982 28.6518 12.0025 28.2871 11.9881C27.9223 11.9738 27.5594 12.0412 27.2328 12.184L18.6614 15.9343C18.3055 16.0899 18.0061 16.3291 17.7968 16.6252C17.5875 16.9213 17.4766 17.2625 17.4764 17.6106V28.4188ZM26.4999 8.31C26.8554 8.15411 27.1543 7.91474 27.3631 7.61869C27.572 7.32264 27.6826 6.98157 27.6826 6.63364C27.6826 6.28571 27.572 5.94464 27.3631 5.64859C27.1543 5.35254 26.8554 5.11317 26.4999 4.95728L16.2914 0.49073C15.9939 0.360675 15.666 0.292969 15.3335 0.292969C15.001 0.292969 14.6731 0.360675 14.3756 0.49073L4.16707 4.95728C3.81161 5.11317 3.51272 5.35254 3.30385 5.64859C3.09498 5.94464 2.98435 6.28571 2.98435 6.63364C2.98435 6.98157 3.09498 7.32264 3.30385 7.61869C3.51272 7.91474 3.81161 8.15411 4.16707 8.31L14.3756 12.7766C14.6731 12.9066 15.001 12.9743 15.3335 12.9743C15.666 12.9743 15.9939 12.9066 16.2914 12.7766L26.4999 8.31V8.31ZM3.43421 12.184C3.10759 12.0412 2.74469 11.9738 2.37994 11.9881C2.01518 12.0025 1.66068 12.0982 1.35006 12.2662C1.03943 12.4341 0.783002 12.6687 0.60509 12.9477C0.427179 13.2267 0.333691 13.5409 0.333496 13.8604V24.6686C0.333709 25.0167 0.444674 25.3579 0.653965 25.654C0.863257 25.9501 1.16261 26.1893 1.5185 26.345L10.0899 30.0952C10.4165 30.238 10.7794 30.3054 11.1442 30.2911C11.509 30.2767 11.8635 30.181 12.1741 30.0131C12.4847 29.8451 12.7411 29.6105 12.919 29.3315C13.097 29.0525 13.1904 28.7383 13.1906 28.4188V17.6106C13.1904 17.2625 13.0795 16.9213 12.8702 16.6252C12.6609 16.3291 12.3615 16.0899 12.0056 15.9343L3.43421 12.184V12.184Z" fill="#636363"/>
</svg>
