<svg width="31" height="22" viewBox="0 0 31 22" fill="none" xmlns="http://www.w3.org/2000/svg">
<path d="M15.3006 14.3722C19.9795 14.3722 23.9746 15.114 23.9746 18.0823C23.9746 21.0494 20.0051 21.8182 15.3006 21.8182C10.6217 21.8182 6.6266 21.0764 6.6266 18.1093C6.6266 15.141 10.5961 14.3722 15.3006 14.3722ZM22.7816 12.5848C24.5703 12.5517 26.4934 12.7973 27.2041 12.9717C28.7096 13.2677 29.6998 13.8719 30.11 14.75C30.4568 15.4709 30.4568 16.3072 30.11 17.0269C29.4824 18.3888 27.4592 18.826 26.6729 18.939C26.5105 18.9636 26.3799 18.8224 26.397 18.659C26.7987 14.8851 23.6033 13.0957 22.7767 12.6843C22.7413 12.6659 22.734 12.6376 22.7376 12.6204C22.7401 12.6082 22.7547 12.5885 22.7816 12.5848ZM7.62273 12.5823L7.95957 12.5853C7.98643 12.589 7.99986 12.6087 8.00231 12.6197C8.00597 12.6381 7.99864 12.6651 7.96446 12.6848C7.13661 13.0962 3.94125 14.8856 4.34296 18.6583C4.36005 18.8228 4.23063 18.9628 4.06823 18.9395C3.28191 18.8265 1.2587 18.3893 0.631107 17.0274C0.283121 16.3065 0.283121 15.4714 0.631107 14.7505C1.04136 13.8724 2.03038 13.2681 3.53587 12.9709C4.24772 12.7978 6.16958 12.5522 7.95957 12.5853L7.62273 12.5823ZM15.3006 0C18.4862 0 21.0406 2.56673 21.0406 5.77207C21.0406 8.97618 18.4862 11.5454 15.3006 11.5454C12.115 11.5454 9.56067 8.97618 9.56067 5.77207C9.56067 2.56673 12.115 0 15.3006 0ZM23.0929 0.962585C26.1699 0.962585 28.5862 3.87441 27.7633 7.11782C27.2077 9.30138 25.1967 10.7518 22.9562 10.6928C22.7315 10.6867 22.5105 10.6658 22.2968 10.629C22.1418 10.6019 22.0636 10.4263 22.1515 10.2961C23.0062 9.0312 23.4934 7.50959 23.4934 5.87621C23.4934 4.17161 22.9611 2.58245 22.0368 1.27943C22.0075 1.23891 21.9855 1.17627 22.0148 1.12961C22.0392 1.09154 22.0844 1.07189 22.1271 1.06206C22.4385 0.9982 22.7584 0.962585 23.0929 0.962585ZM7.64638 0.962462C7.98094 0.962462 8.30084 0.998077 8.61342 1.06194C8.65493 1.07176 8.70133 1.09264 8.72575 1.12948C8.75383 1.17615 8.73308 1.23878 8.70377 1.27931C7.77947 2.58233 7.24712 4.17149 7.24712 5.87609C7.24712 7.50946 7.7343 9.03108 8.589 10.296C8.67691 10.4262 8.59877 10.6018 8.4437 10.6288C8.2288 10.6669 8.00902 10.6866 7.78436 10.6927C5.54382 10.7516 3.53282 9.30126 2.97727 7.1177C2.15309 3.87429 4.56945 0.962462 7.64638 0.962462Z" fill="#636363"/>
</svg>
