<svg width="40" height="40" viewBox="0 0 40 40" fill="none" xmlns="http://www.w3.org/2000/svg">
<path d="M32.4978 13.316L35.0222 10.9493C34.2222 10.0993 33.4222 9.33268 32.5156 8.59935L29.9911 10.9993C27.2356 8.89935 23.7689 7.66602 20 7.66602C15.7565 7.66602 11.6869 9.24637 8.68629 12.0594C5.68571 14.8725 4 18.6878 4 22.666C4 26.6443 5.68571 30.4596 8.68629 33.2726C11.6869 36.0857 15.7565 37.666 20 37.666C28.8889 37.666 36 30.9493 36 22.666C36 19.1327 34.6844 15.8827 32.4978 13.316ZM21.7778 24.3327H18.2222V12.666H21.7778V24.3327ZM25.3333 2.66602H14.6667V5.99935H25.3333V2.66602Z" fill="#DC5A5D"/>
</svg>
