<svg width="21" height="20" viewBox="0 0 21 20" fill="none" xmlns="http://www.w3.org/2000/svg">
<path d="M16.4999 9.99992C16.4999 13.3136 13.8136 15.9999 10.4999 15.9999C7.18621 15.9999 4.49992 13.3136 4.49992 9.99992C4.49992 6.68621 7.18621 3.99992 10.4999 3.99992C13.8136 3.99992 16.4999 6.68621 16.4999 9.99992Z" fill="white"/>
<path d="M10.5 0C8.52219 0 6.58879 0.58649 4.9443 1.6853C3.29981 2.78412 2.01809 4.3459 1.26121 6.17316C0.504333 8.00042 0.306299 10.0111 0.692152 11.9509C1.078 13.8907 2.03041 15.6725 3.42894 17.0711C4.82746 18.4696 6.60929 19.422 8.5491 19.8078C10.4889 20.1937 12.4996 19.9957 14.3268 19.2388C16.1541 18.4819 17.7159 17.2002 18.8147 15.5557C19.9135 13.9112 20.5 11.9778 20.5 10C20.5 8.68678 20.2413 7.38642 19.7388 6.17316C19.2363 4.95991 18.4997 3.85752 17.5711 2.92893C16.6425 2.00035 15.5401 1.26375 14.3268 0.761205C13.1136 0.258658 11.8132 0 10.5 0ZM13.21 11.29C13.3037 11.383 13.3781 11.4936 13.4289 11.6154C13.4797 11.7373 13.5058 11.868 13.5058 12C13.5058 12.132 13.4797 12.2627 13.4289 12.3846C13.3781 12.5064 13.3037 12.617 13.21 12.71C13.117 12.8037 13.0064 12.8781 12.8846 12.9289C12.7627 12.9797 12.632 13.0058 12.5 13.0058C12.368 13.0058 12.2373 12.9797 12.1154 12.9289C11.9936 12.8781 11.883 12.8037 11.79 12.71L10.5 11.41L9.21 12.71C9.11704 12.8037 9.00644 12.8781 8.88458 12.9289C8.76272 12.9797 8.63202 13.0058 8.5 13.0058C8.36799 13.0058 8.23729 12.9797 8.11543 12.9289C7.99357 12.8781 7.88297 12.8037 7.79 12.71C7.69627 12.617 7.62188 12.5064 7.57111 12.3846C7.52034 12.2627 7.4942 12.132 7.4942 12C7.4942 11.868 7.52034 11.7373 7.57111 11.6154C7.62188 11.4936 7.69627 11.383 7.79 11.29L9.09 10L7.79 8.71C7.6017 8.52169 7.49591 8.2663 7.49591 8C7.49591 7.7337 7.6017 7.4783 7.79 7.29C7.97831 7.1017 8.2337 6.99591 8.5 6.99591C8.7663 6.99591 9.0217 7.1017 9.21 7.29L10.5 8.59L11.79 7.29C11.9783 7.1017 12.2337 6.99591 12.5 6.99591C12.7663 6.99591 13.0217 7.1017 13.21 7.29C13.3983 7.4783 13.5041 7.7337 13.5041 8C13.5041 8.2663 13.3983 8.52169 13.21 8.71L11.91 10L13.21 11.29Z" fill="#CF2A2A"/>
</svg>
