<svg width="102" height="102" viewBox="0 0 102 102" fill="none" xmlns="http://www.w3.org/2000/svg">
<path d="M102 51C102 79.1665 79.1665 102 51 102C22.8335 102 0 79.1665 0 51C0 22.8335 22.8335 0 51 0C79.1665 0 102 22.8335 102 51Z" fill="#F9FAFB"/>
<path d="M92.4373 51.2435C92.4373 74.4233 73.6473 93.2142 50.4686 93.2142C27.2899 93.2142 8.49984 74.4233 8.49984 51.2435C8.49984 28.0637 27.2899 9.27282 50.4686 9.27282C73.6473 9.27282 92.4373 28.0637 92.4373 51.2435Z" fill="#F2F4F7"/>
<path d="M50.8782 48.6248C50.8312 48.5588 50.771 48.5055 50.7024 48.4688C50.6338 48.4321 50.5584 48.413 50.4821 48.413C50.4057 48.413 50.3304 48.4321 50.2617 48.4688C50.1931 48.5055 50.133 48.5588 50.0859 48.6248L43.0434 58.4023C42.9853 58.4836 42.9493 58.5813 42.9394 58.6841C42.9296 58.7868 42.9462 58.8906 42.9876 58.9834C43.0289 59.0763 43.0932 59.1545 43.1731 59.2091C43.253 59.2638 43.3454 59.2926 43.4395 59.2924C46.0059 59.2924 48.0863 61.3729 48.0863 63.9392V76.0183C48.0863 76.322 48.3127 76.5704 48.5894 76.5704H52.3622C52.6389 76.5704 52.8652 76.322 52.8652 76.0183V63.9587C52.8652 61.3854 54.9513 59.2993 57.5246 59.2993C57.9459 59.2993 58.1786 58.768 57.9208 58.4092L50.8782 48.6248Z" fill="#5C6879"/>
<path d="M78.6518 57.7369C78.6518 46.7927 68.019 36.1678 58.0136 31.7329C55.6905 30.7033 53.1525 30.1364 50.4942 30.1364C47.8458 30.1364 45.3168 30.6984 43.0007 31.7199C32.9755 36.1417 22.3114 46.7798 22.3114 57.7369C22.3114 65.3616 27.9391 71.5372 34.8811 71.5372H37.4026C37.6792 71.5372 37.9056 71.2888 37.9056 70.9852V66.8451C37.9056 66.5415 37.6792 66.2931 37.4026 66.2931H34.8811C32.762 66.2931 30.7687 65.3685 29.2848 63.6917C27.8071 62.0219 27.0211 59.7725 27.0902 57.4402C27.1468 55.6186 27.7128 53.9073 28.7377 52.4652C29.7878 50.9955 31.2592 49.926 32.8941 49.4499C34.388 49.0216 35.5797 47.8926 36.088 46.424L36.1512 46.2413C36.692 44.6681 37.4466 43.1983 38.3961 41.8666C39.3334 40.5467 40.4438 39.3863 41.691 38.4234C44.2753 36.4293 47.3187 35.3736 50.4942 35.3736C53.6696 35.3736 56.713 36.4293 59.2974 38.4234C60.5487 39.3895 61.6553 40.5487 62.5923 41.8666C63.5417 43.1983 64.2963 44.675 64.8371 46.2413L64.8986 46.4198C65.4041 47.8871 66.5913 49.0172 68.0817 49.4499C71.4898 50.4573 73.8729 53.859 73.8729 57.7369C73.8729 60.0209 73.0618 62.1737 71.5904 63.7883C70.8688 64.5848 70.0104 65.2163 69.0649 65.6462C68.1194 66.0762 67.1056 66.296 66.0821 66.2931H63.5606C63.2839 66.2931 63.0576 66.5415 63.0576 66.8451V70.9852C63.0576 71.2888 63.2839 71.5372 63.5606 71.5372H66.0821C73.024 71.5372 78.6518 65.3616 78.6518 57.7369Z" fill="#5C6879"/>
</svg>
