<svg width="27" height="28" viewBox="0 0 27 28" fill="none" xmlns="http://www.w3.org/2000/svg">
<path fill-rule="evenodd" clip-rule="evenodd" d="M26.8341 13.9993C26.8341 17.5356 25.4294 20.927 22.9289 23.4274C20.4284 25.9279 17.037 27.3327 13.5008 27.3327C9.96459 27.3327 6.57321 25.9279 4.07272 23.4274C1.57224 20.927 0.16748 17.5356 0.16748 13.9993C0.16748 10.4631 1.57224 7.07174 4.07272 4.57126C6.57321 2.07077 9.96459 0.666016 13.5008 0.666016C17.037 0.666016 20.4284 2.07077 22.9289 4.57126C25.4294 7.07174 26.8341 10.4631 26.8341 13.9993ZM16.8341 8.99935C16.8341 9.8834 16.483 10.7312 15.8578 11.3564C15.2327 11.9815 14.3849 12.3327 13.5008 12.3327C12.6168 12.3327 11.7689 11.9815 11.1438 11.3564C10.5187 10.7312 10.1675 9.8834 10.1675 8.99935C10.1675 8.11529 10.5187 7.26745 11.1438 6.64233C11.7689 6.0172 12.6168 5.66602 13.5008 5.66602C14.3849 5.66602 15.2327 6.0172 15.8578 6.64233C16.483 7.26745 16.8341 8.11529 16.8341 8.99935ZM13.5008 15.666C11.9052 15.6657 10.3429 16.1235 8.99984 16.985C7.65674 17.8465 6.58922 19.0756 5.92415 20.526C6.86194 21.617 8.0246 22.4923 9.33239 23.0918C10.6402 23.6913 12.0622 24.0009 13.5008 23.9993C14.9395 24.0009 16.3615 23.6913 17.6692 23.0918C18.977 22.4923 20.1397 21.617 21.0775 20.526C20.4124 19.0756 19.3449 17.8465 18.0018 16.985C16.6587 16.1235 15.0965 15.6657 13.5008 15.666Z" fill="#444444"/>
</svg>
