<svg width="24" height="28" viewBox="0 0 24 28" fill="none" xmlns="http://www.w3.org/2000/svg">
<path d="M18.2501 15.5C17.6978 15.5 17.2501 15.9477 17.2501 16.5C17.2501 17.0523 17.6978 17.5 18.2501 17.5V15.5ZM18.6901 16.5L18.6904 15.5H18.6901V16.5ZM22.4101 19.785L21.4178 19.909L21.4178 19.9092L22.4101 19.785ZM22.8988 23.69L23.8911 23.566L23.8911 23.5658L22.8988 23.69ZM20.4176 26.5L20.4178 25.5H20.4176V26.5ZM3.58258 26.5V25.5H3.58236L3.58258 26.5ZM1.10133 23.69L2.09361 23.814L2.09362 23.8139L1.10133 23.69ZM1.58883 19.785L0.596544 19.661L0.596529 19.6611L1.58883 19.785ZM5.31133 16.5L5.31094 17.5H5.31133V16.5ZM5.75008 17.5C6.30236 17.5 6.75008 17.0523 6.75008 16.5C6.75008 15.9477 6.30236 15.5 5.75008 15.5V17.5ZM17.2501 7.75C17.2501 10.6495 14.8996 13 12.0001 13V15C16.0041 15 19.2501 11.7541 19.2501 7.75H17.2501ZM12.0001 13C9.10058 13 6.75008 10.6495 6.75008 7.75H4.75008C4.75008 11.7541 7.99601 15 12.0001 15V13ZM6.75008 7.75C6.75008 4.8505 9.10058 2.5 12.0001 2.5V0.5C7.99601 0.5 4.75008 3.74593 4.75008 7.75H6.75008ZM12.0001 2.5C14.8996 2.5 17.2501 4.8505 17.2501 7.75H19.2501C19.2501 3.74593 16.0041 0.5 12.0001 0.5V2.5ZM18.2501 17.5H18.6901V15.5H18.2501V17.5ZM18.6898 17.5C19.3599 17.5002 20.007 17.7451 20.5093 18.1887L21.8331 16.6895C20.9655 15.9233 19.8479 15.5003 18.6904 15.5L18.6898 17.5ZM20.5093 18.1887C21.0116 18.6323 21.3347 19.244 21.4178 19.909L23.4024 19.661C23.2588 18.5124 22.7008 17.4557 21.8331 16.6895L20.5093 18.1887ZM21.4178 19.9092L21.9066 23.8142L23.8911 23.5658L23.4023 19.6608L21.4178 19.9092ZM21.9065 23.814C21.9329 24.0251 21.9141 24.2393 21.8513 24.4426L23.7623 25.0327C23.9087 24.5585 23.9527 24.0585 23.8911 23.566L21.9065 23.814ZM21.8513 24.4426C21.7886 24.6458 21.6833 24.8334 21.5425 24.9928L23.0417 26.3166C23.3702 25.9446 23.6159 25.5069 23.7623 25.0327L21.8513 24.4426ZM21.5425 24.9928C21.4017 25.1523 21.2286 25.28 21.0347 25.3674L21.8568 27.1906C22.3093 26.9866 22.7132 26.6887 23.0417 26.3166L21.5425 24.9928ZM21.0347 25.3674C20.8408 25.4548 20.6305 25.5 20.4178 25.5L20.4174 27.5C20.9137 27.5001 21.4044 27.3946 21.8568 27.1906L21.0347 25.3674ZM20.4176 25.5H3.58258V27.5H20.4176V25.5ZM3.58236 25.5C3.36964 25.5 3.15935 25.4548 2.96544 25.3674L2.14332 27.1906C2.59578 27.3946 3.08646 27.5001 3.58279 27.5L3.58236 25.5ZM2.96544 25.3674C2.77153 25.28 2.59843 25.1523 2.45764 24.9928L0.958451 26.3166C1.28697 26.6887 1.69086 26.9866 2.14332 27.1906L2.96544 25.3674ZM2.45764 24.9928C2.31685 24.8334 2.21157 24.6458 2.14881 24.4426L0.237851 25.0327C0.384296 25.5069 0.62993 25.9446 0.958451 26.3166L2.45764 24.9928ZM2.14881 24.4426C2.08605 24.2393 2.06723 24.0251 2.09361 23.814L0.109044 23.566C0.0474985 24.0585 0.091406 24.5585 0.237851 25.0327L2.14881 24.4426ZM2.09362 23.8139L2.58112 19.9089L0.596529 19.6611L0.109028 23.5661L2.09362 23.8139ZM2.58111 19.909C2.66425 19.2437 2.98757 18.6317 3.49029 18.1881L2.16694 16.6885C1.29862 17.4548 0.740146 18.5119 0.596544 19.661L2.58111 19.909ZM3.49029 18.1881C3.993 17.7444 4.64047 17.4997 5.31094 17.5L5.31171 15.5C4.15362 15.4996 3.03527 15.9222 2.16694 16.6885L3.49029 18.1881ZM5.31133 17.5H5.75008V15.5H5.31133V17.5Z" fill="#555555"/>
</svg>
