<svg width="17" height="10" viewBox="0 0 17 10" fill="none" xmlns="http://www.w3.org/2000/svg">
<path d="M8.33333 2.08333C8.02666 2.08765 7.72225 2.1315 7.4294 2.21354C7.56486 2.42795 7.63699 2.67003 7.63889 2.91667C7.63889 3.10818 7.59697 3.29781 7.51554 3.47475C7.43411 3.65168 7.31476 3.81245 7.16429 3.94786C7.01382 4.08328 6.8352 4.1907 6.6386 4.26399C6.44201 4.33728 6.2313 4.375 6.01851 4.375C5.74447 4.37329 5.47549 4.30838 5.23726 4.18646C5.04931 4.77312 5.07121 5.39814 5.29988 5.97298C5.52854 6.54782 5.95237 7.04333 6.51133 7.38934C7.07029 7.73534 7.73604 7.91429 8.41428 7.90084C9.09253 7.88739 9.74888 7.68223 10.2904 7.3144C10.8318 6.94658 11.231 6.43475 11.4313 5.8514C11.6316 5.26806 11.6229 4.64278 11.4065 4.06413C11.19 3.48549 10.7767 2.98281 10.2251 2.62731C9.67359 2.2718 9.01174 2.08149 8.33333 2.08333ZM16.566 4.61979C14.9968 1.86432 11.8903 0 8.33333 0C4.77632 0 1.66897 1.86563 0.100679 4.62005C0.0344871 4.73789 0 4.86809 0 5.00013C0 5.13217 0.0344871 5.26237 0.100679 5.38021C1.66984 8.13568 4.77632 10 8.33333 10C11.8903 10 14.9977 8.13438 16.566 5.37995C16.6322 5.26211 16.6667 5.13191 16.6667 4.99987C16.6667 4.86783 16.6322 4.73763 16.566 4.61979ZM8.33333 8.75C5.47887 8.75 2.86197 7.31771 1.44877 5C2.86197 2.68229 5.47858 1.25 8.33333 1.25C11.1881 1.25 13.8047 2.68229 15.2179 5C13.805 7.31771 11.1881 8.75 8.33333 8.75Z" fill="#636363"/>
</svg>
